<ttFont>
    <TTGlyph name=".notdef" xMin="0" yMin="0" xMax="500" yMax="700">
      <contour>
        <pt x="0" y="700" on="1"/>
        <pt x="500" y="700" on="1"/>
        <pt x="500" y="0" on="1"/>
        <pt x="0" y="0" on="1"/>
      </contour>
      <contour>
        <pt x="80" y="650" on="1"/>
        <pt x="250" y="395" on="1"/>
        <pt x="420" y="650" on="1"/>
      </contour>
      <contour>
        <pt x="50" y="605" on="1"/>
        <pt x="50" y="95" on="1"/>
        <pt x="220" y="350" on="1"/>
      </contour>
      <contour>
        <pt x="280" y="350" on="1"/>
        <pt x="450" y="95" on="1"/>
        <pt x="450" y="605" on="1"/>
      </contour>
      <contour>
        <pt x="80" y="50" on="1"/>
        <pt x="420" y="50" on="1"/>
        <pt x="250" y="305" on="1"/>
      </contour>
    </TTGlyph>
    <TTGlyph name="A" xMin="2" yMin="0" xMax="720" yMax="686">
      <contour>
        <pt x="513" y="131" on="1"/>
        <pt x="201" y="131" on="1"/>
        <pt x="152" y="0" on="1"/>
        <pt x="2" y="0" on="1"/>
        <pt x="270" y="686" on="1"/>
        <pt x="452" y="686" on="1"/>
        <pt x="720" y="0" on="1"/>
        <pt x="562" y="0" on="1"/>
      </contour>
      <contour>
        <pt x="394" y="447" on="0"/>
        <pt x="364" y="545" on="0"/>
        <pt x="359" y="561" on="1"/>
        <pt x="354" y="561" on="1"/>
        <pt x="349" y="545" on="0"/>
        <pt x="319" y="447" on="0"/>
        <pt x="311" y="426" on="1"/>
        <pt x="246" y="252" on="1"/>
        <pt x="467" y="252" on="1"/>
        <pt x="402" y="426" on="1"/>
      </contour>
    </TTGlyph>
    <TTGlyph name="AE" xMin="-5" yMin="0" xMax="945" yMax="686">
      <contour>
        <pt x="521" y="131" on="1"/>
        <pt x="205" y="131" on="1"/>
        <pt x="145" y="0" on="1"/>
        <pt x="-5" y="0" on="1"/>
        <pt x="327" y="686" on="1"/>
        <pt x="939" y="686" on="1"/>
        <pt x="939" y="563" on="1"/>
        <pt x="552" y="563" on="1"/>
        <pt x="592" y="412" on="1"/>
        <pt x="895" y="412" on="1"/>
        <pt x="895" y="289" on="1"/>
        <pt x="625" y="289" on="1"/>
        <pt x="669" y="123" on="1"/>
        <pt x="945" y="123" on="1"/>
        <pt x="945" y="0" on="1"/>
        <pt x="555" y="0" on="1"/>
      </contour>
      <contour>
        <pt x="405" y="563" on="1"/>
        <pt x="261" y="252" on="1"/>
        <pt x="490" y="252" on="1"/>
        <pt x="410" y="563" on="1"/>
      </contour>
    </TTGlyph>
    <TTGlyph name="AEacute" xMin="-5" yMin="0" xMax="945" yMax="868">
      <component glyphName="AE" x="0" y="0" flags="0x0"/>
      <component glyphName="acute" x="372" y="145" flags="0x0"/>
    </TTGlyph>
    <TTGlyph name="Aacute" xMin="2" yMin="0" xMax="720" yMax="868">
      <component glyphName="A" x="0" y="0" flags="0x0"/>
      <component glyphName="acute" x="233" y="145" flags="0x0"/>
    </TTGlyph>
    <TTGlyph name="Abreve" xMin="2" yMin="0" xMax="720" yMax="868">
      <component glyphName="A" x="0" y="0" flags="0x0"/>
      <component glyphName="breve" x="194" y="145" flags="0x0"/>
    </TTGlyph>
    <TTGlyph name="Acircumflex" xMin="2" yMin="0" xMax="720" yMax="868">
      <component glyphName="A" x="0" y="0" flags="0x0"/>
      <component glyphName="circumflex" x="194" y="145" flags="0x0"/>
    </TTGlyph>
    <TTGlyph name="Adieresis" xMin="2" yMin="0" xMax="720" yMax="868">
      <component glyphName="A" x="0" y="0" flags="0x0"/>
      <component glyphName="dieresis" x="195" y="145" flags="0x0"/>
    </TTGlyph>
    <TTGlyph name="Agrave" xMin="2" yMin="0" xMax="720" yMax="868">
      <component glyphName="A" x="0" y="0" flags="0x0"/>
      <component glyphName="grave" x="125" y="145" flags="0x0"/>
    </TTGlyph>
    <TTGlyph name="Amacron" xMin="2" yMin="0" xMax="720" yMax="844">
      <component glyphName="A" x="0" y="0" flags="0x0"/>
      <component glyphName="macron" x="194" y="145" flags="0x0"/>
    </TTGlyph>
    <TTGlyph name="Aogonek" xMin="2" yMin="-182" xMax="721" yMax="686">
      <contour>
        <pt x="676" y="-182" on="0"/>
        <pt x="638" y="-182" on="1"/>
        <pt x="586" y="-182" on="0"/>
        <pt x="522" y="-141" on="0"/>
        <pt x="522" y="-94" on="1"/>
        <pt x="522" y="-64" on="0"/>
        <pt x="543" y="-20" on="0"/>
        <pt x="562" y="0" on="1"/>
        <pt x="513" y="131" on="1"/>
        <pt x="201" y="131" on="1"/>
        <pt x="152" y="0" on="1"/>
        <pt x="2" y="0" on="1"/>
        <pt x="270" y="686" on="1"/>
        <pt x="452" y="686" on="1"/>
        <pt x="720" y="0" on="1"/>
        <pt x="652" y="0" on="1"/>
        <pt x="627" y="-31" on="0"/>
        <pt x="627" y="-62" on="1"/>
        <pt x="627" y="-113" on="0"/>
        <pt x="685" y="-113" on="1"/>
        <pt x="721" y="-113" on="1"/>
        <pt x="721" y="-168" on="1"/>
      </contour>
      <contour>
        <pt x="394" y="447" on="0"/>
        <pt x="364" y="545" on="0"/>
        <pt x="359" y="561" on="1"/>
        <pt x="354" y="561" on="1"/>
        <pt x="349" y="545" on="0"/>
        <pt x="319" y="447" on="0"/>
        <pt x="311" y="426" on="1"/>
        <pt x="246" y="252" on="1"/>
        <pt x="467" y="252" on="1"/>
        <pt x="402" y="426" on="1"/>
      </contour>
    </TTGlyph>
    <TTGlyph name="Aring" xMin="2" yMin="0" xMax="720" yMax="903">
      <component glyphName="A" x="0" y="0" flags="0x0"/>
      <component glyphName="ring" x="194" y="145" flags="0x0"/>
    </TTGlyph>
    <TTGlyph name="Aringacute" xMin="2" yMin="0" xMax="720" yMax="993">
      <contour>
        <pt x="381" y="993" on="1"/>
        <pt x="514" y="993" on="1"/>
        <pt x="515" y="990" on="1"/>
        <pt x="407" y="861" on="1"/>
        <pt x="302" y="861" on="1"/>
      </contour>
      <contour>
        <pt x="270" y="686" on="1"/>
        <pt x="260" y="706" on="0"/>
        <pt x="260" y="733" on="1"/>
        <pt x="260" y="776" on="0"/>
        <pt x="315" y="834" on="0"/>
        <pt x="361" y="834" on="1"/>
        <pt x="407" y="834" on="0"/>
        <pt x="462" y="776" on="0"/>
        <pt x="462" y="733" on="1"/>
        <pt x="462" y="709" on="0"/>
        <pt x="452" y="686" on="1"/>
        <pt x="720" y="0" on="1"/>
        <pt x="562" y="0" on="1"/>
        <pt x="513" y="131" on="1"/>
        <pt x="201" y="131" on="1"/>
        <pt x="152" y="0" on="1"/>
        <pt x="2" y="0" on="1"/>
      </contour>
      <contour>
        <pt x="381" y="688" on="0"/>
        <pt x="405" y="714" on="0"/>
        <pt x="405" y="733" on="1"/>
        <pt x="405" y="752" on="0"/>
        <pt x="380" y="777" on="0"/>
        <pt x="361" y="777" on="1"/>
        <pt x="341" y="777" on="0"/>
        <pt x="317" y="752" on="0"/>
        <pt x="317" y="733" on="1"/>
        <pt x="317" y="714" on="0"/>
        <pt x="342" y="688" on="0"/>
        <pt x="362" y="688" on="1"/>
      </contour>
      <contour>
        <pt x="467" y="252" on="1"/>
        <pt x="402" y="426" on="1"/>
        <pt x="394" y="447" on="0"/>
        <pt x="364" y="545" on="0"/>
        <pt x="359" y="561" on="1"/>
        <pt x="354" y="561" on="1"/>
        <pt x="349" y="545" on="0"/>
        <pt x="319" y="447" on="0"/>
        <pt x="311" y="426" on="1"/>
        <pt x="246" y="252" on="1"/>
      </contour>
    </TTGlyph>
    <TTGlyph name="Atilde" xMin="2" yMin="0" xMax="720" yMax="868">
      <component glyphName="A" x="0" y="0" flags="0x0"/>
      <component glyphName="tilde" x="194" y="145" flags="0x0"/>
    </TTGlyph>
    <TTGlyph name="B" xMin="67" yMin="0" xMax="671" yMax="686">
      <contour>
        <pt x="67" y="686" on="1"/>
        <pt x="460" y="686" on="1"/>
        <pt x="514" y="686" on="0"/>
        <pt x="602" y="643" on="0"/>
        <pt x="652" y="566" on="0"/>
        <pt x="652" y="516" on="1"/>
        <pt x="652" y="459" on="0"/>
        <pt x="589" y="376" on="0"/>
        <pt x="540" y="360" on="1"/>
        <pt x="540" y="356" on="1"/>
        <pt x="598" y="345" on="0"/>
        <pt x="671" y="254" on="0"/>
        <pt x="671" y="192" on="1"/>
        <pt x="671" y="99" on="0"/>
        <pt x="552" y="0" on="0"/>
        <pt x="460" y="0" on="1"/>
        <pt x="67" y="0" on="1"/>
      </contour>
      <contour>
        <pt x="213" y="412" on="1"/>
        <pt x="419" y="412" on="1"/>
        <pt x="459" y="412" on="0"/>
        <pt x="503" y="453" on="0"/>
        <pt x="503" y="485" on="1"/>
        <pt x="503" y="523" on="0"/>
        <pt x="462" y="563" on="0"/>
        <pt x="426" y="563" on="1"/>
        <pt x="213" y="563" on="1"/>
      </contour>
      <contour>
        <pt x="213" y="123" on="1"/>
        <pt x="436" y="123" on="1"/>
        <pt x="474" y="123" on="0"/>
        <pt x="522" y="167" on="0"/>
        <pt x="522" y="208" on="1"/>
        <pt x="522" y="245" on="0"/>
        <pt x="474" y="291" on="0"/>
        <pt x="428" y="291" on="1"/>
        <pt x="213" y="291" on="1"/>
      </contour>
    </TTGlyph>
    <TTGlyph name="C" xMin="42" yMin="-12" xMax="681" yMax="698">
      <contour>
        <pt x="681" y="166" on="0"/>
        <pt x="601" y="47" on="0"/>
        <pt x="463" y="-12" on="0"/>
        <pt x="374" y="-12" on="1"/>
        <pt x="42" y="-12" on="0"/>
        <pt x="42" y="343" on="1"/>
        <pt x="42" y="521" on="0"/>
        <pt x="216" y="698" on="0"/>
        <pt x="374" y="698" on="1"/>
        <pt x="461" y="698" on="0"/>
        <pt x="600" y="639" on="0"/>
        <pt x="681" y="518" on="0"/>
        <pt x="681" y="431" on="1"/>
        <pt x="532" y="431" on="1"/>
        <pt x="532" y="498" on="0"/>
        <pt x="446" y="575" on="0"/>
        <pt x="377" y="575" on="1"/>
        <pt x="283" y="575" on="0"/>
        <pt x="191" y="463" on="0"/>
        <pt x="191" y="358" on="1"/>
        <pt x="191" y="328" on="1"/>
        <pt x="191" y="111" on="0"/>
        <pt x="377" y="111" on="1"/>
        <pt x="450" y="111" on="0"/>
        <pt x="537" y="187" on="0"/>
        <pt x="537" y="254" on="1"/>
        <pt x="681" y="254" on="1"/>
      </contour>
    </TTGlyph>
    <TTGlyph name="Cacute" xMin="42" yMin="-12" xMax="681" yMax="868">
      <component glyphName="C" x="0" y="0" flags="0x0"/>
      <component glyphName="acute" x="233" y="145" flags="0x0"/>
    </TTGlyph>
    <TTGlyph name="Cacute.loclPLK" xMin="42" yMin="-12" xMax="681" yMax="867">
      <component glyphName="C" x="0" y="0" flags="0x0"/>
      <component glyphName="acute.loclPLK" x="218" y="145" flags="0x0"/>
    </TTGlyph>
    <TTGlyph name="Ccaron" xMin="42" yMin="-12" xMax="681" yMax="868">
      <component glyphName="C" x="0" y="0" flags="0x0"/>
      <component glyphName="caron" x="194" y="145" flags="0x0"/>
    </TTGlyph>
    <TTGlyph name="Ccedilla" xMin="42" yMin="-182" xMax="681" yMax="698">
      <contour>
        <pt x="353" y="-125" on="1"/>
        <pt x="376" y="-125" on="0"/>
        <pt x="398" y="-115" on="0"/>
        <pt x="398" y="-101" on="1"/>
        <pt x="398" y="-89" on="0"/>
        <pt x="379" y="-77" on="0"/>
        <pt x="356" y="-77" on="1"/>
        <pt x="315" y="-77" on="1"/>
        <pt x="325" y="-9" on="1"/>
        <pt x="42" y="15" on="0"/>
        <pt x="42" y="343" on="1"/>
        <pt x="42" y="521" on="0"/>
        <pt x="216" y="698" on="0"/>
        <pt x="374" y="698" on="1"/>
        <pt x="461" y="698" on="0"/>
        <pt x="600" y="639" on="0"/>
        <pt x="681" y="518" on="0"/>
        <pt x="681" y="431" on="1"/>
        <pt x="532" y="431" on="1"/>
        <pt x="532" y="498" on="0"/>
        <pt x="446" y="575" on="0"/>
        <pt x="377" y="575" on="1"/>
        <pt x="283" y="575" on="0"/>
        <pt x="191" y="463" on="0"/>
        <pt x="191" y="358" on="1"/>
        <pt x="191" y="328" on="1"/>
        <pt x="191" y="111" on="0"/>
        <pt x="377" y="111" on="1"/>
        <pt x="450" y="111" on="0"/>
        <pt x="537" y="187" on="0"/>
        <pt x="537" y="254" on="1"/>
        <pt x="681" y="254" on="1"/>
        <pt x="681" y="133" on="0"/>
        <pt x="532" y="-1" on="0"/>
        <pt x="410" y="-10" on="1"/>
        <pt x="407" y="-33" on="1"/>
        <pt x="451" y="-35" on="0"/>
        <pt x="505" y="-69" on="0"/>
        <pt x="505" y="-101" on="1"/>
        <pt x="505" y="-146" on="0"/>
        <pt x="422" y="-182" on="0"/>
        <pt x="369" y="-182" on="1"/>
        <pt x="313" y="-182" on="0"/>
        <pt x="265" y="-174" on="1"/>
        <pt x="265" y="-125" on="1"/>
      </contour>
    </TTGlyph>
    <TTGlyph name="Ccircumflex" xMin="42" yMin="-12" xMax="681" yMax="868">
      <component glyphName="C" x="0" y="0" flags="0x0"/>
      <component glyphName="circumflex" x="194" y="145" flags="0x0"/>
    </TTGlyph>
    <TTGlyph name="Cdotaccent" xMin="42" yMin="-12" xMax="681" yMax="869">
      <component glyphName="C" x="0" y="0" flags="0x0"/>
      <component glyphName="dotaccent" x="193" y="145" flags="0x0"/>
    </TTGlyph>
    <TTGlyph name="D" xMin="67" yMin="0" xMax="679" yMax="686">
      <contour>
        <pt x="67" y="686" on="1"/>
        <pt x="351" y="686" on="1"/>
        <pt x="508" y="686" on="0"/>
        <pt x="679" y="515" on="0"/>
        <pt x="679" y="343" on="1"/>
        <pt x="679" y="171" on="0"/>
        <pt x="508" y="0" on="0"/>
        <pt x="351" y="0" on="1"/>
        <pt x="67" y="0" on="1"/>
      </contour>
      <contour>
        <pt x="530" y="456" on="0"/>
        <pt x="439" y="563" on="0"/>
        <pt x="351" y="563" on="1"/>
        <pt x="212" y="563" on="1"/>
        <pt x="212" y="123" on="1"/>
        <pt x="351" y="123" on="1"/>
        <pt x="439" y="123" on="0"/>
        <pt x="530" y="230" on="0"/>
        <pt x="530" y="328" on="1"/>
        <pt x="530" y="358" on="1"/>
      </contour>
    </TTGlyph>
    <TTGlyph name="Dcaron" xMin="67" yMin="0" xMax="679" yMax="868">
      <component glyphName="D" x="0" y="0" flags="0x0"/>
      <component glyphName="caron" x="194" y="145" flags="0x0"/>
    </TTGlyph>
    <TTGlyph name="Dcroat" xMin="4" yMin="0" xMax="679" yMax="686">
      <contour>
        <pt x="67" y="312" on="1"/>
        <pt x="4" y="312" on="1"/>
        <pt x="4" y="397" on="1"/>
        <pt x="67" y="397" on="1"/>
        <pt x="67" y="686" on="1"/>
        <pt x="351" y="686" on="1"/>
        <pt x="508" y="686" on="0"/>
        <pt x="679" y="515" on="0"/>
        <pt x="679" y="343" on="1"/>
        <pt x="679" y="171" on="0"/>
        <pt x="508" y="0" on="0"/>
        <pt x="351" y="0" on="1"/>
        <pt x="67" y="0" on="1"/>
      </contour>
      <contour>
        <pt x="530" y="456" on="0"/>
        <pt x="439" y="563" on="0"/>
        <pt x="351" y="563" on="1"/>
        <pt x="212" y="563" on="1"/>
        <pt x="212" y="397" on="1"/>
        <pt x="351" y="397" on="1"/>
        <pt x="351" y="312" on="1"/>
        <pt x="212" y="312" on="1"/>
        <pt x="212" y="123" on="1"/>
        <pt x="351" y="123" on="1"/>
        <pt x="439" y="123" on="0"/>
        <pt x="530" y="230" on="0"/>
        <pt x="530" y="328" on="1"/>
        <pt x="530" y="358" on="1"/>
      </contour>
    </TTGlyph>
    <TTGlyph name="Delta" xMin="1" yMin="0" xMax="719" yMax="686">
      <contour>
        <pt x="269" y="686" on="1"/>
        <pt x="451" y="686" on="1"/>
        <pt x="719" y="0" on="1"/>
        <pt x="1" y="0" on="1"/>
      </contour>
      <contour>
        <pt x="393" y="447" on="0"/>
        <pt x="363" y="545" on="0"/>
        <pt x="358" y="561" on="1"/>
        <pt x="353" y="561" on="1"/>
        <pt x="348" y="545" on="0"/>
        <pt x="318" y="447" on="0"/>
        <pt x="310" y="426" on="1"/>
        <pt x="234" y="220" on="1"/>
        <pt x="222" y="189" on="0"/>
        <pt x="196" y="131" on="0"/>
        <pt x="192" y="123" on="1"/>
        <pt x="520" y="123" on="1"/>
        <pt x="516" y="131" on="0"/>
        <pt x="490" y="190" on="0"/>
        <pt x="479" y="220" on="1"/>
        <pt x="401" y="426" on="1"/>
      </contour>
    </TTGlyph>
    <TTGlyph name="E" xMin="67" yMin="0" xMax="612" yMax="686">
      <contour>
        <pt x="67" y="686" on="1"/>
        <pt x="606" y="686" on="1"/>
        <pt x="606" y="563" on="1"/>
        <pt x="212" y="563" on="1"/>
        <pt x="212" y="412" on="1"/>
        <pt x="562" y="412" on="1"/>
        <pt x="562" y="289" on="1"/>
        <pt x="212" y="289" on="1"/>
        <pt x="212" y="123" on="1"/>
        <pt x="612" y="123" on="1"/>
        <pt x="612" y="0" on="1"/>
        <pt x="67" y="0" on="1"/>
      </contour>
    </TTGlyph>
    <TTGlyph name="Eacute" xMin="67" yMin="0" xMax="612" yMax="868">
      <component glyphName="E" x="0" y="0" flags="0x0"/>
      <component glyphName="acute" x="206" y="145" flags="0x0"/>
    </TTGlyph>
    <TTGlyph name="Ebreve" xMin="67" yMin="0" xMax="612" yMax="868">
      <component glyphName="E" x="0" y="0" flags="0x0"/>
      <component glyphName="breve" x="167" y="145" flags="0x0"/>
    </TTGlyph>
    <TTGlyph name="Ecaron" xMin="67" yMin="0" xMax="612" yMax="868">
      <component glyphName="E" x="0" y="0" flags="0x0"/>
      <component glyphName="caron" x="167" y="145" flags="0x0"/>
    </TTGlyph>
    <TTGlyph name="Ecircumflex" xMin="67" yMin="0" xMax="612" yMax="868">
      <component glyphName="E" x="0" y="0" flags="0x0"/>
      <component glyphName="circumflex" x="167" y="145" flags="0x0"/>
    </TTGlyph>
    <TTGlyph name="Edieresis" xMin="67" yMin="0" xMax="612" yMax="868">
      <component glyphName="E" x="0" y="0" flags="0x0"/>
      <component glyphName="dieresis" x="168" y="145" flags="0x0"/>
    </TTGlyph>
    <TTGlyph name="Edotaccent" xMin="67" yMin="0" xMax="612" yMax="869">
      <component glyphName="E" x="0" y="0" flags="0x0"/>
      <component glyphName="dotaccent" x="166" y="145" flags="0x0"/>
    </TTGlyph>
    <TTGlyph name="Egrave" xMin="67" yMin="0" xMax="612" yMax="868">
      <component glyphName="E" x="0" y="0" flags="0x0"/>
      <component glyphName="grave" x="98" y="145" flags="0x0"/>
    </TTGlyph>
    <TTGlyph name="Emacron" xMin="67" yMin="0" xMax="612" yMax="844">
      <component glyphName="E" x="0" y="0" flags="0x0"/>
      <component glyphName="macron" x="167" y="145" flags="0x0"/>
    </TTGlyph>
    <TTGlyph name="Eng" xMin="67" yMin="-182" xMax="655" yMax="686">
      <contour>
        <pt x="471" y="-70" on="1"/>
        <pt x="514" y="-70" on="0"/>
        <pt x="514" y="-27" on="1"/>
        <pt x="514" y="0" on="1"/>
        <pt x="249" y="373" on="1"/>
        <pt x="237" y="390" on="0"/>
        <pt x="213" y="433" on="0"/>
        <pt x="210" y="439" on="1"/>
        <pt x="205" y="436" on="1"/>
        <pt x="205" y="429" on="0"/>
        <pt x="208" y="393" on="0"/>
        <pt x="208" y="376" on="1"/>
        <pt x="208" y="0" on="1"/>
        <pt x="67" y="0" on="1"/>
        <pt x="67" y="686" on="1"/>
        <pt x="208" y="686" on="1"/>
        <pt x="472" y="316" on="1"/>
        <pt x="480" y="305" on="0"/>
        <pt x="508" y="257" on="0"/>
        <pt x="512" y="249" on="1"/>
        <pt x="517" y="252" on="1"/>
        <pt x="517" y="260" on="0"/>
        <pt x="514" y="296" on="0"/>
        <pt x="514" y="310" on="1"/>
        <pt x="514" y="686" on="1"/>
        <pt x="655" y="686" on="1"/>
        <pt x="655" y="-41" on="1"/>
        <pt x="655" y="-102" on="0"/>
        <pt x="591" y="-182" on="0"/>
        <pt x="517" y="-182" on="1"/>
        <pt x="494" y="-182" on="0"/>
        <pt x="437" y="-172" on="0"/>
        <pt x="419" y="-166" on="1"/>
        <pt x="419" y="-70" on="1"/>
      </contour>
    </TTGlyph>
    <TTGlyph name="Eogonek" xMin="67" yMin="-182" xMax="612" yMax="686">
      <contour>
        <pt x="573" y="-182" on="0"/>
        <pt x="541" y="-182" on="1"/>
        <pt x="498" y="-182" on="0"/>
        <pt x="435" y="-143" on="0"/>
        <pt x="435" y="-100" on="1"/>
        <pt x="435" y="-68" on="0"/>
        <pt x="474" y="-21" on="0"/>
        <pt x="509" y="0" on="1"/>
        <pt x="67" y="0" on="1"/>
        <pt x="67" y="686" on="1"/>
        <pt x="606" y="686" on="1"/>
        <pt x="606" y="563" on="1"/>
        <pt x="212" y="563" on="1"/>
        <pt x="212" y="412" on="1"/>
        <pt x="562" y="412" on="1"/>
        <pt x="562" y="289" on="1"/>
        <pt x="212" y="289" on="1"/>
        <pt x="212" y="123" on="1"/>
        <pt x="612" y="123" on="1"/>
        <pt x="612" y="0" on="1"/>
        <pt x="584" y="-16" on="0"/>
        <pt x="540" y="-55" on="0"/>
        <pt x="540" y="-76" on="1"/>
        <pt x="540" y="-91" on="0"/>
        <pt x="565" y="-113" on="0"/>
        <pt x="588" y="-113" on="1"/>
        <pt x="612" y="-113" on="1"/>
        <pt x="612" y="-168" on="1"/>
      </contour>
    </TTGlyph>
    <TTGlyph name="Eth" xMin="4" yMin="0" xMax="679" yMax="686">
      <contour>
        <pt x="67" y="312" on="1"/>
        <pt x="4" y="312" on="1"/>
        <pt x="4" y="397" on="1"/>
        <pt x="67" y="397" on="1"/>
        <pt x="67" y="686" on="1"/>
        <pt x="351" y="686" on="1"/>
        <pt x="508" y="686" on="0"/>
        <pt x="679" y="515" on="0"/>
        <pt x="679" y="343" on="1"/>
        <pt x="679" y="171" on="0"/>
        <pt x="508" y="0" on="0"/>
        <pt x="351" y="0" on="1"/>
        <pt x="67" y="0" on="1"/>
      </contour>
      <contour>
        <pt x="530" y="456" on="0"/>
        <pt x="439" y="563" on="0"/>
        <pt x="351" y="563" on="1"/>
        <pt x="212" y="563" on="1"/>
        <pt x="212" y="397" on="1"/>
        <pt x="351" y="397" on="1"/>
        <pt x="351" y="312" on="1"/>
        <pt x="212" y="312" on="1"/>
        <pt x="212" y="123" on="1"/>
        <pt x="351" y="123" on="1"/>
        <pt x="439" y="123" on="0"/>
        <pt x="530" y="230" on="0"/>
        <pt x="530" y="328" on="1"/>
        <pt x="530" y="358" on="1"/>
      </contour>
    </TTGlyph>
    <TTGlyph name="Euro" xMin="10" yMin="-12" xMax="522" yMax="698">
      <contour>
        <pt x="467" y="-12" on="0"/>
        <pt x="403" y="-12" on="1"/>
        <pt x="285" y="-12" on="0"/>
        <pt x="114" y="116" on="0"/>
        <pt x="82" y="227" on="1"/>
        <pt x="10" y="227" on="1"/>
        <pt x="10" y="308" on="1"/>
        <pt x="68" y="308" on="1"/>
        <pt x="67" y="319" on="0"/>
        <pt x="67" y="343" on="1"/>
        <pt x="67" y="366" on="0"/>
        <pt x="68" y="378" on="1"/>
        <pt x="10" y="378" on="1"/>
        <pt x="10" y="459" on="1"/>
        <pt x="82" y="459" on="1"/>
        <pt x="114" y="569" on="0"/>
        <pt x="285" y="698" on="0"/>
        <pt x="403" y="698" on="1"/>
        <pt x="461" y="698" on="0"/>
        <pt x="522" y="680" on="1"/>
        <pt x="522" y="570" on="1"/>
        <pt x="476" y="586" on="0"/>
        <pt x="428" y="586" on="1"/>
        <pt x="359" y="586" on="0"/>
        <pt x="254" y="519" on="0"/>
        <pt x="228" y="459" on="1"/>
        <pt x="450" y="459" on="1"/>
        <pt x="450" y="378" on="1"/>
        <pt x="207" y="378" on="1"/>
        <pt x="205" y="358" on="0"/>
        <pt x="205" y="343" on="1"/>
        <pt x="205" y="330" on="0"/>
        <pt x="207" y="308" on="1"/>
        <pt x="450" y="308" on="1"/>
        <pt x="450" y="227" on="1"/>
        <pt x="228" y="227" on="1"/>
        <pt x="254" y="167" on="0"/>
        <pt x="359" y="100" on="0"/>
        <pt x="428" y="100" on="1"/>
        <pt x="480" y="100" on="0"/>
        <pt x="522" y="116" on="1"/>
        <pt x="522" y="6" on="1"/>
      </contour>
    </TTGlyph>
    <TTGlyph name="F" xMin="67" yMin="0" xMax="564" yMax="686">
      <contour>
        <pt x="212" y="0" on="1"/>
        <pt x="67" y="0" on="1"/>
        <pt x="67" y="686" on="1"/>
        <pt x="564" y="686" on="1"/>
        <pt x="564" y="563" on="1"/>
        <pt x="212" y="563" on="1"/>
        <pt x="212" y="394" on="1"/>
        <pt x="527" y="394" on="1"/>
        <pt x="527" y="271" on="1"/>
        <pt x="212" y="271" on="1"/>
      </contour>
    </TTGlyph>
    <TTGlyph name="G" xMin="42" yMin="-12" xMax="717" yMax="698">
      <contour>
        <pt x="604" y="76" on="1"/>
        <pt x="556" y="30" on="0"/>
        <pt x="450" y="-12" on="0"/>
        <pt x="374" y="-12" on="1"/>
        <pt x="215" y="-12" on="0"/>
        <pt x="42" y="162" on="0"/>
        <pt x="42" y="343" on="1"/>
        <pt x="42" y="520" on="0"/>
        <pt x="226" y="698" on="0"/>
        <pt x="394" y="698" on="1"/>
        <pt x="483" y="698" on="0"/>
        <pt x="630" y="643" on="0"/>
        <pt x="717" y="532" on="0"/>
        <pt x="717" y="452" on="1"/>
        <pt x="567" y="452" on="1"/>
        <pt x="567" y="508" on="0"/>
        <pt x="468" y="575" on="0"/>
        <pt x="399" y="575" on="1"/>
        <pt x="294" y="575" on="0"/>
        <pt x="191" y="463" on="0"/>
        <pt x="191" y="358" on="1"/>
        <pt x="191" y="328" on="1"/>
        <pt x="191" y="218" on="0"/>
        <pt x="286" y="111" on="0"/>
        <pt x="384" y="111" on="1"/>
        <pt x="465" y="111" on="0"/>
        <pt x="572" y="189" on="0"/>
        <pt x="572" y="254" on="1"/>
        <pt x="364" y="254" on="1"/>
        <pt x="364" y="373" on="1"/>
        <pt x="717" y="373" on="1"/>
        <pt x="717" y="0" on="1"/>
        <pt x="617" y="0" on="1"/>
      </contour>
    </TTGlyph>
    <TTGlyph name="G_tilde.loclGUA" xMin="42" yMin="-12" xMax="717" yMax="868">
      <component glyphName="G" x="0" y="0" flags="0x0"/>
      <component glyphName="tilde" x="222" y="145" flags="0x0"/>
    </TTGlyph>
    <TTGlyph name="Gbreve" xMin="42" yMin="-12" xMax="717" yMax="868">
      <component glyphName="G" x="0" y="0" flags="0x0"/>
      <component glyphName="breve" x="222" y="145" flags="0x0"/>
    </TTGlyph>
    <TTGlyph name="Gcaron" xMin="42" yMin="-12" xMax="717" yMax="868">
      <component glyphName="G" x="0" y="0" flags="0x0"/>
      <component glyphName="caron" x="222" y="145" flags="0x0"/>
    </TTGlyph>
    <TTGlyph name="Gcircumflex" xMin="42" yMin="-12" xMax="717" yMax="868">
      <component glyphName="G" x="0" y="0" flags="0x0"/>
      <component glyphName="circumflex" x="222" y="145" flags="0x0"/>
    </TTGlyph>
    <TTGlyph name="Gcommaaccent" xMin="42" yMin="-230" xMax="717" yMax="698">
      <component glyphName="G" x="0" y="0" flags="0x0"/>
      <component glyphName="uni0326" x="556" y="0" flags="0x0"/>
    </TTGlyph>
    <TTGlyph name="Gdotaccent" xMin="42" yMin="-12" xMax="717" yMax="869">
      <component glyphName="G" x="0" y="0" flags="0x0"/>
      <component glyphName="dotaccent" x="221" y="145" flags="0x0"/>
    </TTGlyph>
    <TTGlyph name="H" xMin="67" yMin="0" xMax="655" yMax="686">
      <contour>
        <pt x="510" y="289" on="1"/>
        <pt x="212" y="289" on="1"/>
        <pt x="212" y="0" on="1"/>
        <pt x="67" y="0" on="1"/>
        <pt x="67" y="686" on="1"/>
        <pt x="212" y="686" on="1"/>
        <pt x="212" y="414" on="1"/>
        <pt x="510" y="414" on="1"/>
        <pt x="510" y="686" on="1"/>
        <pt x="655" y="686" on="1"/>
        <pt x="655" y="0" on="1"/>
        <pt x="510" y="0" on="1"/>
      </contour>
    </TTGlyph>
    <TTGlyph name="Hbar" xMin="7" yMin="0" xMax="715" yMax="686">
      <contour>
        <pt x="510" y="289" on="1"/>
        <pt x="212" y="289" on="1"/>
        <pt x="212" y="0" on="1"/>
        <pt x="67" y="0" on="1"/>
        <pt x="67" y="507" on="1"/>
        <pt x="7" y="507" on="1"/>
        <pt x="7" y="598" on="1"/>
        <pt x="67" y="598" on="1"/>
        <pt x="67" y="686" on="1"/>
        <pt x="212" y="686" on="1"/>
        <pt x="212" y="598" on="1"/>
        <pt x="510" y="598" on="1"/>
        <pt x="510" y="686" on="1"/>
        <pt x="655" y="686" on="1"/>
        <pt x="655" y="598" on="1"/>
        <pt x="715" y="598" on="1"/>
        <pt x="715" y="507" on="1"/>
        <pt x="655" y="507" on="1"/>
        <pt x="655" y="0" on="1"/>
        <pt x="510" y="0" on="1"/>
      </contour>
      <contour>
        <pt x="212" y="507" on="1"/>
        <pt x="212" y="414" on="1"/>
        <pt x="510" y="414" on="1"/>
        <pt x="510" y="507" on="1"/>
      </contour>
    </TTGlyph>
    <TTGlyph name="Hcircumflex" xMin="67" yMin="0" xMax="655" yMax="868">
      <component glyphName="H" x="0" y="0" flags="0x0"/>
      <component glyphName="circumflex" x="194" y="145" flags="0x0"/>
    </TTGlyph>
    <TTGlyph name="I" xMin="67" yMin="0" xMax="212" yMax="686">
      <contour>
        <pt x="67" y="686" on="1"/>
        <pt x="212" y="686" on="1"/>
        <pt x="212" y="0" on="1"/>
        <pt x="67" y="0" on="1"/>
      </contour>
    </TTGlyph>
    <TTGlyph name="IJ" xMin="67" yMin="-12" xMax="773" yMax="686">
      <component glyphName="I" x="0" y="0" flags="0x0"/>
      <component glyphName="J" x="278" y="0" flags="0x0"/>
    </TTGlyph>
    <TTGlyph name="Iacute" xMin="67" yMin="0" xMax="299" yMax="868">
      <component glyphName="I" x="0" y="0" flags="0x0"/>
      <component glyphName="acute" x="11" y="145" flags="0x0"/>
    </TTGlyph>
    <TTGlyph name="Iacute_J.loclNLD" xMin="67" yMin="-12" xMax="773" yMax="868">
      <component glyphName="I" x="0" y="0" flags="0x0"/>
      <component glyphName="acute" x="11" y="145" flags="0x0"/>
      <component glyphName="J" x="278" y="0" flags="0x0"/>
      <component glyphName="acute" x="572" y="145" flags="0x0"/>
    </TTGlyph>
    <TTGlyph name="Ibreve" xMin="-23" yMin="0" xMax="300" yMax="868">
      <component glyphName="I" x="0" y="0" flags="0x0"/>
      <component glyphName="breve" x="-28" y="145" flags="0x0"/>
    </TTGlyph>
    <TTGlyph name="Icircumflex" xMin="-28" yMin="0" xMax="305" yMax="868">
      <component glyphName="I" x="0" y="0" flags="0x0"/>
      <component glyphName="circumflex" x="-28" y="145" flags="0x0"/>
    </TTGlyph>
    <TTGlyph name="Idieresis" xMin="-25" yMin="0" xMax="304" yMax="868">
      <component glyphName="I" x="0" y="0" flags="0x0"/>
      <component glyphName="dieresis" x="-27" y="145" flags="0x0"/>
    </TTGlyph>
    <TTGlyph name="Idotaccent" xMin="67" yMin="0" xMax="212" yMax="869">
      <component glyphName="I" x="0" y="0" flags="0x0"/>
      <component glyphName="dotaccent" x="-29" y="145" flags="0x0"/>
    </TTGlyph>
    <TTGlyph name="Igrave" xMin="-22" yMin="0" xMax="212" yMax="868">
      <component glyphName="I" x="0" y="0" flags="0x0"/>
      <component glyphName="grave" x="-97" y="145" flags="0x0"/>
    </TTGlyph>
    <TTGlyph name="Imacron" xMin="-14" yMin="0" xMax="291" yMax="844">
      <component glyphName="I" x="0" y="0" flags="0x0"/>
      <component glyphName="macron" x="-28" y="145" flags="0x0"/>
    </TTGlyph>
    <TTGlyph name="Iogonek" xMin="56" yMin="-182" xMax="233" yMax="686">
      <contour>
        <pt x="194" y="-182" on="0"/>
        <pt x="162" y="-182" on="1"/>
        <pt x="118" y="-182" on="0"/>
        <pt x="56" y="-140" on="0"/>
        <pt x="56" y="-94" on="1"/>
        <pt x="56" y="-64" on="0"/>
        <pt x="77" y="-20" on="0"/>
        <pt x="95" y="0" on="1"/>
        <pt x="67" y="0" on="1"/>
        <pt x="67" y="686" on="1"/>
        <pt x="212" y="686" on="1"/>
        <pt x="212" y="0" on="1"/>
        <pt x="186" y="0" on="1"/>
        <pt x="161" y="-31" on="0"/>
        <pt x="161" y="-62" on="1"/>
        <pt x="161" y="-84" on="0"/>
        <pt x="185" y="-113" on="0"/>
        <pt x="209" y="-113" on="1"/>
        <pt x="233" y="-113" on="1"/>
        <pt x="233" y="-168" on="1"/>
      </contour>
    </TTGlyph>
    <TTGlyph name="Itilde" xMin="-29" yMin="0" xMax="307" yMax="868">
      <component glyphName="I" x="0" y="0" flags="0x0"/>
      <component glyphName="tilde" x="-28" y="145" flags="0x0"/>
    </TTGlyph>
    <TTGlyph name="J" xMin="25" yMin="-12" xMax="495" yMax="686">
      <contour>
        <pt x="495" y="686" on="1"/>
        <pt x="495" y="193" on="1"/>
        <pt x="495" y="92" on="0"/>
        <pt x="375" y="-12" on="0"/>
        <pt x="261" y="-12" on="1"/>
        <pt x="147" y="-12" on="0"/>
        <pt x="25" y="92" on="0"/>
        <pt x="25" y="193" on="1"/>
        <pt x="25" y="236" on="1"/>
        <pt x="169" y="236" on="1"/>
        <pt x="169" y="195" on="1"/>
        <pt x="169" y="154" on="0"/>
        <pt x="216" y="110" on="0"/>
        <pt x="261" y="110" on="1"/>
        <pt x="305" y="110" on="0"/>
        <pt x="349" y="154" on="0"/>
        <pt x="349" y="195" on="1"/>
        <pt x="349" y="686" on="1"/>
      </contour>
    </TTGlyph>
    <TTGlyph name="Jcircumflex" xMin="25" yMin="-12" xMax="588" yMax="868">
      <component glyphName="J" x="0" y="0" flags="0x0"/>
      <component glyphName="circumflex" x="255" y="145" flags="0x0"/>
    </TTGlyph>
    <TTGlyph name="K" xMin="67" yMin="0" xMax="709" yMax="686">
      <contour>
        <pt x="340" y="305" on="1"/>
        <pt x="212" y="199" on="1"/>
        <pt x="212" y="0" on="1"/>
        <pt x="67" y="0" on="1"/>
        <pt x="67" y="686" on="1"/>
        <pt x="212" y="686" on="1"/>
        <pt x="212" y="355" on="1"/>
        <pt x="529" y="686" on="1"/>
        <pt x="705" y="686" on="1"/>
        <pt x="437" y="407" on="1"/>
        <pt x="709" y="0" on="1"/>
        <pt x="537" y="0" on="1"/>
      </contour>
    </TTGlyph>
    <TTGlyph name="Kcommaaccent" xMin="67" yMin="-230" xMax="709" yMax="686">
      <component glyphName="K" x="0" y="0" flags="0x0"/>
      <component glyphName="uni0326" x="528" y="0" flags="0x0"/>
    </TTGlyph>
    <TTGlyph name="L" xMin="67" yMin="0" xMax="582" yMax="686">
      <contour>
        <pt x="67" y="686" on="1"/>
        <pt x="212" y="686" on="1"/>
        <pt x="212" y="126" on="1"/>
        <pt x="582" y="126" on="1"/>
        <pt x="582" y="0" on="1"/>
        <pt x="67" y="0" on="1"/>
      </contour>
    </TTGlyph>
    <TTGlyph name="Lacute" xMin="67" yMin="0" xMax="582" yMax="868">
      <component glyphName="L" x="0" y="0" flags="0x0"/>
      <component glyphName="acute" x="12" y="145" flags="0x0"/>
    </TTGlyph>
    <TTGlyph name="Lcaron" xMin="67" yMin="0" xMax="582" yMax="686">
      <contour>
        <pt x="67" y="686" on="1"/>
        <pt x="212" y="686" on="1"/>
        <pt x="212" y="126" on="1"/>
        <pt x="582" y="126" on="1"/>
        <pt x="582" y="0" on="1"/>
        <pt x="67" y="0" on="1"/>
      </contour>
      <contour>
        <pt x="409" y="559" on="1"/>
        <pt x="354" y="559" on="1"/>
        <pt x="354" y="686" on="1"/>
        <pt x="492" y="686" on="1"/>
        <pt x="492" y="571" on="1"/>
        <pt x="426" y="442" on="1"/>
        <pt x="354" y="442" on="1"/>
      </contour>
    </TTGlyph>
    <TTGlyph name="Lcommaaccent" xMin="67" yMin="-230" xMax="582" yMax="686">
      <component glyphName="L" x="0" y="0" flags="0x0"/>
      <component glyphName="uni0326" x="492" y="0" flags="0x0"/>
    </TTGlyph>
    <TTGlyph name="Ldot" xMin="67" yMin="0" xMax="582" yMax="686">
      <component glyphName="L" x="0" y="0" flags="0x0"/>
      <component glyphName="periodcentered" x="247" y="100" flags="0x0"/>
    </TTGlyph>
    <TTGlyph name="Lslash" xMin="0" yMin="0" xMax="582" yMax="686">
      <contour>
        <pt x="67" y="246" on="1"/>
        <pt x="0" y="202" on="1"/>
        <pt x="0" y="304" on="1"/>
        <pt x="67" y="348" on="1"/>
        <pt x="67" y="686" on="1"/>
        <pt x="212" y="686" on="1"/>
        <pt x="212" y="444" on="1"/>
        <pt x="353" y="537" on="1"/>
        <pt x="353" y="435" on="1"/>
        <pt x="212" y="342" on="1"/>
        <pt x="212" y="126" on="1"/>
        <pt x="582" y="126" on="1"/>
        <pt x="582" y="0" on="1"/>
        <pt x="67" y="0" on="1"/>
      </contour>
    </TTGlyph>
    <TTGlyph name="M" xMin="67" yMin="0" xMax="766" yMax="686">
      <contour>
        <pt x="621" y="437" on="1"/>
        <pt x="621" y="456" on="0"/>
        <pt x="626" y="534" on="0"/>
        <pt x="627" y="547" on="1"/>
        <pt x="622" y="547" on="1"/>
        <pt x="483" y="0" on="1"/>
        <pt x="345" y="0" on="1"/>
        <pt x="206" y="547" on="1"/>
        <pt x="201" y="547" on="1"/>
        <pt x="202" y="534" on="0"/>
        <pt x="207" y="454" on="0"/>
        <pt x="207" y="437" on="1"/>
        <pt x="207" y="0" on="1"/>
        <pt x="67" y="0" on="1"/>
        <pt x="67" y="686" on="1"/>
        <pt x="293" y="686" on="1"/>
        <pt x="389" y="308" on="1"/>
        <pt x="397" y="280" on="0"/>
        <pt x="418" y="171" on="0"/>
        <pt x="421" y="153" on="1"/>
        <pt x="426" y="153" on="1"/>
        <pt x="429" y="172" on="0"/>
        <pt x="448" y="283" on="0"/>
        <pt x="454" y="308" on="1"/>
        <pt x="550" y="686" on="1"/>
        <pt x="766" y="686" on="1"/>
        <pt x="766" y="0" on="1"/>
        <pt x="621" y="0" on="1"/>
      </contour>
    </TTGlyph>
    <TTGlyph name="N" xMin="67" yMin="0" xMax="655" yMax="686">
      <contour>
        <pt x="249" y="376" on="1"/>
        <pt x="237" y="393" on="0"/>
        <pt x="213" y="436" on="0"/>
        <pt x="210" y="442" on="1"/>
        <pt x="205" y="439" on="1"/>
        <pt x="205" y="432" on="0"/>
        <pt x="208" y="396" on="0"/>
        <pt x="208" y="379" on="1"/>
        <pt x="208" y="0" on="1"/>
        <pt x="67" y="0" on="1"/>
        <pt x="67" y="686" on="1"/>
        <pt x="208" y="686" on="1"/>
        <pt x="472" y="313" on="1"/>
        <pt x="480" y="302" on="0"/>
        <pt x="508" y="254" on="0"/>
        <pt x="512" y="246" on="1"/>
        <pt x="517" y="249" on="1"/>
        <pt x="517" y="257" on="0"/>
        <pt x="514" y="293" on="0"/>
        <pt x="514" y="307" on="1"/>
        <pt x="514" y="686" on="1"/>
        <pt x="655" y="686" on="1"/>
        <pt x="655" y="0" on="1"/>
        <pt x="514" y="0" on="1"/>
      </contour>
    </TTGlyph>
    <TTGlyph name="Nacute" xMin="67" yMin="0" xMax="655" yMax="868">
      <component glyphName="N" x="0" y="0" flags="0x0"/>
      <component glyphName="acute" x="233" y="145" flags="0x0"/>
    </TTGlyph>
    <TTGlyph name="Nacute.loclPLK" xMin="67" yMin="0" xMax="655" yMax="867">
      <component glyphName="N" x="0" y="0" flags="0x0"/>
      <component glyphName="acute.loclPLK" x="218" y="145" flags="0x0"/>
    </TTGlyph>
    <TTGlyph name="Ncaron" xMin="67" yMin="0" xMax="655" yMax="868">
      <component glyphName="N" x="0" y="0" flags="0x0"/>
      <component glyphName="caron" x="194" y="145" flags="0x0"/>
    </TTGlyph>
    <TTGlyph name="Ncommaaccent" xMin="67" yMin="-230" xMax="655" yMax="686">
      <component glyphName="N" x="0" y="0" flags="0x0"/>
      <component glyphName="uni0326" x="528" y="0" flags="0x0"/>
    </TTGlyph>
    <TTGlyph name="Ntilde" xMin="67" yMin="0" xMax="655" yMax="868">
      <component glyphName="N" x="0" y="0" flags="0x0"/>
      <component glyphName="tilde" x="194" y="145" flags="0x0"/>
    </TTGlyph>
    <TTGlyph name="O" xMin="42" yMin="-12" xMax="737" yMax="698">
      <contour>
        <pt x="224" y="-12" on="0"/>
        <pt x="42" y="165" on="0"/>
        <pt x="42" y="343" on="1"/>
        <pt x="42" y="521" on="0"/>
        <pt x="224" y="698" on="0"/>
        <pt x="389" y="698" on="1"/>
        <pt x="555" y="698" on="0"/>
        <pt x="737" y="521" on="0"/>
        <pt x="737" y="343" on="1"/>
        <pt x="737" y="165" on="0"/>
        <pt x="555" y="-12" on="0"/>
        <pt x="389" y="-12" on="1"/>
      </contour>
      <contour>
        <pt x="487" y="111" on="0"/>
        <pt x="588" y="224" on="0"/>
        <pt x="588" y="328" on="1"/>
        <pt x="588" y="358" on="1"/>
        <pt x="588" y="462" on="0"/>
        <pt x="487" y="575" on="0"/>
        <pt x="389" y="575" on="1"/>
        <pt x="291" y="575" on="0"/>
        <pt x="191" y="462" on="0"/>
        <pt x="191" y="358" on="1"/>
        <pt x="191" y="328" on="1"/>
        <pt x="191" y="224" on="0"/>
        <pt x="291" y="111" on="0"/>
        <pt x="389" y="111" on="1"/>
      </contour>
    </TTGlyph>
    <TTGlyph name="OE" xMin="42" yMin="-12" xMax="945" yMax="698">
      <contour>
        <pt x="490" y="53" on="1"/>
        <pt x="418" y="-12" on="0"/>
        <pt x="313" y="-12" on="1"/>
        <pt x="185" y="-12" on="0"/>
        <pt x="42" y="171" on="0"/>
        <pt x="42" y="343" on="1"/>
        <pt x="42" y="515" on="0"/>
        <pt x="185" y="698" on="0"/>
        <pt x="313" y="698" on="1"/>
        <pt x="421" y="698" on="0"/>
        <pt x="490" y="632" on="1"/>
        <pt x="490" y="686" on="1"/>
        <pt x="939" y="686" on="1"/>
        <pt x="939" y="563" on="1"/>
        <pt x="635" y="563" on="1"/>
        <pt x="635" y="412" on="1"/>
        <pt x="895" y="412" on="1"/>
        <pt x="895" y="289" on="1"/>
        <pt x="635" y="289" on="1"/>
        <pt x="635" y="123" on="1"/>
        <pt x="945" y="123" on="1"/>
        <pt x="945" y="0" on="1"/>
        <pt x="490" y="0" on="1"/>
      </contour>
      <contour>
        <pt x="415" y="111" on="0"/>
        <pt x="490" y="220" on="0"/>
        <pt x="490" y="343" on="1"/>
        <pt x="490" y="466" on="0"/>
        <pt x="415" y="575" on="0"/>
        <pt x="343" y="575" on="1"/>
        <pt x="263" y="575" on="0"/>
        <pt x="191" y="462" on="0"/>
        <pt x="191" y="343" on="1"/>
        <pt x="191" y="224" on="0"/>
        <pt x="263" y="111" on="0"/>
        <pt x="343" y="111" on="1"/>
      </contour>
    </TTGlyph>
    <TTGlyph name="Oacute" xMin="42" yMin="-12" xMax="737" yMax="868">
      <component glyphName="O" x="0" y="0" flags="0x0"/>
      <component glyphName="acute" x="261" y="145" flags="0x0"/>
    </TTGlyph>
    <TTGlyph name="Oacute.loclPLK" xMin="42" yMin="-12" xMax="737" yMax="867">
      <component glyphName="O" x="0" y="0" flags="0x0"/>
      <component glyphName="acute.loclPLK" x="246" y="145" flags="0x0"/>
    </TTGlyph>
    <TTGlyph name="Obreve" xMin="42" yMin="-12" xMax="737" yMax="868">
      <component glyphName="O" x="0" y="0" flags="0x0"/>
      <component glyphName="breve" x="222" y="145" flags="0x0"/>
    </TTGlyph>
    <TTGlyph name="Ocircumflex" xMin="42" yMin="-12" xMax="737" yMax="868">
      <component glyphName="O" x="0" y="0" flags="0x0"/>
      <component glyphName="circumflex" x="222" y="145" flags="0x0"/>
    </TTGlyph>
    <TTGlyph name="Odieresis" xMin="42" yMin="-12" xMax="737" yMax="868">
      <component glyphName="O" x="0" y="0" flags="0x0"/>
      <component glyphName="dieresis" x="223" y="145" flags="0x0"/>
    </TTGlyph>
    <TTGlyph name="Ograve" xMin="42" yMin="-12" xMax="737" yMax="868">
      <component glyphName="O" x="0" y="0" flags="0x0"/>
      <component glyphName="grave" x="153" y="145" flags="0x0"/>
    </TTGlyph>
    <TTGlyph name="Ohorn" xMin="42" yMin="-12" xMax="797" yMax="828">
      <contour>
        <pt x="797" y="828" on="1"/>
        <pt x="797" y="774" on="1"/>
        <pt x="797" y="693" on="0"/>
        <pt x="739" y="596" on="0"/>
        <pt x="677" y="572" on="1"/>
        <pt x="737" y="484" on="0"/>
        <pt x="737" y="343" on="1"/>
        <pt x="737" y="165" on="0"/>
        <pt x="555" y="-12" on="0"/>
        <pt x="389" y="-12" on="1"/>
        <pt x="224" y="-12" on="0"/>
        <pt x="42" y="165" on="0"/>
        <pt x="42" y="343" on="1"/>
        <pt x="42" y="521" on="0"/>
        <pt x="224" y="698" on="0"/>
        <pt x="389" y="698" on="1"/>
        <pt x="539" y="698" on="0"/>
        <pt x="628" y="626" on="1"/>
        <pt x="689" y="644" on="0"/>
        <pt x="708" y="691" on="1"/>
        <pt x="639" y="691" on="1"/>
        <pt x="639" y="828" on="1"/>
      </contour>
      <contour>
        <pt x="588" y="358" on="1"/>
        <pt x="588" y="462" on="0"/>
        <pt x="487" y="575" on="0"/>
        <pt x="389" y="575" on="1"/>
        <pt x="291" y="575" on="0"/>
        <pt x="191" y="462" on="0"/>
        <pt x="191" y="358" on="1"/>
        <pt x="191" y="328" on="1"/>
        <pt x="191" y="224" on="0"/>
        <pt x="291" y="111" on="0"/>
        <pt x="389" y="111" on="1"/>
        <pt x="487" y="111" on="0"/>
        <pt x="588" y="224" on="0"/>
        <pt x="588" y="328" on="1"/>
      </contour>
    </TTGlyph>
    <TTGlyph name="Ohungarumlaut" xMin="42" yMin="-12" xMax="737" yMax="868">
      <component glyphName="O" x="0" y="0" flags="0x0"/>
      <component glyphName="hungarumlaut" x="242" y="145" flags="0x0"/>
    </TTGlyph>
    <TTGlyph name="Omacron" xMin="42" yMin="-12" xMax="737" yMax="844">
      <component glyphName="O" x="0" y="0" flags="0x0"/>
      <component glyphName="macron" x="222" y="145" flags="0x0"/>
    </TTGlyph>
    <TTGlyph name="Omega" xMin="33" yMin="0" xMax="769" yMax="698">
      <contour>
        <pt x="437" y="110" on="1"/>
        <pt x="517" y="124" on="0"/>
        <pt x="600" y="231" on="0"/>
        <pt x="600" y="316" on="1"/>
        <pt x="600" y="348" on="1"/>
        <pt x="600" y="575" on="0"/>
        <pt x="401" y="575" on="1"/>
        <pt x="202" y="575" on="0"/>
        <pt x="202" y="348" on="1"/>
        <pt x="202" y="316" on="1"/>
        <pt x="202" y="232" on="0"/>
        <pt x="285" y="126" on="0"/>
        <pt x="365" y="111" on="1"/>
        <pt x="365" y="0" on="1"/>
        <pt x="33" y="0" on="1"/>
        <pt x="33" y="123" on="1"/>
        <pt x="84" y="123" on="1"/>
        <pt x="91" y="123" on="0"/>
        <pt x="129" y="117" on="1"/>
        <pt x="160" y="112" on="0"/>
        <pt x="184" y="109" on="1"/>
        <pt x="122" y="150" on="0"/>
        <pt x="53" y="278" on="0"/>
        <pt x="53" y="363" on="1"/>
        <pt x="53" y="468" on="0"/>
        <pt x="137" y="619" on="0"/>
        <pt x="293" y="698" on="0"/>
        <pt x="401" y="698" on="1"/>
        <pt x="509" y="698" on="0"/>
        <pt x="665" y="619" on="0"/>
        <pt x="749" y="468" on="0"/>
        <pt x="749" y="363" on="1"/>
        <pt x="749" y="278" on="0"/>
        <pt x="679" y="151" on="0"/>
        <pt x="617" y="109" on="1"/>
        <pt x="642" y="112" on="0"/>
        <pt x="675" y="117" on="1"/>
        <pt x="709" y="123" on="0"/>
        <pt x="718" y="123" on="1"/>
        <pt x="769" y="123" on="1"/>
        <pt x="769" y="0" on="1"/>
        <pt x="437" y="0" on="1"/>
      </contour>
    </TTGlyph>
    <TTGlyph name="Oslash" xMin="42" yMin="-49" xMax="737" yMax="735">
      <contour>
        <pt x="138" y="72" on="1"/>
        <pt x="42" y="162" on="0"/>
        <pt x="42" y="343" on="1"/>
        <pt x="42" y="521" on="0"/>
        <pt x="224" y="698" on="0"/>
        <pt x="389" y="698" on="1"/>
        <pt x="502" y="698" on="0"/>
        <pt x="580" y="657" on="1"/>
        <pt x="638" y="735" on="1"/>
        <pt x="732" y="735" on="1"/>
        <pt x="641" y="614" on="1"/>
        <pt x="737" y="524" on="0"/>
        <pt x="737" y="343" on="1"/>
        <pt x="737" y="165" on="0"/>
        <pt x="555" y="-12" on="0"/>
        <pt x="389" y="-12" on="1"/>
        <pt x="277" y="-12" on="0"/>
        <pt x="200" y="28" on="1"/>
        <pt x="142" y="-49" on="1"/>
        <pt x="47" y="-49" on="1"/>
      </contour>
      <contour>
        <pt x="454" y="575" on="0"/>
        <pt x="389" y="575" on="1"/>
        <pt x="291" y="575" on="0"/>
        <pt x="191" y="462" on="0"/>
        <pt x="191" y="358" on="1"/>
        <pt x="191" y="328" on="1"/>
        <pt x="191" y="241" on="0"/>
        <pt x="225" y="188" on="1"/>
        <pt x="498" y="549" on="1"/>
      </contour>
      <contour>
        <pt x="588" y="443" on="0"/>
        <pt x="553" y="498" on="1"/>
        <pt x="281" y="136" on="1"/>
        <pt x="324" y="111" on="0"/>
        <pt x="389" y="111" on="1"/>
        <pt x="487" y="111" on="0"/>
        <pt x="588" y="224" on="0"/>
        <pt x="588" y="328" on="1"/>
        <pt x="588" y="358" on="1"/>
      </contour>
    </TTGlyph>
    <TTGlyph name="Oslashacute" xMin="42" yMin="-49" xMax="737" yMax="869">
      <component glyphName="acute" x="268" y="146" flags="0x0"/>
      <component glyphName="Oslash" x="0" y="0" flags="0x0"/>
    </TTGlyph>
    <TTGlyph name="Otilde" xMin="42" yMin="-12" xMax="737" yMax="868">
      <component glyphName="O" x="0" y="0" flags="0x0"/>
      <component glyphName="tilde" x="222" y="145" flags="0x0"/>
    </TTGlyph>
    <TTGlyph name="P" xMin="67" yMin="0" xMax="625" yMax="686">
      <contour>
        <pt x="67" y="686" on="1"/>
        <pt x="394" y="686" on="1"/>
        <pt x="509" y="686" on="0"/>
        <pt x="625" y="569" on="0"/>
        <pt x="625" y="462" on="1"/>
        <pt x="625" y="355" on="0"/>
        <pt x="504" y="236" on="0"/>
        <pt x="384" y="236" on="1"/>
        <pt x="212" y="236" on="1"/>
        <pt x="212" y="0" on="1"/>
        <pt x="67" y="0" on="1"/>
      </contour>
      <contour>
        <pt x="428" y="359" on="0"/>
        <pt x="478" y="413" on="0"/>
        <pt x="478" y="462" on="1"/>
        <pt x="478" y="510" on="0"/>
        <pt x="428" y="563" on="0"/>
        <pt x="381" y="563" on="1"/>
        <pt x="212" y="563" on="1"/>
        <pt x="212" y="359" on="1"/>
        <pt x="381" y="359" on="1"/>
      </contour>
    </TTGlyph>
    <TTGlyph name="Q" xMin="42" yMin="-130" xMax="737" yMax="698">
      <contour>
        <pt x="416" y="-11" on="1"/>
        <pt x="407" y="-12" on="0"/>
        <pt x="389" y="-12" on="1"/>
        <pt x="224" y="-12" on="0"/>
        <pt x="42" y="165" on="0"/>
        <pt x="42" y="343" on="1"/>
        <pt x="42" y="521" on="0"/>
        <pt x="224" y="698" on="0"/>
        <pt x="389" y="698" on="1"/>
        <pt x="555" y="698" on="0"/>
        <pt x="737" y="521" on="0"/>
        <pt x="737" y="343" on="1"/>
        <pt x="737" y="219" on="0"/>
        <pt x="647" y="57" on="0"/>
        <pt x="562" y="20" on="1"/>
        <pt x="718" y="-130" on="1"/>
        <pt x="527" y="-130" on="1"/>
      </contour>
      <contour>
        <pt x="588" y="462" on="0"/>
        <pt x="487" y="575" on="0"/>
        <pt x="389" y="575" on="1"/>
        <pt x="291" y="575" on="0"/>
        <pt x="191" y="462" on="0"/>
        <pt x="191" y="358" on="1"/>
        <pt x="191" y="328" on="1"/>
        <pt x="191" y="224" on="0"/>
        <pt x="291" y="111" on="0"/>
        <pt x="389" y="111" on="1"/>
        <pt x="487" y="111" on="0"/>
        <pt x="588" y="224" on="0"/>
        <pt x="588" y="328" on="1"/>
        <pt x="588" y="358" on="1"/>
      </contour>
    </TTGlyph>
    <TTGlyph name="R" xMin="67" yMin="0" xMax="682" yMax="686">
      <contour>
        <pt x="404" y="256" on="1"/>
        <pt x="212" y="256" on="1"/>
        <pt x="212" y="0" on="1"/>
        <pt x="67" y="0" on="1"/>
        <pt x="67" y="686" on="1"/>
        <pt x="431" y="686" on="1"/>
        <pt x="546" y="686" on="0"/>
        <pt x="662" y="573" on="0"/>
        <pt x="662" y="471" on="1"/>
        <pt x="662" y="327" on="0"/>
        <pt x="542" y="279" on="1"/>
        <pt x="682" y="0" on="1"/>
        <pt x="525" y="0" on="1"/>
      </contour>
      <contour>
        <pt x="212" y="377" on="1"/>
        <pt x="418" y="377" on="1"/>
        <pt x="465" y="377" on="0"/>
        <pt x="515" y="427" on="0"/>
        <pt x="515" y="471" on="1"/>
        <pt x="515" y="515" on="0"/>
        <pt x="465" y="563" on="0"/>
        <pt x="418" y="563" on="1"/>
        <pt x="212" y="563" on="1"/>
      </contour>
    </TTGlyph>
    <TTGlyph name="Racute" xMin="67" yMin="0" xMax="682" yMax="868">
      <component glyphName="R" x="0" y="0" flags="0x0"/>
      <component glyphName="acute" x="233" y="145" flags="0x0"/>
    </TTGlyph>
    <TTGlyph name="Rcaron" xMin="67" yMin="0" xMax="682" yMax="868">
      <component glyphName="R" x="0" y="0" flags="0x0"/>
      <component glyphName="caron" x="194" y="145" flags="0x0"/>
    </TTGlyph>
    <TTGlyph name="Rcommaaccent" xMin="67" yMin="-230" xMax="682" yMax="686">
      <component glyphName="R" x="0" y="0" flags="0x0"/>
      <component glyphName="uni0326" x="528" y="0" flags="0x0"/>
    </TTGlyph>
    <TTGlyph name="S" xMin="42" yMin="-12" xMax="623" yMax="698">
      <contour>
        <pt x="463" y="493" on="1"/>
        <pt x="463" y="531" on="0"/>
        <pt x="394" y="575" on="0"/>
        <pt x="335" y="575" on="1"/>
        <pt x="272" y="575" on="0"/>
        <pt x="205" y="541" on="0"/>
        <pt x="205" y="511" on="1"/>
        <pt x="205" y="488" on="0"/>
        <pt x="245" y="455" on="0"/>
        <pt x="305" y="434" on="0"/>
        <pt x="360" y="419" on="1"/>
        <pt x="442" y="397" on="0"/>
        <pt x="547" y="354" on="0"/>
        <pt x="623" y="270" on="0"/>
        <pt x="623" y="202" on="1"/>
        <pt x="623" y="92" on="0"/>
        <pt x="466" y="-12" on="0"/>
        <pt x="330" y="-12" on="1"/>
        <pt x="251" y="-12" on="0"/>
        <pt x="120" y="37" on="0"/>
        <pt x="42" y="133" on="0"/>
        <pt x="42" y="201" on="1"/>
        <pt x="43" y="223" on="1"/>
        <pt x="190" y="223" on="1"/>
        <pt x="189" y="207" on="1"/>
        <pt x="189" y="163" on="0"/>
        <pt x="267" y="111" on="0"/>
        <pt x="337" y="111" on="1"/>
        <pt x="411" y="111" on="0"/>
        <pt x="477" y="150" on="0"/>
        <pt x="477" y="183" on="1"/>
        <pt x="477" y="212" on="0"/>
        <pt x="434" y="251" on="0"/>
        <pt x="369" y="274" on="0"/>
        <pt x="312" y="290" on="1"/>
        <pt x="231" y="313" on="0"/>
        <pt x="131" y="355" on="0"/>
        <pt x="59" y="438" on="0"/>
        <pt x="59" y="506" on="1"/>
        <pt x="59" y="600" on="0"/>
        <pt x="211" y="698" on="0"/>
        <pt x="337" y="698" on="1"/>
        <pt x="456" y="698" on="0"/>
        <pt x="607" y="597" on="0"/>
        <pt x="607" y="496" on="1"/>
        <pt x="607" y="484" on="1"/>
        <pt x="463" y="484" on="1"/>
      </contour>
    </TTGlyph>
    <TTGlyph name="Sacute" xMin="42" yMin="-12" xMax="623" yMax="868">
      <component glyphName="S" x="0" y="0" flags="0x0"/>
      <component glyphName="acute" x="206" y="145" flags="0x0"/>
    </TTGlyph>
    <TTGlyph name="Sacute.loclPLK" xMin="42" yMin="-12" xMax="623" yMax="867">
      <component glyphName="S" x="0" y="0" flags="0x0"/>
      <component glyphName="acute.loclPLK" x="191" y="145" flags="0x0"/>
    </TTGlyph>
    <TTGlyph name="Scaron" xMin="42" yMin="-12" xMax="623" yMax="868">
      <component glyphName="S" x="0" y="0" flags="0x0"/>
      <component glyphName="caron" x="167" y="145" flags="0x0"/>
    </TTGlyph>
    <TTGlyph name="Scedilla" xMin="42" yMin="-182" xMax="623" yMax="698">
      <contour>
        <pt x="320" y="-125" on="1"/>
        <pt x="343" y="-125" on="0"/>
        <pt x="365" y="-115" on="0"/>
        <pt x="365" y="-101" on="1"/>
        <pt x="365" y="-89" on="0"/>
        <pt x="346" y="-77" on="0"/>
        <pt x="323" y="-77" on="1"/>
        <pt x="282" y="-77" on="1"/>
        <pt x="292" y="-10" on="1"/>
        <pt x="184" y="-2" on="0"/>
        <pt x="42" y="108" on="0"/>
        <pt x="42" y="201" on="1"/>
        <pt x="43" y="223" on="1"/>
        <pt x="190" y="223" on="1"/>
        <pt x="189" y="207" on="1"/>
        <pt x="189" y="163" on="0"/>
        <pt x="267" y="111" on="0"/>
        <pt x="337" y="111" on="1"/>
        <pt x="411" y="111" on="0"/>
        <pt x="477" y="150" on="0"/>
        <pt x="477" y="183" on="1"/>
        <pt x="477" y="212" on="0"/>
        <pt x="434" y="251" on="0"/>
        <pt x="369" y="274" on="0"/>
        <pt x="312" y="290" on="1"/>
        <pt x="231" y="313" on="0"/>
        <pt x="131" y="355" on="0"/>
        <pt x="59" y="438" on="0"/>
        <pt x="59" y="506" on="1"/>
        <pt x="59" y="600" on="0"/>
        <pt x="211" y="698" on="0"/>
        <pt x="337" y="698" on="1"/>
        <pt x="456" y="698" on="0"/>
        <pt x="607" y="597" on="0"/>
        <pt x="607" y="496" on="1"/>
        <pt x="607" y="484" on="1"/>
        <pt x="463" y="484" on="1"/>
        <pt x="463" y="493" on="1"/>
        <pt x="463" y="531" on="0"/>
        <pt x="394" y="575" on="0"/>
        <pt x="335" y="575" on="1"/>
        <pt x="272" y="575" on="0"/>
        <pt x="205" y="541" on="0"/>
        <pt x="205" y="511" on="1"/>
        <pt x="205" y="488" on="0"/>
        <pt x="245" y="455" on="0"/>
        <pt x="305" y="434" on="0"/>
        <pt x="360" y="419" on="1"/>
        <pt x="442" y="397" on="0"/>
        <pt x="547" y="354" on="0"/>
        <pt x="623" y="270" on="0"/>
        <pt x="623" y="202" on="1"/>
        <pt x="623" y="101" on="0"/>
        <pt x="492" y="-2" on="0"/>
        <pt x="377" y="-10" on="1"/>
        <pt x="374" y="-33" on="1"/>
        <pt x="418" y="-35" on="0"/>
        <pt x="472" y="-69" on="0"/>
        <pt x="472" y="-101" on="1"/>
        <pt x="472" y="-146" on="0"/>
        <pt x="389" y="-182" on="0"/>
        <pt x="336" y="-182" on="1"/>
        <pt x="280" y="-182" on="0"/>
        <pt x="232" y="-174" on="1"/>
        <pt x="232" y="-125" on="1"/>
      </contour>
    </TTGlyph>
    <TTGlyph name="Scircumflex" xMin="42" yMin="-12" xMax="623" yMax="868">
      <component glyphName="S" x="0" y="0" flags="0x0"/>
      <component glyphName="circumflex" x="167" y="145" flags="0x0"/>
    </TTGlyph>
    <TTGlyph name="Scommaaccent" xMin="42" yMin="-230" xMax="623" yMax="698">
      <component glyphName="S" x="0" y="0" flags="0x0"/>
      <component glyphName="uni0326" x="501" y="0" flags="0x0"/>
    </TTGlyph>
    <TTGlyph name="T" xMin="21" yMin="0" xMax="590" yMax="686">
      <contour>
        <pt x="233" y="561" on="1"/>
        <pt x="21" y="561" on="1"/>
        <pt x="21" y="686" on="1"/>
        <pt x="590" y="686" on="1"/>
        <pt x="590" y="561" on="1"/>
        <pt x="378" y="561" on="1"/>
        <pt x="378" y="0" on="1"/>
        <pt x="233" y="0" on="1"/>
      </contour>
    </TTGlyph>
    <TTGlyph name="Tbar" xMin="21" yMin="0" xMax="590" yMax="686">
      <contour>
        <pt x="233" y="352" on="1"/>
        <pt x="144" y="352" on="1"/>
        <pt x="144" y="443" on="1"/>
        <pt x="233" y="443" on="1"/>
        <pt x="233" y="561" on="1"/>
        <pt x="21" y="561" on="1"/>
        <pt x="21" y="686" on="1"/>
        <pt x="590" y="686" on="1"/>
        <pt x="590" y="561" on="1"/>
        <pt x="378" y="561" on="1"/>
        <pt x="378" y="443" on="1"/>
        <pt x="467" y="443" on="1"/>
        <pt x="467" y="352" on="1"/>
        <pt x="378" y="352" on="1"/>
        <pt x="378" y="0" on="1"/>
        <pt x="233" y="0" on="1"/>
      </contour>
    </TTGlyph>
    <TTGlyph name="Tcaron" xMin="21" yMin="0" xMax="590" yMax="868">
      <component glyphName="T" x="0" y="0" flags="0x0"/>
      <component glyphName="caron" x="139" y="145" flags="0x0"/>
    </TTGlyph>
    <TTGlyph name="Thorn" xMin="67" yMin="0" xMax="625" yMax="686">
      <contour>
        <pt x="212" y="0" on="1"/>
        <pt x="67" y="0" on="1"/>
        <pt x="67" y="686" on="1"/>
        <pt x="212" y="686" on="1"/>
        <pt x="212" y="579" on="1"/>
        <pt x="394" y="579" on="1"/>
        <pt x="509" y="579" on="0"/>
        <pt x="625" y="462" on="0"/>
        <pt x="625" y="355" on="1"/>
        <pt x="625" y="248" on="0"/>
        <pt x="504" y="129" on="0"/>
        <pt x="384" y="129" on="1"/>
        <pt x="212" y="129" on="1"/>
      </contour>
      <contour>
        <pt x="428" y="252" on="0"/>
        <pt x="478" y="306" on="0"/>
        <pt x="478" y="355" on="1"/>
        <pt x="478" y="403" on="0"/>
        <pt x="428" y="456" on="0"/>
        <pt x="381" y="456" on="1"/>
        <pt x="212" y="456" on="1"/>
        <pt x="212" y="252" on="1"/>
        <pt x="381" y="252" on="1"/>
      </contour>
    </TTGlyph>
    <TTGlyph name="U" xMin="67" yMin="-12" xMax="655" yMax="686">
      <contour>
        <pt x="655" y="686" on="1"/>
        <pt x="655" y="255" on="1"/>
        <pt x="655" y="124" on="0"/>
        <pt x="500" y="-12" on="0"/>
        <pt x="360" y="-12" on="1"/>
        <pt x="221" y="-12" on="0"/>
        <pt x="67" y="124" on="0"/>
        <pt x="67" y="255" on="1"/>
        <pt x="67" y="686" on="1"/>
        <pt x="212" y="686" on="1"/>
        <pt x="212" y="262" on="1"/>
        <pt x="212" y="188" on="0"/>
        <pt x="289" y="111" on="0"/>
        <pt x="360" y="111" on="1"/>
        <pt x="431" y="111" on="0"/>
        <pt x="510" y="188" on="0"/>
        <pt x="510" y="262" on="1"/>
        <pt x="510" y="686" on="1"/>
      </contour>
    </TTGlyph>
    <TTGlyph name="Uacute" xMin="67" yMin="-12" xMax="655" yMax="868">
      <component glyphName="U" x="0" y="0" flags="0x0"/>
      <component glyphName="acute" x="233" y="145" flags="0x0"/>
    </TTGlyph>
    <TTGlyph name="Ubreve" xMin="67" yMin="-12" xMax="655" yMax="868">
      <component glyphName="U" x="0" y="0" flags="0x0"/>
      <component glyphName="breve" x="194" y="145" flags="0x0"/>
    </TTGlyph>
    <TTGlyph name="Ucircumflex" xMin="67" yMin="-12" xMax="655" yMax="868">
      <component glyphName="U" x="0" y="0" flags="0x0"/>
      <component glyphName="circumflex" x="194" y="145" flags="0x0"/>
    </TTGlyph>
    <TTGlyph name="Udieresis" xMin="67" yMin="-12" xMax="655" yMax="868">
      <component glyphName="U" x="0" y="0" flags="0x0"/>
      <component glyphName="dieresis" x="195" y="145" flags="0x0"/>
    </TTGlyph>
    <TTGlyph name="Ugrave" xMin="67" yMin="-12" xMax="655" yMax="868">
      <component glyphName="U" x="0" y="0" flags="0x0"/>
      <component glyphName="grave" x="125" y="145" flags="0x0"/>
    </TTGlyph>
    <TTGlyph name="Uhorn" xMin="67" yMin="-12" xMax="756" yMax="868">
      <contour>
        <pt x="756" y="868" on="1"/>
        <pt x="756" y="814" on="1"/>
        <pt x="756" y="739" on="0"/>
        <pt x="707" y="646" on="0"/>
        <pt x="655" y="620" on="1"/>
        <pt x="655" y="255" on="1"/>
        <pt x="655" y="124" on="0"/>
        <pt x="500" y="-12" on="0"/>
        <pt x="360" y="-12" on="1"/>
        <pt x="221" y="-12" on="0"/>
        <pt x="67" y="124" on="0"/>
        <pt x="67" y="255" on="1"/>
        <pt x="67" y="686" on="1"/>
        <pt x="212" y="686" on="1"/>
        <pt x="212" y="262" on="1"/>
        <pt x="212" y="188" on="0"/>
        <pt x="289" y="111" on="0"/>
        <pt x="360" y="111" on="1"/>
        <pt x="431" y="111" on="0"/>
        <pt x="510" y="188" on="0"/>
        <pt x="510" y="262" on="1"/>
        <pt x="510" y="686" on="1"/>
        <pt x="631" y="686" on="1"/>
        <pt x="657" y="705" on="0"/>
        <pt x="667" y="731" on="1"/>
        <pt x="598" y="731" on="1"/>
        <pt x="598" y="868" on="1"/>
      </contour>
    </TTGlyph>
    <TTGlyph name="Uhungarumlaut" xMin="67" yMin="-12" xMax="655" yMax="868">
      <component glyphName="U" x="0" y="0" flags="0x0"/>
      <component glyphName="hungarumlaut" x="214" y="145" flags="0x0"/>
    </TTGlyph>
    <TTGlyph name="Umacron" xMin="67" yMin="-12" xMax="655" yMax="844">
      <component glyphName="U" x="0" y="0" flags="0x0"/>
      <component glyphName="macron" x="194" y="145" flags="0x0"/>
    </TTGlyph>
    <TTGlyph name="Uogonek" xMin="67" yMin="-182" xMax="655" yMax="686">
      <contour>
        <pt x="470" y="-182" on="0"/>
        <pt x="438" y="-182" on="1"/>
        <pt x="394" y="-182" on="0"/>
        <pt x="332" y="-140" on="0"/>
        <pt x="332" y="-94" on="1"/>
        <pt x="332" y="-51" on="0"/>
        <pt x="360" y="-12" on="1"/>
        <pt x="221" y="-12" on="0"/>
        <pt x="67" y="124" on="0"/>
        <pt x="67" y="255" on="1"/>
        <pt x="67" y="686" on="1"/>
        <pt x="212" y="686" on="1"/>
        <pt x="212" y="262" on="1"/>
        <pt x="212" y="188" on="0"/>
        <pt x="289" y="111" on="0"/>
        <pt x="360" y="111" on="1"/>
        <pt x="431" y="111" on="0"/>
        <pt x="510" y="188" on="0"/>
        <pt x="510" y="262" on="1"/>
        <pt x="510" y="686" on="1"/>
        <pt x="655" y="686" on="1"/>
        <pt x="655" y="255" on="1"/>
        <pt x="655" y="150" on="0"/>
        <pt x="555" y="20" on="0"/>
        <pt x="461" y="-1" on="1"/>
        <pt x="437" y="-34" on="0"/>
        <pt x="437" y="-62" on="1"/>
        <pt x="437" y="-84" on="0"/>
        <pt x="461" y="-113" on="0"/>
        <pt x="485" y="-113" on="1"/>
        <pt x="509" y="-113" on="1"/>
        <pt x="509" y="-168" on="1"/>
      </contour>
    </TTGlyph>
    <TTGlyph name="Uring" xMin="67" yMin="-12" xMax="655" yMax="903">
      <component glyphName="U" x="0" y="0" flags="0x0"/>
      <component glyphName="ring" x="194" y="145" flags="0x0"/>
    </TTGlyph>
    <TTGlyph name="Utilde" xMin="67" yMin="-12" xMax="655" yMax="868">
      <component glyphName="U" x="0" y="0" flags="0x0"/>
      <component glyphName="tilde" x="194" y="145" flags="0x0"/>
    </TTGlyph>
    <TTGlyph name="V" xMin="4" yMin="0" xMax="662" yMax="686">
      <contour>
        <pt x="4" y="686" on="1"/>
        <pt x="161" y="686" on="1"/>
        <pt x="290" y="310" on="1"/>
        <pt x="302" y="274" on="0"/>
        <pt x="330" y="185" on="0"/>
        <pt x="335" y="168" on="1"/>
        <pt x="340" y="168" on="1"/>
        <pt x="345" y="185" on="0"/>
        <pt x="375" y="289" on="0"/>
        <pt x="383" y="310" on="1"/>
        <pt x="511" y="686" on="1"/>
        <pt x="662" y="686" on="1"/>
        <pt x="414" y="0" on="1"/>
        <pt x="252" y="0" on="1"/>
      </contour>
    </TTGlyph>
    <TTGlyph name="W" xMin="2" yMin="0" xMax="942" yMax="686">
      <contour>
        <pt x="490" y="437" on="1"/>
        <pt x="484" y="459" on="0"/>
        <pt x="474" y="524" on="0"/>
        <pt x="473" y="534" on="1"/>
        <pt x="469" y="534" on="1"/>
        <pt x="467" y="523" on="0"/>
        <pt x="456" y="455" on="0"/>
        <pt x="452" y="437" on="1"/>
        <pt x="341" y="0" on="1"/>
        <pt x="184" y="0" on="1"/>
        <pt x="2" y="686" on="1"/>
        <pt x="157" y="686" on="1"/>
        <pt x="256" y="264" on="1"/>
        <pt x="260" y="245" on="0"/>
        <pt x="271" y="179" on="0"/>
        <pt x="272" y="168" on="1"/>
        <pt x="277" y="168" on="1"/>
        <pt x="278" y="179" on="0"/>
        <pt x="289" y="246" on="0"/>
        <pt x="293" y="264" on="1"/>
        <pt x="394" y="686" on="1"/>
        <pt x="569" y="686" on="1"/>
        <pt x="669" y="264" on="1"/>
        <pt x="673" y="247" on="0"/>
        <pt x="683" y="179" on="0"/>
        <pt x="685" y="168" on="1"/>
        <pt x="690" y="168" on="1"/>
        <pt x="691" y="178" on="0"/>
        <pt x="701" y="243" on="0"/>
        <pt x="706" y="264" on="1"/>
        <pt x="808" y="686" on="1"/>
        <pt x="942" y="686" on="1"/>
        <pt x="760" y="0" on="1"/>
        <pt x="603" y="0" on="1"/>
      </contour>
    </TTGlyph>
    <TTGlyph name="Wacute" xMin="2" yMin="0" xMax="942" yMax="868">
      <component glyphName="W" x="0" y="0" flags="0x0"/>
      <component glyphName="acute" x="344" y="145" flags="0x0"/>
    </TTGlyph>
    <TTGlyph name="Wcircumflex" xMin="2" yMin="0" xMax="942" yMax="868">
      <component glyphName="W" x="0" y="0" flags="0x0"/>
      <component glyphName="circumflex" x="305" y="145" flags="0x0"/>
    </TTGlyph>
    <TTGlyph name="Wdieresis" xMin="2" yMin="0" xMax="942" yMax="868">
      <component glyphName="W" x="0" y="0" flags="0x0"/>
      <component glyphName="dieresis" x="306" y="145" flags="0x0"/>
    </TTGlyph>
    <TTGlyph name="Wgrave" xMin="2" yMin="0" xMax="942" yMax="868">
      <component glyphName="W" x="0" y="0" flags="0x0"/>
      <component glyphName="grave" x="236" y="145" flags="0x0"/>
    </TTGlyph>
    <TTGlyph name="X" xMin="0" yMin="0" xMax="666" yMax="686">
      <contour>
        <pt x="329" y="258" on="1"/>
        <pt x="324" y="258" on="1"/>
        <pt x="164" y="0" on="1"/>
        <pt x="0" y="0" on="1"/>
        <pt x="237" y="360" on="1"/>
        <pt x="22" y="686" on="1"/>
        <pt x="198" y="686" on="1"/>
        <pt x="337" y="464" on="1"/>
        <pt x="342" y="464" on="1"/>
        <pt x="480" y="686" on="1"/>
        <pt x="644" y="686" on="1"/>
        <pt x="428" y="362" on="1"/>
        <pt x="666" y="0" on="1"/>
        <pt x="491" y="0" on="1"/>
      </contour>
    </TTGlyph>
    <TTGlyph name="Y" xMin="0" yMin="0" xMax="667" yMax="686">
      <contour>
        <pt x="262" y="277" on="1"/>
        <pt x="0" y="686" on="1"/>
        <pt x="165" y="686" on="1"/>
        <pt x="336" y="406" on="1"/>
        <pt x="341" y="406" on="1"/>
        <pt x="510" y="686" on="1"/>
        <pt x="667" y="686" on="1"/>
        <pt x="407" y="277" on="1"/>
        <pt x="407" y="0" on="1"/>
        <pt x="262" y="0" on="1"/>
      </contour>
    </TTGlyph>
    <TTGlyph name="Y.loclGUA" xMin="67" yMin="-12" xMax="600" yMax="686">
      <contour>
        <pt x="401" y="208" on="0"/>
        <pt x="282" y="208" on="1"/>
        <pt x="175" y="208" on="0"/>
        <pt x="67" y="331" on="0"/>
        <pt x="67" y="445" on="1"/>
        <pt x="67" y="686" on="1"/>
        <pt x="212" y="686" on="1"/>
        <pt x="212" y="442" on="1"/>
        <pt x="212" y="388" on="0"/>
        <pt x="268" y="331" on="0"/>
        <pt x="320" y="331" on="1"/>
        <pt x="386" y="331" on="0"/>
        <pt x="455" y="423" on="0"/>
        <pt x="455" y="512" on="1"/>
        <pt x="455" y="686" on="1"/>
        <pt x="600" y="686" on="1"/>
        <pt x="600" y="254" on="1"/>
        <pt x="600" y="124" on="0"/>
        <pt x="454" y="-12" on="0"/>
        <pt x="322" y="-12" on="1"/>
        <pt x="201" y="-12" on="0"/>
        <pt x="67" y="76" on="0"/>
        <pt x="67" y="161" on="1"/>
        <pt x="67" y="168" on="1"/>
        <pt x="212" y="168" on="1"/>
        <pt x="212" y="140" on="0"/>
        <pt x="269" y="111" on="0"/>
        <pt x="322" y="111" on="1"/>
        <pt x="385" y="111" on="0"/>
        <pt x="455" y="173" on="0"/>
        <pt x="455" y="232" on="1"/>
        <pt x="455" y="288" on="1"/>
        <pt x="451" y="288" on="1"/>
      </contour>
    </TTGlyph>
    <TTGlyph name="Yacute" xMin="0" yMin="0" xMax="667" yMax="868">
      <component glyphName="Y" x="0" y="0" flags="0x0"/>
      <component glyphName="acute" x="206" y="145" flags="0x0"/>
    </TTGlyph>
    <TTGlyph name="Yacute.loclGUA" xMin="67" yMin="-12" xMax="600" yMax="868">
      <component glyphName="Y.loclGUA" x="0" y="0" flags="0x0"/>
      <component glyphName="acute" x="206" y="145" flags="0x0"/>
    </TTGlyph>
    <TTGlyph name="Ycircumflex" xMin="0" yMin="0" xMax="667" yMax="868">
      <component glyphName="Y" x="0" y="0" flags="0x0"/>
      <component glyphName="circumflex" x="167" y="145" flags="0x0"/>
    </TTGlyph>
    <TTGlyph name="Ycircumflex.loclGUA" xMin="67" yMin="-12" xMax="600" yMax="868">
      <component glyphName="Y.loclGUA" x="0" y="0" flags="0x0"/>
      <component glyphName="circumflex" x="167" y="145" flags="0x0"/>
    </TTGlyph>
    <TTGlyph name="Ydieresis" xMin="0" yMin="0" xMax="667" yMax="868">
      <component glyphName="Y" x="0" y="0" flags="0x0"/>
      <component glyphName="dieresis" x="168" y="145" flags="0x0"/>
    </TTGlyph>
    <TTGlyph name="Ydieresis.loclGUA" xMin="67" yMin="-12" xMax="600" yMax="868">
      <component glyphName="Y.loclGUA" x="0" y="0" flags="0x0"/>
      <component glyphName="dieresis" x="168" y="145" flags="0x0"/>
    </TTGlyph>
    <TTGlyph name="Ygrave" xMin="0" yMin="0" xMax="667" yMax="868">
      <component glyphName="Y" x="0" y="0" flags="0x0"/>
      <component glyphName="grave" x="98" y="145" flags="0x0"/>
    </TTGlyph>
    <TTGlyph name="Ygrave.loclGUA" xMin="67" yMin="-12" xMax="600" yMax="868">
      <component glyphName="Y.loclGUA" x="0" y="0" flags="0x0"/>
      <component glyphName="grave" x="98" y="145" flags="0x0"/>
    </TTGlyph>
    <TTGlyph name="Z" xMin="17" yMin="0" xMax="586" yMax="686">
      <contour>
        <pt x="17" y="68" on="1"/>
        <pt x="364" y="563" on="1"/>
        <pt x="43" y="563" on="1"/>
        <pt x="43" y="686" on="1"/>
        <pt x="577" y="686" on="1"/>
        <pt x="577" y="617" on="1"/>
        <pt x="231" y="123" on="1"/>
        <pt x="586" y="123" on="1"/>
        <pt x="586" y="0" on="1"/>
        <pt x="17" y="0" on="1"/>
      </contour>
    </TTGlyph>
    <TTGlyph name="Zacute" xMin="17" yMin="0" xMax="586" yMax="868">
      <component glyphName="Z" x="0" y="0" flags="0x0"/>
      <component glyphName="acute" x="178" y="145" flags="0x0"/>
    </TTGlyph>
    <TTGlyph name="Zacute.loclPLK" xMin="17" yMin="0" xMax="586" yMax="867">
      <component glyphName="Z" x="0" y="0" flags="0x0"/>
      <component glyphName="acute.loclPLK" x="163" y="145" flags="0x0"/>
    </TTGlyph>
    <TTGlyph name="Zcaron" xMin="17" yMin="0" xMax="586" yMax="868">
      <component glyphName="Z" x="0" y="0" flags="0x0"/>
      <component glyphName="caron" x="139" y="145" flags="0x0"/>
    </TTGlyph>
    <TTGlyph name="Zdotaccent" xMin="17" yMin="0" xMax="586" yMax="869">
      <component glyphName="Z" x="0" y="0" flags="0x0"/>
      <component glyphName="dotaccent" x="138" y="145" flags="0x0"/>
    </TTGlyph>
    <TTGlyph name="a" xMin="29" yMin="-12" xMax="547" yMax="538">
      <contour>
        <pt x="515" y="-12" on="0"/>
        <pt x="468" y="-12" on="1"/>
        <pt x="427" y="-12" on="0"/>
        <pt x="372" y="24" on="0"/>
        <pt x="362" y="57" on="1"/>
        <pt x="356" y="57" on="1"/>
        <pt x="327" y="23" on="0"/>
        <pt x="252" y="-12" on="0"/>
        <pt x="192" y="-12" on="1"/>
        <pt x="131" y="-12" on="0"/>
        <pt x="29" y="52" on="0"/>
        <pt x="29" y="136" on="1"/>
        <pt x="29" y="237" on="0"/>
        <pt x="195" y="322" on="0"/>
        <pt x="347" y="322" on="1"/>
        <pt x="347" y="359" on="1"/>
        <pt x="347" y="394" on="0"/>
        <pt x="316" y="432" on="0"/>
        <pt x="273" y="432" on="1"/>
        <pt x="227" y="432" on="0"/>
        <pt x="188" y="404" on="0"/>
        <pt x="188" y="385" on="1"/>
        <pt x="188" y="370" on="1"/>
        <pt x="56" y="370" on="1"/>
        <pt x="55" y="376" on="0"/>
        <pt x="55" y="392" on="1"/>
        <pt x="55" y="458" on="0"/>
        <pt x="172" y="538" on="0"/>
        <pt x="269" y="538" on="1"/>
        <pt x="377" y="538" on="0"/>
        <pt x="484" y="450" on="0"/>
        <pt x="484" y="367" on="1"/>
        <pt x="484" y="135" on="1"/>
        <pt x="484" y="117" on="0"/>
        <pt x="504" y="100" on="0"/>
        <pt x="519" y="100" on="1"/>
        <pt x="547" y="100" on="1"/>
        <pt x="547" y="4" on="1"/>
      </contour>
      <contour>
        <pt x="168" y="231" on="0"/>
        <pt x="168" y="151" on="1"/>
        <pt x="168" y="126" on="0"/>
        <pt x="201" y="96" on="0"/>
        <pt x="235" y="96" on="1"/>
        <pt x="293" y="96" on="0"/>
        <pt x="347" y="161" on="0"/>
        <pt x="347" y="215" on="1"/>
        <pt x="347" y="231" on="1"/>
      </contour>
    </TTGlyph>
    <TTGlyph name="aacute" xMin="29" yMin="-12" xMax="547" yMax="723">
      <component glyphName="a" x="0" y="0" flags="0x0"/>
      <component glyphName="acute" x="150" y="0" flags="0x0"/>
    </TTGlyph>
    <TTGlyph name="abreve" xMin="29" yMin="-12" xMax="547" yMax="723">
      <component glyphName="a" x="0" y="0" flags="0x0"/>
      <component glyphName="breve" x="111" y="0" flags="0x0"/>
    </TTGlyph>
    <TTGlyph name="acircumflex" xMin="29" yMin="-12" xMax="547" yMax="723">
      <component glyphName="a" x="0" y="0" flags="0x0"/>
      <component glyphName="circumflex" x="111" y="0" flags="0x0"/>
    </TTGlyph>
    <TTGlyph name="acute" xMin="75" yMin="591" xMax="288" yMax="723">
      <contour>
        <pt x="154" y="723" on="1"/>
        <pt x="287" y="723" on="1"/>
        <pt x="288" y="720" on="1"/>
        <pt x="180" y="591" on="1"/>
        <pt x="75" y="591" on="1"/>
      </contour>
    </TTGlyph>
    <TTGlyph name="acute.loclPLK" xMin="90" yMin="591" xMax="243" yMax="722">
      <contour>
        <pt x="119" y="722" on="1"/>
        <pt x="243" y="722" on="1"/>
        <pt x="195" y="591" on="1"/>
        <pt x="90" y="591" on="1"/>
      </contour>
    </TTGlyph>
    <TTGlyph name="adieresis" xMin="29" yMin="-12" xMax="547" yMax="723">
      <component glyphName="a" x="0" y="0" flags="0x0"/>
      <component glyphName="dieresis" x="112" y="0" flags="0x0"/>
    </TTGlyph>
    <TTGlyph name="ae" xMin="29" yMin="-12" xMax="854" yMax="538">
      <contour>
        <pt x="510" y="161" on="0"/>
        <pt x="562" y="94" on="0"/>
        <pt x="623" y="94" on="1"/>
        <pt x="666" y="94" on="0"/>
        <pt x="719" y="142" on="0"/>
        <pt x="719" y="186" on="1"/>
        <pt x="854" y="186" on="1"/>
        <pt x="854" y="87" on="0"/>
        <pt x="726" y="-12" on="0"/>
        <pt x="621" y="-12" on="1"/>
        <pt x="492" y="-12" on="0"/>
        <pt x="430" y="56" on="1"/>
        <pt x="395" y="23" on="0"/>
        <pt x="301" y="-12" on="0"/>
        <pt x="232" y="-12" on="1"/>
        <pt x="157" y="-12" on="0"/>
        <pt x="29" y="52" on="0"/>
        <pt x="29" y="136" on="1"/>
        <pt x="29" y="237" on="0"/>
        <pt x="206" y="322" on="0"/>
        <pt x="371" y="322" on="1"/>
        <pt x="371" y="359" on="1"/>
        <pt x="371" y="394" on="0"/>
        <pt x="335" y="432" on="0"/>
        <pt x="283" y="432" on="1"/>
        <pt x="232" y="432" on="0"/>
        <pt x="188" y="404" on="0"/>
        <pt x="188" y="385" on="1"/>
        <pt x="188" y="370" on="1"/>
        <pt x="56" y="370" on="1"/>
        <pt x="55" y="376" on="0"/>
        <pt x="55" y="392" on="1"/>
        <pt x="55" y="458" on="0"/>
        <pt x="178" y="538" on="0"/>
        <pt x="279" y="538" on="1"/>
        <pt x="395" y="538" on="0"/>
        <pt x="454" y="487" on="1"/>
        <pt x="516" y="538" on="0"/>
        <pt x="621" y="538" on="1"/>
        <pt x="738" y="538" on="0"/>
        <pt x="854" y="403" on="0"/>
        <pt x="854" y="263" on="1"/>
        <pt x="854" y="231" on="1"/>
        <pt x="508" y="231" on="1"/>
      </contour>
      <contour>
        <pt x="712" y="431" on="0"/>
        <pt x="621" y="431" on="1"/>
        <pt x="569" y="431" on="0"/>
        <pt x="516" y="377" on="0"/>
        <pt x="510" y="322" on="1"/>
        <pt x="712" y="322" on="1"/>
      </contour>
      <contour>
        <pt x="168" y="231" on="0"/>
        <pt x="168" y="151" on="1"/>
        <pt x="168" y="126" on="0"/>
        <pt x="206" y="96" on="0"/>
        <pt x="245" y="96" on="1"/>
        <pt x="310" y="96" on="0"/>
        <pt x="371" y="161" on="0"/>
        <pt x="371" y="215" on="1"/>
        <pt x="371" y="231" on="1"/>
      </contour>
    </TTGlyph>
    <TTGlyph name="aeacute" xMin="29" yMin="-12" xMax="854" yMax="723">
      <component glyphName="ae" x="0" y="0" flags="0x0"/>
      <component glyphName="acute" x="317" y="0" flags="0x0"/>
    </TTGlyph>
    <TTGlyph name="agrave" xMin="29" yMin="-12" xMax="547" yMax="723">
      <component glyphName="a" x="0" y="0" flags="0x0"/>
      <component glyphName="grave" x="42" y="0" flags="0x0"/>
    </TTGlyph>
    <TTGlyph name="amacron" xMin="29" yMin="-12" xMax="547" yMax="699">
      <component glyphName="a" x="0" y="0" flags="0x0"/>
      <component glyphName="macron" x="111" y="0" flags="0x0"/>
    </TTGlyph>
    <TTGlyph name="ampersand" xMin="43" yMin="-12" xMax="691" yMax="698">
      <contour>
        <pt x="596" y="204" on="1"/>
        <pt x="596" y="104" on="0"/>
        <pt x="454" y="-12" on="0"/>
        <pt x="322" y="-12" on="1"/>
        <pt x="241" y="-12" on="0"/>
        <pt x="114" y="35" on="0"/>
        <pt x="43" y="124" on="0"/>
        <pt x="43" y="184" on="1"/>
        <pt x="43" y="252" on="0"/>
        <pt x="118" y="334" on="0"/>
        <pt x="183" y="352" on="1"/>
        <pt x="183" y="356" on="1"/>
        <pt x="123" y="380" on="0"/>
        <pt x="60" y="450" on="0"/>
        <pt x="60" y="510" on="1"/>
        <pt x="60" y="600" on="0"/>
        <pt x="208" y="698" on="0"/>
        <pt x="334" y="698" on="1"/>
        <pt x="411" y="698" on="0"/>
        <pt x="530" y="651" on="0"/>
        <pt x="596" y="566" on="0"/>
        <pt x="596" y="510" on="1"/>
        <pt x="596" y="482" on="1"/>
        <pt x="459" y="482" on="1"/>
        <pt x="459" y="501" on="1"/>
        <pt x="459" y="587" on="0"/>
        <pt x="332" y="587" on="1"/>
        <pt x="266" y="587" on="0"/>
        <pt x="199" y="537" on="0"/>
        <pt x="199" y="492" on="1"/>
        <pt x="199" y="451" on="0"/>
        <pt x="262" y="404" on="0"/>
        <pt x="307" y="404" on="1"/>
        <pt x="376" y="404" on="1"/>
        <pt x="376" y="292" on="1"/>
        <pt x="310" y="292" on="1"/>
        <pt x="253" y="292" on="0"/>
        <pt x="184" y="250" on="0"/>
        <pt x="184" y="197" on="1"/>
        <pt x="184" y="99" on="0"/>
        <pt x="324" y="99" on="1"/>
        <pt x="392" y="99" on="0"/>
        <pt x="459" y="151" on="0"/>
        <pt x="459" y="201" on="1"/>
        <pt x="459" y="404" on="1"/>
        <pt x="691" y="404" on="1"/>
        <pt x="691" y="292" on="1"/>
        <pt x="596" y="292" on="1"/>
      </contour>
    </TTGlyph>
    <TTGlyph name="aogonek" xMin="29" yMin="-182" xMax="547" yMax="538">
      <contour>
        <pt x="547" y="-169" on="0"/>
        <pt x="498" y="-182" on="0"/>
        <pt x="476" y="-182" on="1"/>
        <pt x="429" y="-182" on="0"/>
        <pt x="370" y="-145" on="0"/>
        <pt x="370" y="-104" on="1"/>
        <pt x="370" y="-50" on="0"/>
        <pt x="431" y="-7" on="1"/>
        <pt x="405" y="-1" on="0"/>
        <pt x="370" y="32" on="0"/>
        <pt x="362" y="57" on="1"/>
        <pt x="356" y="57" on="1"/>
        <pt x="327" y="23" on="0"/>
        <pt x="252" y="-12" on="0"/>
        <pt x="192" y="-12" on="1"/>
        <pt x="131" y="-12" on="0"/>
        <pt x="29" y="52" on="0"/>
        <pt x="29" y="136" on="1"/>
        <pt x="29" y="237" on="0"/>
        <pt x="195" y="322" on="0"/>
        <pt x="347" y="322" on="1"/>
        <pt x="347" y="359" on="1"/>
        <pt x="347" y="394" on="0"/>
        <pt x="316" y="432" on="0"/>
        <pt x="273" y="432" on="1"/>
        <pt x="227" y="432" on="0"/>
        <pt x="188" y="404" on="0"/>
        <pt x="188" y="385" on="1"/>
        <pt x="188" y="370" on="1"/>
        <pt x="56" y="370" on="1"/>
        <pt x="55" y="376" on="0"/>
        <pt x="55" y="392" on="1"/>
        <pt x="55" y="458" on="0"/>
        <pt x="172" y="538" on="0"/>
        <pt x="269" y="538" on="1"/>
        <pt x="377" y="538" on="0"/>
        <pt x="484" y="450" on="0"/>
        <pt x="484" y="367" on="1"/>
        <pt x="484" y="135" on="1"/>
        <pt x="484" y="117" on="0"/>
        <pt x="504" y="100" on="0"/>
        <pt x="519" y="100" on="1"/>
        <pt x="547" y="100" on="1"/>
        <pt x="547" y="4" on="1"/>
        <pt x="475" y="-36" on="0"/>
        <pt x="475" y="-72" on="1"/>
        <pt x="475" y="-113" on="0"/>
        <pt x="523" y="-113" on="1"/>
        <pt x="547" y="-113" on="1"/>
        <pt x="547" y="-168" on="1"/>
      </contour>
      <contour>
        <pt x="168" y="231" on="0"/>
        <pt x="168" y="151" on="1"/>
        <pt x="168" y="126" on="0"/>
        <pt x="201" y="96" on="0"/>
        <pt x="235" y="96" on="1"/>
        <pt x="293" y="96" on="0"/>
        <pt x="347" y="161" on="0"/>
        <pt x="347" y="215" on="1"/>
        <pt x="347" y="231" on="1"/>
      </contour>
    </TTGlyph>
    <TTGlyph name="approxequal" xMin="27" yMin="41" xMax="520" yMax="457">
      <contour>
        <pt x="520" y="334" on="0"/>
        <pt x="483" y="296" on="0"/>
        <pt x="419" y="264" on="0"/>
        <pt x="377" y="264" on="1"/>
        <pt x="352" y="264" on="0"/>
        <pt x="309" y="279" on="0"/>
        <pt x="275" y="294" on="1"/>
        <pt x="244" y="309" on="0"/>
        <pt x="196" y="325" on="0"/>
        <pt x="170" y="325" on="1"/>
        <pt x="133" y="325" on="0"/>
        <pt x="69" y="293" on="0"/>
        <pt x="27" y="254" on="0"/>
        <pt x="27" y="252" on="1"/>
        <pt x="27" y="372" on="1"/>
        <pt x="27" y="375" on="0"/>
        <pt x="64" y="413" on="0"/>
        <pt x="128" y="445" on="0"/>
        <pt x="170" y="445" on="1"/>
        <pt x="195" y="445" on="0"/>
        <pt x="238" y="430" on="0"/>
        <pt x="272" y="415" on="1"/>
        <pt x="303" y="400" on="0"/>
        <pt x="351" y="384" on="0"/>
        <pt x="377" y="384" on="1"/>
        <pt x="414" y="384" on="0"/>
        <pt x="478" y="416" on="0"/>
        <pt x="520" y="455" on="0"/>
        <pt x="520" y="457" on="1"/>
        <pt x="520" y="337" on="1"/>
      </contour>
      <contour>
        <pt x="520" y="123" on="0"/>
        <pt x="483" y="85" on="0"/>
        <pt x="419" y="53" on="0"/>
        <pt x="377" y="53" on="1"/>
        <pt x="352" y="53" on="0"/>
        <pt x="309" y="68" on="0"/>
        <pt x="275" y="83" on="1"/>
        <pt x="244" y="98" on="0"/>
        <pt x="196" y="114" on="0"/>
        <pt x="170" y="114" on="1"/>
        <pt x="133" y="114" on="0"/>
        <pt x="69" y="82" on="0"/>
        <pt x="27" y="43" on="0"/>
        <pt x="27" y="41" on="1"/>
        <pt x="27" y="161" on="1"/>
        <pt x="27" y="164" on="0"/>
        <pt x="64" y="202" on="0"/>
        <pt x="128" y="234" on="0"/>
        <pt x="170" y="234" on="1"/>
        <pt x="195" y="234" on="0"/>
        <pt x="238" y="219" on="0"/>
        <pt x="272" y="204" on="1"/>
        <pt x="303" y="189" on="0"/>
        <pt x="351" y="173" on="0"/>
        <pt x="377" y="173" on="1"/>
        <pt x="414" y="173" on="0"/>
        <pt x="478" y="205" on="0"/>
        <pt x="520" y="244" on="0"/>
        <pt x="520" y="246" on="1"/>
        <pt x="520" y="126" on="1"/>
      </contour>
    </TTGlyph>
    <TTGlyph name="aring" xMin="29" yMin="-12" xMax="547" yMax="758">
      <component glyphName="a" x="0" y="0" flags="0x0"/>
      <component glyphName="ring" x="111" y="0" flags="0x0"/>
    </TTGlyph>
    <TTGlyph name="aringacute" xMin="29" yMin="-12" xMax="547" yMax="909">
      <component glyphName="a" x="0" y="0" flags="0x0"/>
      <component glyphName="ring" x="111" y="0" flags="0x0"/>
      <component glyphName="acute" x="150" y="186" flags="0x0"/>
    </TTGlyph>
    <TTGlyph name="arrowboth" xMin="42" yMin="69" xMax="960" yMax="436">
      <contour>
        <pt x="711" y="69" on="1"/>
        <pt x="764" y="198" on="1"/>
        <pt x="238" y="198" on="1"/>
        <pt x="291" y="69" on="1"/>
        <pt x="239" y="69" on="1"/>
        <pt x="42" y="242" on="1"/>
        <pt x="42" y="263" on="1"/>
        <pt x="239" y="436" on="1"/>
        <pt x="291" y="436" on="1"/>
        <pt x="238" y="307" on="1"/>
        <pt x="764" y="307" on="1"/>
        <pt x="711" y="436" on="1"/>
        <pt x="763" y="436" on="1"/>
        <pt x="960" y="263" on="1"/>
        <pt x="960" y="242" on="1"/>
        <pt x="763" y="69" on="1"/>
      </contour>
    </TTGlyph>
    <TTGlyph name="arrowdown" xMin="68" yMin="-207" xMax="436" yMax="711">
      <contour>
        <pt x="68" y="-10" on="1"/>
        <pt x="68" y="42" on="1"/>
        <pt x="198" y="-11" on="1"/>
        <pt x="198" y="711" on="1"/>
        <pt x="306" y="711" on="1"/>
        <pt x="306" y="-11" on="1"/>
        <pt x="436" y="42" on="1"/>
        <pt x="436" y="-10" on="1"/>
        <pt x="262" y="-207" on="1"/>
        <pt x="241" y="-207" on="1"/>
      </contour>
    </TTGlyph>
    <TTGlyph name="arrowleft" xMin="42" yMin="68" xMax="960" yMax="436">
      <contour>
        <pt x="291" y="68" on="1"/>
        <pt x="239" y="68" on="1"/>
        <pt x="42" y="242" on="1"/>
        <pt x="42" y="263" on="1"/>
        <pt x="239" y="436" on="1"/>
        <pt x="291" y="436" on="1"/>
        <pt x="238" y="306" on="1"/>
        <pt x="960" y="306" on="1"/>
        <pt x="960" y="198" on="1"/>
        <pt x="238" y="198" on="1"/>
      </contour>
    </TTGlyph>
    <TTGlyph name="arrowright" xMin="42" yMin="68" xMax="960" yMax="436">
      <contour>
        <pt x="711" y="68" on="1"/>
        <pt x="764" y="198" on="1"/>
        <pt x="42" y="198" on="1"/>
        <pt x="42" y="306" on="1"/>
        <pt x="764" y="306" on="1"/>
        <pt x="711" y="436" on="1"/>
        <pt x="763" y="436" on="1"/>
        <pt x="960" y="262" on="1"/>
        <pt x="960" y="241" on="1"/>
        <pt x="763" y="68" on="1"/>
      </contour>
    </TTGlyph>
    <TTGlyph name="arrowup" xMin="68" yMin="-207" xMax="435" yMax="711">
      <contour>
        <pt x="197" y="515" on="1"/>
        <pt x="68" y="462" on="1"/>
        <pt x="68" y="514" on="1"/>
        <pt x="241" y="711" on="1"/>
        <pt x="262" y="711" on="1"/>
        <pt x="435" y="514" on="1"/>
        <pt x="435" y="462" on="1"/>
        <pt x="306" y="515" on="1"/>
        <pt x="306" y="-207" on="1"/>
        <pt x="197" y="-207" on="1"/>
      </contour>
    </TTGlyph>
    <TTGlyph name="arrowupdn" xMin="65" yMin="-207" xMax="433" yMax="711">
      <contour>
        <pt x="65" y="-10" on="1"/>
        <pt x="65" y="42" on="1"/>
        <pt x="195" y="-11" on="1"/>
        <pt x="195" y="515" on="1"/>
        <pt x="65" y="462" on="1"/>
        <pt x="65" y="514" on="1"/>
        <pt x="239" y="711" on="1"/>
        <pt x="260" y="711" on="1"/>
        <pt x="433" y="514" on="1"/>
        <pt x="433" y="462" on="1"/>
        <pt x="303" y="515" on="1"/>
        <pt x="303" y="-11" on="1"/>
        <pt x="433" y="42" on="1"/>
        <pt x="433" y="-10" on="1"/>
        <pt x="260" y="-207" on="1"/>
        <pt x="239" y="-207" on="1"/>
      </contour>
    </TTGlyph>
    <TTGlyph name="arrowupdnbse" xMin="65" yMin="-233" xMax="433" yMax="711">
      <contour>
        <pt x="65" y="97" on="1"/>
        <pt x="65" y="149" on="1"/>
        <pt x="195" y="96" on="1"/>
        <pt x="195" y="515" on="1"/>
        <pt x="65" y="462" on="1"/>
        <pt x="65" y="514" on="1"/>
        <pt x="239" y="711" on="1"/>
        <pt x="260" y="711" on="1"/>
        <pt x="433" y="514" on="1"/>
        <pt x="433" y="462" on="1"/>
        <pt x="303" y="515" on="1"/>
        <pt x="303" y="96" on="1"/>
        <pt x="433" y="149" on="1"/>
        <pt x="433" y="97" on="1"/>
        <pt x="260" y="-100" on="1"/>
        <pt x="239" y="-100" on="1"/>
      </contour>
      <contour>
        <pt x="66" y="-147" on="1"/>
        <pt x="433" y="-147" on="1"/>
        <pt x="433" y="-233" on="1"/>
        <pt x="66" y="-233" on="1"/>
      </contour>
    </TTGlyph>
    <TTGlyph name="asciicircum" xMin="25" yMin="294" xMax="445" yMax="686">
      <contour>
        <pt x="234" y="564" on="1"/>
        <pt x="135" y="294" on="1"/>
        <pt x="25" y="294" on="1"/>
        <pt x="181" y="686" on="1"/>
        <pt x="288" y="686" on="1"/>
        <pt x="445" y="294" on="1"/>
        <pt x="335" y="294" on="1"/>
      </contour>
    </TTGlyph>
    <TTGlyph name="asciitilde" xMin="41" yMin="199" xMax="543" yMax="402">
      <contour>
        <pt x="543" y="280" on="0"/>
        <pt x="506" y="243" on="0"/>
        <pt x="441" y="211" on="0"/>
        <pt x="398" y="211" on="1"/>
        <pt x="373" y="211" on="0"/>
        <pt x="328" y="226" on="0"/>
        <pt x="293" y="241" on="1"/>
        <pt x="259" y="256" on="0"/>
        <pt x="212" y="271" on="0"/>
        <pt x="186" y="271" on="1"/>
        <pt x="148" y="271" on="0"/>
        <pt x="84" y="239" on="0"/>
        <pt x="41" y="201" on="0"/>
        <pt x="41" y="199" on="1"/>
        <pt x="41" y="318" on="1"/>
        <pt x="41" y="321" on="0"/>
        <pt x="78" y="358" on="0"/>
        <pt x="143" y="390" on="0"/>
        <pt x="186" y="390" on="1"/>
        <pt x="211" y="390" on="0"/>
        <pt x="256" y="375" on="0"/>
        <pt x="291" y="360" on="1"/>
        <pt x="325" y="345" on="0"/>
        <pt x="372" y="330" on="0"/>
        <pt x="398" y="330" on="1"/>
        <pt x="436" y="330" on="0"/>
        <pt x="500" y="362" on="0"/>
        <pt x="543" y="400" on="0"/>
        <pt x="543" y="402" on="1"/>
        <pt x="543" y="283" on="1"/>
      </contour>
    </TTGlyph>
    <TTGlyph name="asterisk" xMin="31" yMin="362" xMax="354" yMax="686">
      <contour>
        <pt x="234" y="362" on="1"/>
        <pt x="151" y="362" on="1"/>
        <pt x="168" y="481" on="1"/>
        <pt x="72" y="407" on="1"/>
        <pt x="31" y="478" on="1"/>
        <pt x="143" y="524" on="1"/>
        <pt x="31" y="571" on="1"/>
        <pt x="72" y="641" on="1"/>
        <pt x="168" y="567" on="1"/>
        <pt x="151" y="686" on="1"/>
        <pt x="234" y="686" on="1"/>
        <pt x="217" y="568" on="1"/>
        <pt x="313" y="641" on="1"/>
        <pt x="354" y="571" on="1"/>
        <pt x="242" y="524" on="1"/>
        <pt x="354" y="478" on="1"/>
        <pt x="313" y="407" on="1"/>
        <pt x="217" y="481" on="1"/>
      </contour>
    </TTGlyph>
    <TTGlyph name="at" xMin="39" yMin="-153" xMax="949" yMax="698">
      <contour>
        <pt x="627" y="-137" on="0"/>
        <pt x="510" y="-153" on="0"/>
        <pt x="469" y="-153" on="1"/>
        <pt x="264" y="-153" on="0"/>
        <pt x="39" y="51" on="0"/>
        <pt x="39" y="262" on="1"/>
        <pt x="39" y="415" on="0"/>
        <pt x="164" y="610" on="0"/>
        <pt x="374" y="698" on="0"/>
        <pt x="508" y="698" on="1"/>
        <pt x="709" y="698" on="0"/>
        <pt x="949" y="513" on="0"/>
        <pt x="949" y="321" on="1"/>
        <pt x="949" y="215" on="0"/>
        <pt x="876" y="81" on="0"/>
        <pt x="768" y="22" on="0"/>
        <pt x="713" y="22" on="1"/>
        <pt x="670" y="22" on="0"/>
        <pt x="617" y="50" on="0"/>
        <pt x="592" y="81" on="0"/>
        <pt x="592" y="84" on="1"/>
        <pt x="586" y="84" on="1"/>
        <pt x="561" y="53" on="0"/>
        <pt x="492" y="21" on="0"/>
        <pt x="437" y="21" on="1"/>
        <pt x="381" y="21" on="0"/>
        <pt x="289" y="78" on="0"/>
        <pt x="289" y="155" on="1"/>
        <pt x="289" y="247" on="0"/>
        <pt x="440" y="325" on="0"/>
        <pt x="578" y="325" on="1"/>
        <pt x="578" y="358" on="1"/>
        <pt x="578" y="390" on="0"/>
        <pt x="550" y="425" on="0"/>
        <pt x="511" y="425" on="1"/>
        <pt x="470" y="425" on="0"/>
        <pt x="434" y="399" on="0"/>
        <pt x="434" y="382" on="1"/>
        <pt x="434" y="368" on="1"/>
        <pt x="314" y="368" on="1"/>
        <pt x="313" y="374" on="0"/>
        <pt x="313" y="388" on="1"/>
        <pt x="313" y="448" on="0"/>
        <pt x="419" y="521" on="0"/>
        <pt x="507" y="521" on="1"/>
        <pt x="606" y="521" on="0"/>
        <pt x="703" y="441" on="0"/>
        <pt x="703" y="366" on="1"/>
        <pt x="703" y="155" on="1"/>
        <pt x="703" y="132" on="0"/>
        <pt x="723" y="114" on="0"/>
        <pt x="742" y="114" on="1"/>
        <pt x="790" y="114" on="0"/>
        <pt x="860" y="214" on="0"/>
        <pt x="860" y="322" on="1"/>
        <pt x="860" y="474" on="0"/>
        <pt x="671" y="621" on="0"/>
        <pt x="507" y="621" on="1"/>
        <pt x="327" y="621" on="0"/>
        <pt x="127" y="439" on="0"/>
        <pt x="127" y="261" on="1"/>
        <pt x="127" y="92" on="0"/>
        <pt x="295" y="-76" on="0"/>
        <pt x="469" y="-76" on="1"/>
        <pt x="512" y="-76" on="0"/>
        <pt x="632" y="-57" on="0"/>
        <pt x="663" y="-44" on="1"/>
        <pt x="663" y="-126" on="1"/>
      </contour>
      <contour>
        <pt x="415" y="242" on="0"/>
        <pt x="415" y="169" on="1"/>
        <pt x="415" y="147" on="0"/>
        <pt x="446" y="119" on="0"/>
        <pt x="476" y="119" on="1"/>
        <pt x="529" y="119" on="0"/>
        <pt x="578" y="178" on="0"/>
        <pt x="578" y="227" on="1"/>
        <pt x="578" y="242" on="1"/>
      </contour>
    </TTGlyph>
    <TTGlyph name="atilde" xMin="29" yMin="-12" xMax="547" yMax="723">
      <component glyphName="a" x="0" y="0" flags="0x0"/>
      <component glyphName="tilde" x="111" y="0" flags="0x0"/>
    </TTGlyph>
    <TTGlyph name="b" xMin="71" yMin="-12" xMax="574" yMax="723">
      <contour>
        <pt x="71" y="723" on="1"/>
        <pt x="208" y="723" on="1"/>
        <pt x="208" y="465" on="1"/>
        <pt x="214" y="465" on="1"/>
        <pt x="237" y="500" on="0"/>
        <pt x="318" y="538" on="0"/>
        <pt x="371" y="538" on="1"/>
        <pt x="463" y="538" on="0"/>
        <pt x="574" y="400" on="0"/>
        <pt x="574" y="264" on="1"/>
        <pt x="574" y="125" on="0"/>
        <pt x="464" y="-12" on="0"/>
        <pt x="364" y="-12" on="1"/>
        <pt x="313" y="-12" on="0"/>
        <pt x="229" y="29" on="0"/>
        <pt x="204" y="69" on="1"/>
        <pt x="197" y="69" on="1"/>
        <pt x="188" y="0" on="1"/>
        <pt x="71" y="0" on="1"/>
      </contour>
      <contour>
        <pt x="433" y="346" on="0"/>
        <pt x="381" y="419" on="0"/>
        <pt x="320" y="419" on="1"/>
        <pt x="208" y="419" on="0"/>
        <pt x="208" y="270" on="1"/>
        <pt x="208" y="254" on="1"/>
        <pt x="208" y="107" on="0"/>
        <pt x="320" y="107" on="1"/>
        <pt x="381" y="107" on="0"/>
        <pt x="433" y="180" on="0"/>
        <pt x="433" y="254" on="1"/>
        <pt x="433" y="272" on="1"/>
      </contour>
    </TTGlyph>
    <TTGlyph name="backslash" xMin="1" yMin="-49" xMax="277" yMax="735">
      <contour>
        <pt x="1" y="735" on="1"/>
        <pt x="96" y="735" on="1"/>
        <pt x="277" y="-49" on="1"/>
        <pt x="181" y="-49" on="1"/>
      </contour>
    </TTGlyph>
    <TTGlyph name="bar" xMin="90" yMin="-173" xMax="190" yMax="723">
      <contour>
        <pt x="90" y="723" on="1"/>
        <pt x="190" y="723" on="1"/>
        <pt x="190" y="-173" on="1"/>
        <pt x="90" y="-173" on="1"/>
      </contour>
    </TTGlyph>
    <TTGlyph name="braceleft" xMin="29" yMin="-159" xMax="343" yMax="735">
      <contour>
        <pt x="269" y="-159" on="0"/>
        <pt x="177" y="-136" on="0"/>
        <pt x="126" y="-72" on="0"/>
        <pt x="126" y="-11" on="1"/>
        <pt x="126" y="182" on="1"/>
        <pt x="126" y="213" on="0"/>
        <pt x="69" y="242" on="0"/>
        <pt x="29" y="242" on="1"/>
        <pt x="29" y="334" on="1"/>
        <pt x="69" y="334" on="0"/>
        <pt x="126" y="363" on="0"/>
        <pt x="126" y="394" on="1"/>
        <pt x="126" y="587" on="1"/>
        <pt x="126" y="648" on="0"/>
        <pt x="177" y="712" on="0"/>
        <pt x="269" y="735" on="0"/>
        <pt x="343" y="735" on="1"/>
        <pt x="343" y="658" on="1"/>
        <pt x="302" y="658" on="0"/>
        <pt x="244" y="631" on="0"/>
        <pt x="244" y="597" on="1"/>
        <pt x="244" y="557" on="0"/>
        <pt x="240" y="477" on="1"/>
        <pt x="237" y="401" on="1"/>
        <pt x="235" y="348" on="0"/>
        <pt x="176" y="293" on="0"/>
        <pt x="109" y="293" on="1"/>
        <pt x="109" y="283" on="1"/>
        <pt x="175" y="283" on="0"/>
        <pt x="235" y="229" on="0"/>
        <pt x="237" y="175" on="1"/>
        <pt x="240" y="99" on="1"/>
        <pt x="244" y="19" on="0"/>
        <pt x="244" y="-21" on="1"/>
        <pt x="244" y="-82" on="0"/>
        <pt x="343" y="-82" on="1"/>
        <pt x="343" y="-159" on="1"/>
      </contour>
    </TTGlyph>
    <TTGlyph name="braceright" xMin="46" yMin="-159" xMax="360" yMax="735">
      <contour>
        <pt x="145" y="-82" on="0"/>
        <pt x="145" y="-21" on="1"/>
        <pt x="145" y="19" on="0"/>
        <pt x="149" y="99" on="1"/>
        <pt x="152" y="175" on="1"/>
        <pt x="154" y="229" on="0"/>
        <pt x="214" y="283" on="0"/>
        <pt x="280" y="283" on="1"/>
        <pt x="280" y="293" on="1"/>
        <pt x="213" y="293" on="0"/>
        <pt x="154" y="348" on="0"/>
        <pt x="152" y="401" on="1"/>
        <pt x="149" y="477" on="1"/>
        <pt x="145" y="557" on="0"/>
        <pt x="145" y="597" on="1"/>
        <pt x="145" y="631" on="0"/>
        <pt x="87" y="658" on="0"/>
        <pt x="46" y="658" on="1"/>
        <pt x="46" y="735" on="1"/>
        <pt x="120" y="735" on="0"/>
        <pt x="212" y="712" on="0"/>
        <pt x="263" y="648" on="0"/>
        <pt x="263" y="587" on="1"/>
        <pt x="263" y="394" on="1"/>
        <pt x="263" y="363" on="0"/>
        <pt x="320" y="334" on="0"/>
        <pt x="360" y="334" on="1"/>
        <pt x="360" y="242" on="1"/>
        <pt x="320" y="242" on="0"/>
        <pt x="263" y="213" on="0"/>
        <pt x="263" y="182" on="1"/>
        <pt x="263" y="-11" on="1"/>
        <pt x="263" y="-72" on="0"/>
        <pt x="212" y="-136" on="0"/>
        <pt x="120" y="-159" on="0"/>
        <pt x="46" y="-159" on="1"/>
        <pt x="46" y="-82" on="1"/>
      </contour>
    </TTGlyph>
    <TTGlyph name="bracketleft" xMin="71" yMin="-161" xMax="287" yMax="735">
      <contour>
        <pt x="71" y="735" on="1"/>
        <pt x="287" y="735" on="1"/>
        <pt x="287" y="640" on="1"/>
        <pt x="187" y="640" on="1"/>
        <pt x="187" y="-66" on="1"/>
        <pt x="287" y="-66" on="1"/>
        <pt x="287" y="-161" on="1"/>
        <pt x="71" y="-161" on="1"/>
      </contour>
    </TTGlyph>
    <TTGlyph name="bracketright" xMin="46" yMin="-161" xMax="262" yMax="735">
      <contour>
        <pt x="46" y="-66" on="1"/>
        <pt x="146" y="-66" on="1"/>
        <pt x="146" y="640" on="1"/>
        <pt x="46" y="640" on="1"/>
        <pt x="46" y="735" on="1"/>
        <pt x="262" y="735" on="1"/>
        <pt x="262" y="-161" on="1"/>
        <pt x="46" y="-161" on="1"/>
      </contour>
    </TTGlyph>
    <TTGlyph name="breve" xMin="5" yMin="586" xMax="328" yMax="723">
      <contour>
        <pt x="328" y="689" on="0"/>
        <pt x="294" y="626" on="0"/>
        <pt x="221" y="586" on="0"/>
        <pt x="166" y="586" on="1"/>
        <pt x="111" y="586" on="0"/>
        <pt x="39" y="626" on="0"/>
        <pt x="5" y="689" on="0"/>
        <pt x="5" y="723" on="1"/>
        <pt x="95" y="723" on="1"/>
        <pt x="98" y="705" on="0"/>
        <pt x="134" y="675" on="0"/>
        <pt x="166" y="675" on="1"/>
        <pt x="198" y="675" on="0"/>
        <pt x="236" y="705" on="0"/>
        <pt x="238" y="723" on="1"/>
        <pt x="328" y="723" on="1"/>
      </contour>
    </TTGlyph>
    <TTGlyph name="brokenbar" xMin="90" yMin="-173" xMax="190" yMax="723">
      <contour>
        <pt x="90" y="723" on="1"/>
        <pt x="190" y="723" on="1"/>
        <pt x="190" y="357" on="1"/>
        <pt x="90" y="357" on="1"/>
      </contour>
      <contour>
        <pt x="90" y="193" on="1"/>
        <pt x="190" y="193" on="1"/>
        <pt x="190" y="-173" on="1"/>
        <pt x="90" y="-173" on="1"/>
      </contour>
    </TTGlyph>
    <TTGlyph name="bullet" xMin="40" yMin="208" xMax="311" yMax="479">
      <contour>
        <pt x="311" y="306" on="0"/>
        <pt x="274" y="244" on="0"/>
        <pt x="212" y="208" on="0"/>
        <pt x="175" y="208" on="1"/>
        <pt x="138" y="208" on="0"/>
        <pt x="76" y="244" on="0"/>
        <pt x="40" y="306" on="0"/>
        <pt x="40" y="343" on="1"/>
        <pt x="40" y="380" on="0"/>
        <pt x="76" y="442" on="0"/>
        <pt x="138" y="479" on="0"/>
        <pt x="175" y="479" on="1"/>
        <pt x="212" y="479" on="0"/>
        <pt x="274" y="442" on="0"/>
        <pt x="311" y="380" on="0"/>
        <pt x="311" y="343" on="1"/>
      </contour>
    </TTGlyph>
    <TTGlyph name="c" xMin="38" yMin="-12" xMax="519" yMax="538">
      <contour>
        <pt x="381" y="376" on="0"/>
        <pt x="331" y="428" on="0"/>
        <pt x="286" y="428" on="1"/>
        <pt x="230" y="428" on="0"/>
        <pt x="177" y="349" on="0"/>
        <pt x="177" y="271" on="1"/>
        <pt x="177" y="255" on="1"/>
        <pt x="177" y="177" on="0"/>
        <pt x="232" y="98" on="0"/>
        <pt x="293" y="98" on="1"/>
        <pt x="336" y="98" on="0"/>
        <pt x="387" y="151" on="0"/>
        <pt x="387" y="198" on="1"/>
        <pt x="519" y="198" on="1"/>
        <pt x="519" y="95" on="0"/>
        <pt x="395" y="-12" on="0"/>
        <pt x="289" y="-12" on="1"/>
        <pt x="163" y="-12" on="0"/>
        <pt x="38" y="122" on="0"/>
        <pt x="38" y="263" on="1"/>
        <pt x="38" y="403" on="0"/>
        <pt x="163" y="538" on="0"/>
        <pt x="289" y="538" on="1"/>
        <pt x="394" y="538" on="0"/>
        <pt x="519" y="431" on="0"/>
        <pt x="519" y="328" on="1"/>
        <pt x="381" y="328" on="1"/>
      </contour>
    </TTGlyph>
    <TTGlyph name="cacute" xMin="38" yMin="-12" xMax="519" yMax="723">
      <component glyphName="c" x="0" y="0" flags="0x0"/>
      <component glyphName="acute" x="150" y="0" flags="0x0"/>
    </TTGlyph>
    <TTGlyph name="cacute.loclPLK" xMin="38" yMin="-12" xMax="519" yMax="722">
      <component glyphName="c" x="0" y="0" flags="0x0"/>
      <component glyphName="acute.loclPLK" x="135" y="0" flags="0x0"/>
    </TTGlyph>
    <TTGlyph name="caron" xMin="0" yMin="588" xMax="333" yMax="723">
      <contour>
        <pt x="0" y="723" on="1"/>
        <pt x="111" y="723" on="1"/>
        <pt x="167" y="654" on="1"/>
        <pt x="222" y="723" on="1"/>
        <pt x="333" y="723" on="1"/>
        <pt x="228" y="588" on="1"/>
        <pt x="106" y="588" on="1"/>
      </contour>
    </TTGlyph>
    <TTGlyph name="ccaron" xMin="38" yMin="-12" xMax="519" yMax="723">
      <component glyphName="c" x="0" y="0" flags="0x0"/>
      <component glyphName="caron" x="111" y="0" flags="0x0"/>
    </TTGlyph>
    <TTGlyph name="ccedilla" xMin="38" yMin="-182" xMax="519" yMax="538">
      <contour>
        <pt x="268" y="-125" on="1"/>
        <pt x="291" y="-125" on="0"/>
        <pt x="313" y="-115" on="0"/>
        <pt x="313" y="-101" on="1"/>
        <pt x="313" y="-89" on="0"/>
        <pt x="294" y="-77" on="0"/>
        <pt x="271" y="-77" on="1"/>
        <pt x="230" y="-77" on="1"/>
        <pt x="240" y="-9" on="1"/>
        <pt x="138" y="2" on="0"/>
        <pt x="38" y="136" on="0"/>
        <pt x="38" y="263" on="1"/>
        <pt x="38" y="403" on="0"/>
        <pt x="163" y="538" on="0"/>
        <pt x="289" y="538" on="1"/>
        <pt x="394" y="538" on="0"/>
        <pt x="519" y="431" on="0"/>
        <pt x="519" y="328" on="1"/>
        <pt x="381" y="328" on="1"/>
        <pt x="381" y="376" on="0"/>
        <pt x="331" y="428" on="0"/>
        <pt x="286" y="428" on="1"/>
        <pt x="230" y="428" on="0"/>
        <pt x="177" y="349" on="0"/>
        <pt x="177" y="271" on="1"/>
        <pt x="177" y="255" on="1"/>
        <pt x="177" y="177" on="0"/>
        <pt x="232" y="98" on="0"/>
        <pt x="293" y="98" on="1"/>
        <pt x="336" y="98" on="0"/>
        <pt x="387" y="151" on="0"/>
        <pt x="387" y="198" on="1"/>
        <pt x="519" y="198" on="1"/>
        <pt x="519" y="104" on="0"/>
        <pt x="416" y="-1" on="0"/>
        <pt x="325" y="-10" on="1"/>
        <pt x="322" y="-33" on="1"/>
        <pt x="366" y="-35" on="0"/>
        <pt x="420" y="-69" on="0"/>
        <pt x="420" y="-101" on="1"/>
        <pt x="420" y="-146" on="0"/>
        <pt x="337" y="-182" on="0"/>
        <pt x="284" y="-182" on="1"/>
        <pt x="228" y="-182" on="0"/>
        <pt x="180" y="-174" on="1"/>
        <pt x="180" y="-125" on="1"/>
      </contour>
    </TTGlyph>
    <TTGlyph name="ccircumflex" xMin="38" yMin="-12" xMax="519" yMax="723">
      <component glyphName="c" x="0" y="0" flags="0x0"/>
      <component glyphName="circumflex" x="111" y="0" flags="0x0"/>
    </TTGlyph>
    <TTGlyph name="cdotaccent" xMin="38" yMin="-12" xMax="519" yMax="724">
      <component glyphName="c" x="0" y="0" flags="0x0"/>
      <component glyphName="dotaccent" x="110" y="0" flags="0x0"/>
    </TTGlyph>
    <TTGlyph name="cedilla" xMin="45" yMin="-182" xMax="285" yMax="11">
      <contour>
        <pt x="133" y="-125" on="1"/>
        <pt x="156" y="-125" on="0"/>
        <pt x="178" y="-115" on="0"/>
        <pt x="178" y="-101" on="1"/>
        <pt x="178" y="-89" on="0"/>
        <pt x="159" y="-77" on="0"/>
        <pt x="136" y="-77" on="1"/>
        <pt x="95" y="-77" on="1"/>
        <pt x="108" y="11" on="1"/>
        <pt x="193" y="11" on="1"/>
        <pt x="187" y="-33" on="1"/>
        <pt x="231" y="-35" on="0"/>
        <pt x="285" y="-69" on="0"/>
        <pt x="285" y="-101" on="1"/>
        <pt x="285" y="-146" on="0"/>
        <pt x="202" y="-182" on="0"/>
        <pt x="149" y="-182" on="1"/>
        <pt x="93" y="-182" on="0"/>
        <pt x="45" y="-174" on="1"/>
        <pt x="45" y="-125" on="1"/>
      </contour>
    </TTGlyph>
    <TTGlyph name="cent" xMin="38" yMin="-49" xMax="519" yMax="723">
      <contour>
        <pt x="259" y="69" on="1"/>
        <pt x="148" y="77" on="0"/>
        <pt x="38" y="211" on="0"/>
        <pt x="38" y="343" on="1"/>
        <pt x="38" y="475" on="0"/>
        <pt x="148" y="609" on="0"/>
        <pt x="259" y="617" on="1"/>
        <pt x="259" y="723" on="1"/>
        <pt x="310" y="723" on="1"/>
        <pt x="310" y="617" on="1"/>
        <pt x="406" y="612" on="0"/>
        <pt x="519" y="505" on="0"/>
        <pt x="519" y="408" on="1"/>
        <pt x="381" y="408" on="1"/>
        <pt x="381" y="449" on="0"/>
        <pt x="344" y="499" on="0"/>
        <pt x="310" y="506" on="1"/>
        <pt x="310" y="179" on="1"/>
        <pt x="346" y="184" on="0"/>
        <pt x="387" y="235" on="0"/>
        <pt x="387" y="278" on="1"/>
        <pt x="519" y="278" on="1"/>
        <pt x="519" y="180" on="0"/>
        <pt x="407" y="73" on="0"/>
        <pt x="310" y="68" on="1"/>
        <pt x="310" y="-49" on="1"/>
        <pt x="259" y="-49" on="1"/>
      </contour>
      <contour>
        <pt x="177" y="269" on="0"/>
        <pt x="217" y="191" on="0"/>
        <pt x="259" y="181" on="1"/>
        <pt x="259" y="505" on="1"/>
        <pt x="216" y="496" on="0"/>
        <pt x="177" y="419" on="0"/>
        <pt x="177" y="351" on="1"/>
        <pt x="177" y="335" on="1"/>
      </contour>
    </TTGlyph>
    <TTGlyph name="circumflex" xMin="0" yMin="588" xMax="333" yMax="723">
      <contour>
        <pt x="167" y="657" on="1"/>
        <pt x="111" y="588" on="1"/>
        <pt x="0" y="588" on="1"/>
        <pt x="106" y="723" on="1"/>
        <pt x="228" y="723" on="1"/>
        <pt x="333" y="588" on="1"/>
        <pt x="222" y="588" on="1"/>
      </contour>
    </TTGlyph>
    <TTGlyph name="colon" xMin="97" yMin="0" xMax="235" yMax="526">
      <contour>
        <pt x="97" y="526" on="1"/>
        <pt x="235" y="526" on="1"/>
        <pt x="235" y="389" on="1"/>
        <pt x="97" y="389" on="1"/>
      </contour>
      <contour>
        <pt x="97" y="137" on="1"/>
        <pt x="235" y="137" on="1"/>
        <pt x="235" y="0" on="1"/>
        <pt x="97" y="0" on="1"/>
      </contour>
    </TTGlyph>
    <TTGlyph name="comma" xMin="70" yMin="-156" xMax="208" yMax="137">
      <contour>
        <pt x="125" y="0" on="1"/>
        <pt x="70" y="0" on="1"/>
        <pt x="70" y="137" on="1"/>
        <pt x="208" y="137" on="1"/>
        <pt x="208" y="12" on="1"/>
        <pt x="142" y="-156" on="1"/>
        <pt x="70" y="-156" on="1"/>
      </contour>
    </TTGlyph>
    <TTGlyph name="copyright" xMin="13" yMin="-12" xMax="723" yMax="698">
      <contour>
        <pt x="272" y="-12" on="0"/>
        <pt x="109" y="84" on="0"/>
        <pt x="13" y="247" on="0"/>
        <pt x="13" y="343" on="1"/>
        <pt x="13" y="439" on="0"/>
        <pt x="109" y="602" on="0"/>
        <pt x="272" y="698" on="0"/>
        <pt x="368" y="698" on="1"/>
        <pt x="464" y="698" on="0"/>
        <pt x="627" y="602" on="0"/>
        <pt x="723" y="439" on="0"/>
        <pt x="723" y="343" on="1"/>
        <pt x="723" y="247" on="0"/>
        <pt x="627" y="84" on="0"/>
        <pt x="464" y="-12" on="0"/>
        <pt x="368" y="-12" on="1"/>
      </contour>
      <contour>
        <pt x="447" y="50" on="0"/>
        <pt x="581" y="129" on="0"/>
        <pt x="659" y="263" on="0"/>
        <pt x="659" y="343" on="1"/>
        <pt x="659" y="422" on="0"/>
        <pt x="581" y="557" on="0"/>
        <pt x="447" y="636" on="0"/>
        <pt x="368" y="636" on="1"/>
        <pt x="289" y="636" on="0"/>
        <pt x="155" y="557" on="0"/>
        <pt x="77" y="422" on="0"/>
        <pt x="77" y="343" on="1"/>
        <pt x="77" y="263" on="0"/>
        <pt x="155" y="129" on="0"/>
        <pt x="289" y="50" on="0"/>
        <pt x="368" y="50" on="1"/>
      </contour>
      <contour>
        <pt x="528" y="225" on="0"/>
        <pt x="449" y="131" on="0"/>
        <pt x="368" y="131" on="1"/>
        <pt x="276" y="131" on="0"/>
        <pt x="189" y="233" on="0"/>
        <pt x="189" y="341" on="1"/>
        <pt x="189" y="450" on="0"/>
        <pt x="276" y="552" on="0"/>
        <pt x="368" y="552" on="1"/>
        <pt x="451" y="552" on="0"/>
        <pt x="528" y="469" on="0"/>
        <pt x="528" y="386" on="1"/>
        <pt x="450" y="386" on="1"/>
        <pt x="450" y="439" on="0"/>
        <pt x="414" y="486" on="0"/>
        <pt x="368" y="486" on="1"/>
        <pt x="316" y="486" on="0"/>
        <pt x="268" y="419" on="0"/>
        <pt x="268" y="341" on="1"/>
        <pt x="268" y="264" on="0"/>
        <pt x="315" y="197" on="0"/>
        <pt x="368" y="197" on="1"/>
        <pt x="413" y="197" on="0"/>
        <pt x="454" y="247" on="0"/>
        <pt x="454" y="297" on="1"/>
        <pt x="528" y="297" on="1"/>
      </contour>
    </TTGlyph>
    <TTGlyph name="currency" xMin="28" yMin="99" xMax="528" yMax="603">
      <contour>
        <pt x="398" y="130" on="0"/>
        <pt x="320" y="102" on="0"/>
        <pt x="278" y="102" on="1"/>
        <pt x="236" y="102" on="0"/>
        <pt x="158" y="130" on="0"/>
        <pt x="129" y="157" on="1"/>
        <pt x="74" y="99" on="1"/>
        <pt x="29" y="144" on="1"/>
        <pt x="83" y="200" on="1"/>
        <pt x="58" y="231" on="0"/>
        <pt x="33" y="309" on="0"/>
        <pt x="33" y="351" on="1"/>
        <pt x="33" y="394" on="0"/>
        <pt x="58" y="473" on="0"/>
        <pt x="83" y="501" on="1"/>
        <pt x="28" y="555" on="1"/>
        <pt x="76" y="603" on="1"/>
        <pt x="133" y="547" on="1"/>
        <pt x="161" y="571" on="0"/>
        <pt x="238" y="598" on="0"/>
        <pt x="278" y="598" on="1"/>
        <pt x="318" y="598" on="0"/>
        <pt x="395" y="571" on="0"/>
        <pt x="423" y="547" on="1"/>
        <pt x="480" y="603" on="1"/>
        <pt x="528" y="555" on="1"/>
        <pt x="473" y="501" on="1"/>
        <pt x="498" y="473" on="0"/>
        <pt x="523" y="394" on="0"/>
        <pt x="523" y="351" on="1"/>
        <pt x="523" y="309" on="0"/>
        <pt x="498" y="231" on="0"/>
        <pt x="473" y="200" on="1"/>
        <pt x="527" y="144" on="1"/>
        <pt x="482" y="99" on="1"/>
        <pt x="427" y="157" on="1"/>
      </contour>
      <contour>
        <pt x="322" y="181" on="0"/>
        <pt x="397" y="228" on="0"/>
        <pt x="441" y="306" on="0"/>
        <pt x="441" y="351" on="1"/>
        <pt x="441" y="395" on="0"/>
        <pt x="397" y="472" on="0"/>
        <pt x="322" y="519" on="0"/>
        <pt x="278" y="519" on="1"/>
        <pt x="234" y="519" on="0"/>
        <pt x="159" y="472" on="0"/>
        <pt x="115" y="395" on="0"/>
        <pt x="115" y="351" on="1"/>
        <pt x="115" y="306" on="0"/>
        <pt x="159" y="228" on="0"/>
        <pt x="234" y="181" on="0"/>
        <pt x="278" y="181" on="1"/>
      </contour>
    </TTGlyph>
    <TTGlyph name="d" xMin="37" yMin="-12" xMax="540" yMax="723">
      <contour>
        <pt x="414" y="69" on="1"/>
        <pt x="407" y="69" on="1"/>
        <pt x="382" y="29" on="0"/>
        <pt x="298" y="-12" on="0"/>
        <pt x="247" y="-12" on="1"/>
        <pt x="147" y="-12" on="0"/>
        <pt x="37" y="125" on="0"/>
        <pt x="37" y="264" on="1"/>
        <pt x="37" y="400" on="0"/>
        <pt x="148" y="538" on="0"/>
        <pt x="240" y="538" on="1"/>
        <pt x="293" y="538" on="0"/>
        <pt x="374" y="500" on="0"/>
        <pt x="397" y="465" on="1"/>
        <pt x="403" y="465" on="1"/>
        <pt x="403" y="723" on="1"/>
        <pt x="540" y="723" on="1"/>
        <pt x="540" y="0" on="1"/>
        <pt x="423" y="0" on="1"/>
      </contour>
      <contour>
        <pt x="403" y="419" on="0"/>
        <pt x="291" y="419" on="1"/>
        <pt x="230" y="419" on="0"/>
        <pt x="178" y="346" on="0"/>
        <pt x="178" y="272" on="1"/>
        <pt x="178" y="254" on="1"/>
        <pt x="178" y="180" on="0"/>
        <pt x="230" y="107" on="0"/>
        <pt x="291" y="107" on="1"/>
        <pt x="403" y="107" on="0"/>
        <pt x="403" y="254" on="1"/>
        <pt x="403" y="270" on="1"/>
      </contour>
    </TTGlyph>
    <TTGlyph name="dagger" xMin="35" yMin="-173" xMax="520" yMax="686">
      <contour>
        <pt x="240" y="425" on="1"/>
        <pt x="35" y="407" on="1"/>
        <pt x="35" y="520" on="1"/>
        <pt x="240" y="503" on="1"/>
        <pt x="223" y="686" on="1"/>
        <pt x="331" y="686" on="1"/>
        <pt x="314" y="503" on="1"/>
        <pt x="520" y="520" on="1"/>
        <pt x="520" y="407" on="1"/>
        <pt x="314" y="425" on="1"/>
        <pt x="334" y="-173" on="1"/>
        <pt x="220" y="-173" on="1"/>
      </contour>
    </TTGlyph>
    <TTGlyph name="daggerdbl" xMin="36" yMin="-173" xMax="520" yMax="686">
      <contour>
        <pt x="332" y="-173" on="1"/>
        <pt x="224" y="-173" on="1"/>
        <pt x="241" y="13" on="1"/>
        <pt x="36" y="-4" on="1"/>
        <pt x="36" y="109" on="1"/>
        <pt x="241" y="91" on="1"/>
        <pt x="221" y="260" on="1"/>
        <pt x="241" y="425" on="1"/>
        <pt x="36" y="407" on="1"/>
        <pt x="36" y="520" on="1"/>
        <pt x="241" y="503" on="1"/>
        <pt x="224" y="686" on="1"/>
        <pt x="332" y="686" on="1"/>
        <pt x="315" y="503" on="1"/>
        <pt x="520" y="520" on="1"/>
        <pt x="520" y="407" on="1"/>
        <pt x="315" y="425" on="1"/>
        <pt x="335" y="260" on="1"/>
        <pt x="315" y="91" on="1"/>
        <pt x="520" y="109" on="1"/>
        <pt x="520" y="-4" on="1"/>
        <pt x="315" y="13" on="1"/>
      </contour>
    </TTGlyph>
    <TTGlyph name="dcaron" xMin="37" yMin="-12" xMax="731" yMax="723">
      <contour>
        <pt x="414" y="69" on="1"/>
        <pt x="407" y="69" on="1"/>
        <pt x="382" y="29" on="0"/>
        <pt x="298" y="-12" on="0"/>
        <pt x="247" y="-12" on="1"/>
        <pt x="147" y="-12" on="0"/>
        <pt x="37" y="125" on="0"/>
        <pt x="37" y="264" on="1"/>
        <pt x="37" y="400" on="0"/>
        <pt x="148" y="538" on="0"/>
        <pt x="240" y="538" on="1"/>
        <pt x="293" y="538" on="0"/>
        <pt x="374" y="500" on="0"/>
        <pt x="397" y="465" on="1"/>
        <pt x="403" y="465" on="1"/>
        <pt x="403" y="723" on="1"/>
        <pt x="540" y="723" on="1"/>
        <pt x="540" y="0" on="1"/>
        <pt x="423" y="0" on="1"/>
      </contour>
      <contour>
        <pt x="648" y="559" on="1"/>
        <pt x="593" y="559" on="1"/>
        <pt x="593" y="686" on="1"/>
        <pt x="731" y="686" on="1"/>
        <pt x="731" y="571" on="1"/>
        <pt x="665" y="442" on="1"/>
        <pt x="593" y="442" on="1"/>
      </contour>
      <contour>
        <pt x="403" y="419" on="0"/>
        <pt x="291" y="419" on="1"/>
        <pt x="230" y="419" on="0"/>
        <pt x="178" y="346" on="0"/>
        <pt x="178" y="272" on="1"/>
        <pt x="178" y="254" on="1"/>
        <pt x="178" y="180" on="0"/>
        <pt x="230" y="107" on="0"/>
        <pt x="291" y="107" on="1"/>
        <pt x="403" y="107" on="0"/>
        <pt x="403" y="254" on="1"/>
        <pt x="403" y="270" on="1"/>
      </contour>
    </TTGlyph>
    <TTGlyph name="dcroat" xMin="37" yMin="-12" xMax="598" yMax="723">
      <contour>
        <pt x="414" y="69" on="1"/>
        <pt x="407" y="69" on="1"/>
        <pt x="382" y="29" on="0"/>
        <pt x="298" y="-12" on="0"/>
        <pt x="247" y="-12" on="1"/>
        <pt x="147" y="-12" on="0"/>
        <pt x="37" y="125" on="0"/>
        <pt x="37" y="264" on="1"/>
        <pt x="37" y="400" on="0"/>
        <pt x="148" y="538" on="0"/>
        <pt x="240" y="538" on="1"/>
        <pt x="293" y="538" on="0"/>
        <pt x="374" y="500" on="0"/>
        <pt x="397" y="465" on="1"/>
        <pt x="403" y="465" on="1"/>
        <pt x="403" y="587" on="1"/>
        <pt x="249" y="587" on="1"/>
        <pt x="249" y="658" on="1"/>
        <pt x="403" y="658" on="1"/>
        <pt x="403" y="723" on="1"/>
        <pt x="540" y="723" on="1"/>
        <pt x="540" y="658" on="1"/>
        <pt x="598" y="658" on="1"/>
        <pt x="598" y="587" on="1"/>
        <pt x="540" y="587" on="1"/>
        <pt x="540" y="0" on="1"/>
        <pt x="423" y="0" on="1"/>
      </contour>
      <contour>
        <pt x="403" y="419" on="0"/>
        <pt x="291" y="419" on="1"/>
        <pt x="230" y="419" on="0"/>
        <pt x="178" y="346" on="0"/>
        <pt x="178" y="272" on="1"/>
        <pt x="178" y="254" on="1"/>
        <pt x="178" y="180" on="0"/>
        <pt x="230" y="107" on="0"/>
        <pt x="291" y="107" on="1"/>
        <pt x="403" y="107" on="0"/>
        <pt x="403" y="254" on="1"/>
        <pt x="403" y="270" on="1"/>
      </contour>
    </TTGlyph>
    <TTGlyph name="degree" xMin="44" yMin="386" xMax="356" yMax="698">
      <contour>
        <pt x="157" y="386" on="0"/>
        <pt x="86" y="428" on="0"/>
        <pt x="44" y="499" on="0"/>
        <pt x="44" y="542" on="1"/>
        <pt x="44" y="585" on="0"/>
        <pt x="86" y="656" on="0"/>
        <pt x="157" y="698" on="0"/>
        <pt x="200" y="698" on="1"/>
        <pt x="243" y="698" on="0"/>
        <pt x="314" y="656" on="0"/>
        <pt x="356" y="585" on="0"/>
        <pt x="356" y="542" on="1"/>
        <pt x="356" y="499" on="0"/>
        <pt x="314" y="428" on="0"/>
        <pt x="243" y="386" on="0"/>
        <pt x="200" y="386" on="1"/>
      </contour>
      <contour>
        <pt x="231" y="468" on="0"/>
        <pt x="273" y="511" on="0"/>
        <pt x="273" y="542" on="1"/>
        <pt x="273" y="573" on="0"/>
        <pt x="231" y="615" on="0"/>
        <pt x="200" y="615" on="1"/>
        <pt x="169" y="615" on="0"/>
        <pt x="126" y="573" on="0"/>
        <pt x="126" y="542" on="1"/>
        <pt x="126" y="511" on="0"/>
        <pt x="169" y="468" on="0"/>
        <pt x="200" y="468" on="1"/>
      </contour>
    </TTGlyph>
    <TTGlyph name="dieresis" xMin="2" yMin="605" xMax="331" yMax="723">
      <contour>
        <pt x="2" y="723" on="1"/>
        <pt x="120" y="723" on="1"/>
        <pt x="120" y="605" on="1"/>
        <pt x="2" y="605" on="1"/>
      </contour>
      <contour>
        <pt x="212" y="723" on="1"/>
        <pt x="331" y="723" on="1"/>
        <pt x="331" y="605" on="1"/>
        <pt x="212" y="605" on="1"/>
      </contour>
    </TTGlyph>
    <TTGlyph name="divide" xMin="39" yMin="1" xMax="511" yMax="512">
      <contour>
        <pt x="214" y="512" on="1"/>
        <pt x="334" y="512" on="1"/>
        <pt x="334" y="402" on="1"/>
        <pt x="214" y="402" on="1"/>
      </contour>
      <contour>
        <pt x="39" y="308" on="1"/>
        <pt x="511" y="308" on="1"/>
        <pt x="511" y="203" on="1"/>
        <pt x="39" y="203" on="1"/>
      </contour>
      <contour>
        <pt x="214" y="111" on="1"/>
        <pt x="334" y="111" on="1"/>
        <pt x="334" y="1" on="1"/>
        <pt x="214" y="1" on="1"/>
      </contour>
    </TTGlyph>
    <TTGlyph name="dollar" xMin="40" yMin="-49" xMax="516" yMax="723">
      <contour>
        <pt x="253" y="68" on="1"/>
        <pt x="152" y="73" on="0"/>
        <pt x="40" y="163" on="0"/>
        <pt x="40" y="235" on="1"/>
        <pt x="41" y="247" on="1"/>
        <pt x="169" y="247" on="1"/>
        <pt x="169" y="240" on="1"/>
        <pt x="170" y="209" on="0"/>
        <pt x="217" y="175" on="0"/>
        <pt x="253" y="171" on="1"/>
        <pt x="253" y="296" on="1"/>
        <pt x="190" y="311" on="0"/>
        <pt x="108" y="343" on="0"/>
        <pt x="50" y="406" on="0"/>
        <pt x="50" y="458" on="1"/>
        <pt x="50" y="530" on="0"/>
        <pt x="162" y="612" on="0"/>
        <pt x="253" y="617" on="1"/>
        <pt x="253" y="723" on="1"/>
        <pt x="304" y="723" on="1"/>
        <pt x="304" y="617" on="1"/>
        <pt x="390" y="612" on="0"/>
        <pt x="500" y="536" on="0"/>
        <pt x="500" y="475" on="1"/>
        <pt x="499" y="452" on="1"/>
        <pt x="371" y="452" on="1"/>
        <pt x="371" y="478" on="0"/>
        <pt x="336" y="509" on="0"/>
        <pt x="304" y="514" on="1"/>
        <pt x="304" y="404" on="1"/>
        <pt x="370" y="389" on="0"/>
        <pt x="455" y="358" on="0"/>
        <pt x="516" y="292" on="0"/>
        <pt x="516" y="238" on="1"/>
        <pt x="516" y="78" on="0"/>
        <pt x="304" y="68" on="1"/>
        <pt x="304" y="-49" on="1"/>
        <pt x="253" y="-49" on="1"/>
      </contour>
      <contour>
        <pt x="220" y="512" on="0"/>
        <pt x="182" y="488" on="0"/>
        <pt x="182" y="470" on="1"/>
        <pt x="182" y="450" on="0"/>
        <pt x="218" y="426" on="0"/>
        <pt x="253" y="417" on="1"/>
        <pt x="253" y="515" on="1"/>
      </contour>
      <contour>
        <pt x="339" y="174" on="0"/>
        <pt x="384" y="197" on="0"/>
        <pt x="384" y="221" on="1"/>
        <pt x="384" y="243" on="0"/>
        <pt x="343" y="271" on="0"/>
        <pt x="304" y="282" on="1"/>
        <pt x="304" y="171" on="1"/>
      </contour>
    </TTGlyph>
    <TTGlyph name="dotaccent" xMin="100" yMin="594" xMax="235" yMax="724">
      <contour>
        <pt x="100" y="724" on="1"/>
        <pt x="235" y="724" on="1"/>
        <pt x="235" y="594" on="1"/>
        <pt x="100" y="594" on="1"/>
      </contour>
    </TTGlyph>
    <TTGlyph name="dotbelowcomb" xMin="-233" yMin="-173" xMax="-98" yMax="-43">
      <contour>
        <pt x="-233" y="-43" on="1"/>
        <pt x="-98" y="-43" on="1"/>
        <pt x="-98" y="-173" on="1"/>
        <pt x="-233" y="-173" on="1"/>
      </contour>
    </TTGlyph>
    <TTGlyph name="dotlessi" xMin="71" yMin="0" xMax="208" yMax="526">
      <contour>
        <pt x="71" y="526" on="1"/>
        <pt x="208" y="526" on="1"/>
        <pt x="208" y="0" on="1"/>
        <pt x="71" y="0" on="1"/>
      </contour>
    </TTGlyph>
    <TTGlyph name="e" xMin="36" yMin="-12" xMax="521" yMax="538">
      <contour>
        <pt x="177" y="161" on="0"/>
        <pt x="229" y="94" on="0"/>
        <pt x="290" y="94" on="1"/>
        <pt x="333" y="94" on="0"/>
        <pt x="386" y="142" on="0"/>
        <pt x="386" y="186" on="1"/>
        <pt x="521" y="186" on="1"/>
        <pt x="521" y="87" on="0"/>
        <pt x="393" y="-12" on="0"/>
        <pt x="288" y="-12" on="1"/>
        <pt x="161" y="-12" on="0"/>
        <pt x="36" y="122" on="0"/>
        <pt x="36" y="263" on="1"/>
        <pt x="36" y="404" on="0"/>
        <pt x="161" y="538" on="0"/>
        <pt x="288" y="538" on="1"/>
        <pt x="405" y="538" on="0"/>
        <pt x="521" y="403" on="0"/>
        <pt x="521" y="263" on="1"/>
        <pt x="521" y="231" on="1"/>
        <pt x="175" y="231" on="1"/>
      </contour>
      <contour>
        <pt x="379" y="431" on="0"/>
        <pt x="288" y="431" on="1"/>
        <pt x="236" y="431" on="0"/>
        <pt x="183" y="377" on="0"/>
        <pt x="177" y="322" on="1"/>
        <pt x="379" y="322" on="1"/>
      </contour>
    </TTGlyph>
    <TTGlyph name="eacute" xMin="36" yMin="-12" xMax="521" yMax="723">
      <component glyphName="e" x="0" y="0" flags="0x0"/>
      <component glyphName="acute" x="150" y="0" flags="0x0"/>
    </TTGlyph>
    <TTGlyph name="ebreve" xMin="36" yMin="-12" xMax="521" yMax="723">
      <component glyphName="e" x="0" y="0" flags="0x0"/>
      <component glyphName="breve" x="111" y="0" flags="0x0"/>
    </TTGlyph>
    <TTGlyph name="ecaron" xMin="36" yMin="-12" xMax="521" yMax="723">
      <component glyphName="e" x="0" y="0" flags="0x0"/>
      <component glyphName="caron" x="111" y="0" flags="0x0"/>
    </TTGlyph>
    <TTGlyph name="ecircumflex" xMin="36" yMin="-12" xMax="521" yMax="723">
      <component glyphName="e" x="0" y="0" flags="0x0"/>
      <component glyphName="circumflex" x="111" y="0" flags="0x0"/>
    </TTGlyph>
    <TTGlyph name="edieresis" xMin="36" yMin="-12" xMax="521" yMax="723">
      <component glyphName="e" x="0" y="0" flags="0x0"/>
      <component glyphName="dieresis" x="112" y="0" flags="0x0"/>
    </TTGlyph>
    <TTGlyph name="edotaccent" xMin="36" yMin="-12" xMax="521" yMax="724">
      <component glyphName="e" x="0" y="0" flags="0x0"/>
      <component glyphName="dotaccent" x="110" y="0" flags="0x0"/>
    </TTGlyph>
    <TTGlyph name="egrave" xMin="36" yMin="-12" xMax="521" yMax="723">
      <component glyphName="e" x="0" y="0" flags="0x0"/>
      <component glyphName="grave" x="42" y="0" flags="0x0"/>
    </TTGlyph>
    <TTGlyph name="eight" xMin="33" yMin="-12" xMax="523" yMax="698">
      <contour>
        <pt x="523" y="308" on="0"/>
        <pt x="523" y="188" on="1"/>
        <pt x="523" y="99" on="0"/>
        <pt x="402" y="-12" on="0"/>
        <pt x="278" y="-12" on="1"/>
        <pt x="154" y="-12" on="0"/>
        <pt x="33" y="99" on="0"/>
        <pt x="33" y="188" on="1"/>
        <pt x="33" y="245" on="0"/>
        <pt x="87" y="329" on="0"/>
        <pt x="142" y="352" on="1"/>
        <pt x="97" y="376" on="0"/>
        <pt x="50" y="457" on="0"/>
        <pt x="50" y="507" on="1"/>
        <pt x="50" y="561" on="0"/>
        <pt x="102" y="647" on="0"/>
        <pt x="205" y="698" on="0"/>
        <pt x="278" y="698" on="1"/>
        <pt x="351" y="698" on="0"/>
        <pt x="454" y="647" on="0"/>
        <pt x="506" y="561" on="0"/>
        <pt x="506" y="507" on="1"/>
        <pt x="506" y="457" on="0"/>
        <pt x="459" y="376" on="0"/>
        <pt x="413" y="352" on="1"/>
      </contour>
      <contour>
        <pt x="321" y="405" on="0"/>
        <pt x="368" y="452" on="0"/>
        <pt x="368" y="496" on="1"/>
        <pt x="368" y="540" on="0"/>
        <pt x="321" y="588" on="0"/>
        <pt x="278" y="588" on="1"/>
        <pt x="235" y="588" on="0"/>
        <pt x="189" y="540" on="0"/>
        <pt x="189" y="496" on="1"/>
        <pt x="189" y="452" on="0"/>
        <pt x="235" y="405" on="0"/>
        <pt x="278" y="405" on="1"/>
      </contour>
      <contour>
        <pt x="382" y="244" on="0"/>
        <pt x="328" y="296" on="0"/>
        <pt x="278" y="296" on="1"/>
        <pt x="228" y="296" on="0"/>
        <pt x="174" y="244" on="0"/>
        <pt x="174" y="197" on="1"/>
        <pt x="174" y="150" on="0"/>
        <pt x="228" y="98" on="0"/>
        <pt x="278" y="98" on="1"/>
        <pt x="328" y="98" on="0"/>
        <pt x="382" y="150" on="0"/>
        <pt x="382" y="197" on="1"/>
      </contour>
    </TTGlyph>
    <TTGlyph name="ellipsis" xMin="98" yMin="0" xMax="902" yMax="137">
      <contour>
        <pt x="98" y="137" on="1"/>
        <pt x="236" y="137" on="1"/>
        <pt x="236" y="0" on="1"/>
        <pt x="98" y="0" on="1"/>
      </contour>
      <contour>
        <pt x="431" y="137" on="1"/>
        <pt x="569" y="137" on="1"/>
        <pt x="569" y="0" on="1"/>
        <pt x="431" y="0" on="1"/>
      </contour>
      <contour>
        <pt x="764" y="137" on="1"/>
        <pt x="902" y="137" on="1"/>
        <pt x="902" y="0" on="1"/>
        <pt x="764" y="0" on="1"/>
      </contour>
    </TTGlyph>
    <TTGlyph name="emacron" xMin="36" yMin="-12" xMax="521" yMax="699">
      <component glyphName="e" x="0" y="0" flags="0x0"/>
      <component glyphName="macron" x="111" y="0" flags="0x0"/>
    </TTGlyph>
    <TTGlyph name="emdash" xMin="0" yMin="221" xMax="1000" yMax="319">
      <contour>
        <pt x="0" y="319" on="1"/>
        <pt x="1000" y="319" on="1"/>
        <pt x="1000" y="221" on="1"/>
        <pt x="0" y="221" on="1"/>
      </contour>
    </TTGlyph>
    <TTGlyph name="endash" xMin="0" yMin="221" xMax="556" yMax="319">
      <contour>
        <pt x="0" y="319" on="1"/>
        <pt x="556" y="319" on="1"/>
        <pt x="556" y="221" on="1"/>
        <pt x="0" y="221" on="1"/>
      </contour>
    </TTGlyph>
    <TTGlyph name="eng" xMin="71" yMin="-182" xMax="543" yMax="538">
      <contour>
        <pt x="363" y="-70" on="1"/>
        <pt x="406" y="-70" on="0"/>
        <pt x="406" y="-27" on="1"/>
        <pt x="406" y="324" on="1"/>
        <pt x="406" y="373" on="0"/>
        <pt x="360" y="417" on="0"/>
        <pt x="315" y="417" on="1"/>
        <pt x="269" y="417" on="0"/>
        <pt x="208" y="352" on="0"/>
        <pt x="208" y="304" on="1"/>
        <pt x="208" y="0" on="1"/>
        <pt x="71" y="0" on="1"/>
        <pt x="71" y="526" on="1"/>
        <pt x="188" y="526" on="1"/>
        <pt x="198" y="457" on="1"/>
        <pt x="205" y="457" on="1"/>
        <pt x="269" y="538" on="0"/>
        <pt x="369" y="538" on="1"/>
        <pt x="450" y="538" on="0"/>
        <pt x="543" y="450" on="0"/>
        <pt x="543" y="353" on="1"/>
        <pt x="543" y="-41" on="1"/>
        <pt x="543" y="-102" on="0"/>
        <pt x="479" y="-182" on="0"/>
        <pt x="405" y="-182" on="1"/>
        <pt x="383" y="-182" on="0"/>
        <pt x="328" y="-172" on="0"/>
        <pt x="311" y="-166" on="1"/>
        <pt x="311" y="-70" on="1"/>
      </contour>
    </TTGlyph>
    <TTGlyph name="eogonek" xMin="36" yMin="-182" xMax="521" yMax="538">
      <contour>
        <pt x="481" y="-182" on="0"/>
        <pt x="449" y="-182" on="1"/>
        <pt x="401" y="-182" on="0"/>
        <pt x="338" y="-135" on="0"/>
        <pt x="338" y="-83" on="1"/>
        <pt x="338" y="-39" on="0"/>
        <pt x="355" y="-2" on="1"/>
        <pt x="322" y="-12" on="0"/>
        <pt x="283" y="-12" on="1"/>
        <pt x="158" y="-12" on="0"/>
        <pt x="36" y="122" on="0"/>
        <pt x="36" y="263" on="1"/>
        <pt x="36" y="404" on="0"/>
        <pt x="161" y="538" on="0"/>
        <pt x="288" y="538" on="1"/>
        <pt x="405" y="538" on="0"/>
        <pt x="521" y="403" on="0"/>
        <pt x="521" y="263" on="1"/>
        <pt x="521" y="231" on="1"/>
        <pt x="175" y="231" on="1"/>
        <pt x="177" y="161" on="0"/>
        <pt x="229" y="94" on="0"/>
        <pt x="290" y="94" on="1"/>
        <pt x="333" y="94" on="0"/>
        <pt x="386" y="142" on="0"/>
        <pt x="386" y="186" on="1"/>
        <pt x="521" y="186" on="1"/>
        <pt x="521" y="100" on="0"/>
        <pt x="468" y="47" on="1"/>
        <pt x="457" y="35" on="0"/>
        <pt x="443" y="-7" on="0"/>
        <pt x="443" y="-35" on="1"/>
        <pt x="443" y="-113" on="0"/>
        <pt x="504" y="-113" on="1"/>
        <pt x="520" y="-113" on="1"/>
        <pt x="520" y="-168" on="1"/>
      </contour>
      <contour>
        <pt x="379" y="431" on="0"/>
        <pt x="288" y="431" on="1"/>
        <pt x="236" y="431" on="0"/>
        <pt x="183" y="377" on="0"/>
        <pt x="177" y="322" on="1"/>
        <pt x="379" y="322" on="1"/>
      </contour>
    </TTGlyph>
    <TTGlyph name="equal" xMin="56" yMin="96" xMax="528" yMax="412">
      <contour>
        <pt x="56" y="412" on="1"/>
        <pt x="528" y="412" on="1"/>
        <pt x="528" y="308" on="1"/>
        <pt x="56" y="308" on="1"/>
      </contour>
      <contour>
        <pt x="56" y="199" on="1"/>
        <pt x="528" y="199" on="1"/>
        <pt x="528" y="96" on="1"/>
        <pt x="56" y="96" on="1"/>
      </contour>
    </TTGlyph>
    <TTGlyph name="equivalence" xMin="56" yMin="17" xMax="529" yMax="546">
      <contour>
        <pt x="56" y="546" on="1"/>
        <pt x="529" y="546" on="1"/>
        <pt x="529" y="442" on="1"/>
        <pt x="56" y="442" on="1"/>
      </contour>
      <contour>
        <pt x="56" y="333" on="1"/>
        <pt x="529" y="333" on="1"/>
        <pt x="529" y="229" on="1"/>
        <pt x="56" y="229" on="1"/>
      </contour>
      <contour>
        <pt x="56" y="120" on="1"/>
        <pt x="529" y="120" on="1"/>
        <pt x="529" y="17" on="1"/>
        <pt x="56" y="17" on="1"/>
      </contour>
    </TTGlyph>
    <TTGlyph name="estimated" xMin="45" yMin="-12" xMax="559" yMax="538">
      <contour>
        <pt x="494" y="57" on="0"/>
        <pt x="379" y="-12" on="0"/>
        <pt x="302" y="-12" on="1"/>
        <pt x="224" y="-12" on="0"/>
        <pt x="107" y="59" on="0"/>
        <pt x="45" y="183" on="0"/>
        <pt x="45" y="263" on="1"/>
        <pt x="45" y="343" on="0"/>
        <pt x="107" y="467" on="0"/>
        <pt x="224" y="538" on="0"/>
        <pt x="302" y="538" on="1"/>
        <pt x="380" y="538" on="0"/>
        <pt x="496" y="465" on="0"/>
        <pt x="559" y="335" on="0"/>
        <pt x="559" y="253" on="1"/>
        <pt x="559" y="248" on="1"/>
        <pt x="153" y="248" on="1"/>
        <pt x="153" y="83" on="1"/>
        <pt x="211" y="30" on="0"/>
        <pt x="302" y="30" on="1"/>
        <pt x="367" y="30" on="0"/>
        <pt x="466" y="88" on="0"/>
        <pt x="492" y="139" on="1"/>
        <pt x="526" y="118" on="1"/>
      </contour>
      <contour>
        <pt x="391" y="496" on="0"/>
        <pt x="302" y="496" on="1"/>
        <pt x="212" y="496" on="0"/>
        <pt x="153" y="442" on="1"/>
        <pt x="153" y="290" on="1"/>
        <pt x="451" y="290" on="1"/>
        <pt x="451" y="441" on="1"/>
      </contour>
    </TTGlyph>
    <TTGlyph name="eth" xMin="38" yMin="-12" xMax="573" yMax="723">
      <contour>
        <pt x="514" y="532" on="0"/>
        <pt x="573" y="361" on="0"/>
        <pt x="573" y="259" on="1"/>
        <pt x="573" y="120" on="0"/>
        <pt x="440" y="-12" on="0"/>
        <pt x="305" y="-12" on="1"/>
        <pt x="171" y="-12" on="0"/>
        <pt x="38" y="121" on="0"/>
        <pt x="38" y="259" on="1"/>
        <pt x="38" y="385" on="0"/>
        <pt x="150" y="528" on="0"/>
        <pt x="255" y="528" on="1"/>
        <pt x="302" y="528" on="0"/>
        <pt x="345" y="509" on="1"/>
        <pt x="350" y="513" on="1"/>
        <pt x="323" y="554" on="0"/>
        <pt x="289" y="595" on="1"/>
        <pt x="123" y="583" on="1"/>
        <pt x="123" y="656" on="1"/>
        <pt x="224" y="663" on="1"/>
        <pt x="204" y="682" on="0"/>
        <pt x="160" y="718" on="1"/>
        <pt x="164" y="723" on="1"/>
        <pt x="325" y="723" on="1"/>
        <pt x="360" y="697" on="0"/>
        <pt x="385" y="674" on="1"/>
        <pt x="544" y="686" on="1"/>
        <pt x="544" y="613" on="1"/>
        <pt x="452" y="606" on="1"/>
      </contour>
      <contour>
        <pt x="432" y="342" on="0"/>
        <pt x="372" y="416" on="0"/>
        <pt x="305" y="416" on="1"/>
        <pt x="238" y="416" on="0"/>
        <pt x="179" y="342" on="0"/>
        <pt x="179" y="267" on="1"/>
        <pt x="179" y="251" on="1"/>
        <pt x="179" y="175" on="0"/>
        <pt x="238" y="100" on="0"/>
        <pt x="305" y="100" on="1"/>
        <pt x="372" y="100" on="0"/>
        <pt x="432" y="175" on="0"/>
        <pt x="432" y="251" on="1"/>
        <pt x="432" y="267" on="1"/>
      </contour>
    </TTGlyph>
    <TTGlyph name="exclam" xMin="90" yMin="0" xMax="243" yMax="686">
      <contour>
        <pt x="90" y="686" on="1"/>
        <pt x="243" y="686" on="1"/>
        <pt x="207" y="197" on="1"/>
        <pt x="125" y="197" on="1"/>
      </contour>
      <contour>
        <pt x="98" y="137" on="1"/>
        <pt x="236" y="137" on="1"/>
        <pt x="236" y="0" on="1"/>
        <pt x="98" y="0" on="1"/>
      </contour>
    </TTGlyph>
    <TTGlyph name="exclamdbl" xMin="90" yMin="0" xMax="514" yMax="686">
      <contour>
        <pt x="90" y="686" on="1"/>
        <pt x="243" y="686" on="1"/>
        <pt x="207" y="197" on="1"/>
        <pt x="125" y="197" on="1"/>
      </contour>
      <contour>
        <pt x="361" y="686" on="1"/>
        <pt x="514" y="686" on="1"/>
        <pt x="478" y="197" on="1"/>
        <pt x="396" y="197" on="1"/>
      </contour>
      <contour>
        <pt x="98" y="137" on="1"/>
        <pt x="236" y="137" on="1"/>
        <pt x="236" y="0" on="1"/>
        <pt x="98" y="0" on="1"/>
      </contour>
      <contour>
        <pt x="369" y="137" on="1"/>
        <pt x="507" y="137" on="1"/>
        <pt x="507" y="0" on="1"/>
        <pt x="369" y="0" on="1"/>
      </contour>
    </TTGlyph>
    <TTGlyph name="exclamdown" xMin="90" yMin="-161" xMax="243" yMax="525">
      <contour>
        <pt x="98" y="525" on="1"/>
        <pt x="236" y="525" on="1"/>
        <pt x="236" y="388" on="1"/>
        <pt x="98" y="388" on="1"/>
      </contour>
      <contour>
        <pt x="125" y="328" on="1"/>
        <pt x="207" y="328" on="1"/>
        <pt x="243" y="-161" on="1"/>
        <pt x="90" y="-161" on="1"/>
      </contour>
    </TTGlyph>
    <TTGlyph name="f" xMin="9" yMin="0" xMax="314" yMax="731">
      <contour>
        <pt x="84" y="414" on="1"/>
        <pt x="9" y="414" on="1"/>
        <pt x="9" y="526" on="1"/>
        <pt x="84" y="526" on="1"/>
        <pt x="84" y="586" on="1"/>
        <pt x="84" y="648" on="0"/>
        <pt x="150" y="731" on="0"/>
        <pt x="226" y="731" on="1"/>
        <pt x="247" y="731" on="0"/>
        <pt x="297" y="721" on="0"/>
        <pt x="314" y="715" on="1"/>
        <pt x="314" y="619" on="1"/>
        <pt x="264" y="619" on="1"/>
        <pt x="221" y="619" on="0"/>
        <pt x="221" y="576" on="1"/>
        <pt x="221" y="526" on="1"/>
        <pt x="314" y="526" on="1"/>
        <pt x="314" y="414" on="1"/>
        <pt x="221" y="414" on="1"/>
        <pt x="221" y="0" on="1"/>
        <pt x="84" y="0" on="1"/>
      </contour>
    </TTGlyph>
    <TTGlyph name="f_f" xMin="9" yMin="0" xMax="647" yMax="731">
      <contour>
        <pt x="554" y="619" on="0"/>
        <pt x="554" y="576" on="1"/>
        <pt x="554" y="526" on="1"/>
        <pt x="647" y="526" on="1"/>
        <pt x="647" y="414" on="1"/>
        <pt x="554" y="414" on="1"/>
        <pt x="554" y="0" on="1"/>
        <pt x="417" y="0" on="1"/>
        <pt x="417" y="414" on="1"/>
        <pt x="221" y="414" on="1"/>
        <pt x="221" y="0" on="1"/>
        <pt x="84" y="0" on="1"/>
        <pt x="84" y="414" on="1"/>
        <pt x="9" y="414" on="1"/>
        <pt x="9" y="526" on="1"/>
        <pt x="84" y="526" on="1"/>
        <pt x="84" y="586" on="1"/>
        <pt x="84" y="648" on="0"/>
        <pt x="150" y="731" on="0"/>
        <pt x="226" y="731" on="1"/>
        <pt x="247" y="731" on="0"/>
        <pt x="297" y="721" on="0"/>
        <pt x="314" y="715" on="1"/>
        <pt x="314" y="619" on="1"/>
        <pt x="264" y="619" on="1"/>
        <pt x="221" y="619" on="0"/>
        <pt x="221" y="576" on="1"/>
        <pt x="221" y="526" on="1"/>
        <pt x="417" y="526" on="1"/>
        <pt x="417" y="586" on="1"/>
        <pt x="417" y="648" on="0"/>
        <pt x="483" y="731" on="0"/>
        <pt x="559" y="731" on="1"/>
        <pt x="580" y="731" on="0"/>
        <pt x="630" y="721" on="0"/>
        <pt x="647" y="715" on="1"/>
        <pt x="647" y="619" on="1"/>
        <pt x="597" y="619" on="1"/>
      </contour>
    </TTGlyph>
    <TTGlyph name="fi" xMin="9" yMin="0" xMax="541" yMax="731">
      <component glyphName="f" x="0" y="0" flags="0x0"/>
      <component glyphName="i" x="333" y="0" flags="0x0"/>
    </TTGlyph>
    <TTGlyph name="five" xMin="36" yMin="-12" xMax="517" yMax="686">
      <contour>
        <pt x="198" y="412" on="1"/>
        <pt x="222" y="427" on="0"/>
        <pt x="278" y="446" on="0"/>
        <pt x="318" y="446" on="1"/>
        <pt x="406" y="446" on="0"/>
        <pt x="517" y="333" on="0"/>
        <pt x="517" y="224" on="1"/>
        <pt x="517" y="112" on="0"/>
        <pt x="389" y="-12" on="0"/>
        <pt x="277" y="-12" on="1"/>
        <pt x="167" y="-12" on="0"/>
        <pt x="36" y="109" on="0"/>
        <pt x="36" y="213" on="1"/>
        <pt x="177" y="213" on="1"/>
        <pt x="177" y="160" on="0"/>
        <pt x="230" y="100" on="0"/>
        <pt x="277" y="100" on="1"/>
        <pt x="323" y="100" on="0"/>
        <pt x="376" y="163" on="0"/>
        <pt x="376" y="224" on="1"/>
        <pt x="376" y="280" on="0"/>
        <pt x="322" y="338" on="0"/>
        <pt x="278" y="338" on="1"/>
        <pt x="248" y="338" on="0"/>
        <pt x="206" y="312" on="0"/>
        <pt x="189" y="290" on="1"/>
        <pt x="59" y="306" on="1"/>
        <pt x="86" y="686" on="1"/>
        <pt x="483" y="686" on="1"/>
        <pt x="483" y="564" on="1"/>
        <pt x="207" y="564" on="1"/>
      </contour>
    </TTGlyph>
    <TTGlyph name="fiveeighths" xMin="41" yMin="-12" xMax="793" yMax="698">
      <contour>
        <pt x="646" y="698" on="1"/>
        <pt x="734" y="698" on="1"/>
        <pt x="188" y="-12" on="1"/>
        <pt x="100" y="-12" on="1"/>
      </contour>
      <contour>
        <pt x="133" y="550" on="1"/>
        <pt x="157" y="564" on="0"/>
        <pt x="190" y="564" on="1"/>
        <pt x="238" y="564" on="0"/>
        <pt x="298" y="503" on="0"/>
        <pt x="298" y="445" on="1"/>
        <pt x="298" y="385" on="0"/>
        <pt x="230" y="319" on="0"/>
        <pt x="170" y="319" on="1"/>
        <pt x="111" y="319" on="0"/>
        <pt x="41" y="381" on="0"/>
        <pt x="41" y="435" on="1"/>
        <pt x="125" y="435" on="1"/>
        <pt x="125" y="412" on="0"/>
        <pt x="148" y="387" on="0"/>
        <pt x="170" y="387" on="1"/>
        <pt x="190" y="387" on="0"/>
        <pt x="214" y="417" on="0"/>
        <pt x="214" y="445" on="1"/>
        <pt x="214" y="471" on="0"/>
        <pt x="190" y="497" on="0"/>
        <pt x="170" y="497" on="1"/>
        <pt x="146" y="497" on="0"/>
        <pt x="128" y="472" on="1"/>
        <pt x="52" y="482" on="1"/>
        <pt x="66" y="686" on="1"/>
        <pt x="280" y="686" on="1"/>
        <pt x="280" y="612" on="1"/>
        <pt x="137" y="612" on="1"/>
      </contour>
      <contour>
        <pt x="793" y="155" on="0"/>
        <pt x="793" y="96" on="1"/>
        <pt x="793" y="48" on="0"/>
        <pt x="728" y="-12" on="0"/>
        <pt x="662" y="-12" on="1"/>
        <pt x="596" y="-12" on="0"/>
        <pt x="531" y="48" on="0"/>
        <pt x="531" y="96" on="1"/>
        <pt x="531" y="156" on="0"/>
        <pt x="585" y="181" on="1"/>
        <pt x="563" y="195" on="0"/>
        <pt x="540" y="235" on="0"/>
        <pt x="540" y="259" on="1"/>
        <pt x="540" y="303" on="0"/>
        <pt x="604" y="362" on="0"/>
        <pt x="662" y="362" on="1"/>
        <pt x="720" y="362" on="0"/>
        <pt x="784" y="303" on="0"/>
        <pt x="784" y="259" on="1"/>
        <pt x="784" y="209" on="0"/>
        <pt x="738" y="181" on="1"/>
      </contour>
      <contour>
        <pt x="681" y="212" on="0"/>
        <pt x="702" y="234" on="0"/>
        <pt x="702" y="253" on="1"/>
        <pt x="702" y="273" on="0"/>
        <pt x="681" y="294" on="0"/>
        <pt x="662" y="294" on="1"/>
        <pt x="623" y="294" on="0"/>
        <pt x="623" y="253" on="1"/>
        <pt x="623" y="212" on="0"/>
        <pt x="662" y="212" on="1"/>
      </contour>
      <contour>
        <pt x="709" y="122" on="0"/>
        <pt x="684" y="145" on="0"/>
        <pt x="662" y="145" on="1"/>
        <pt x="639" y="145" on="0"/>
        <pt x="615" y="122" on="0"/>
        <pt x="615" y="101" on="1"/>
        <pt x="615" y="80" on="0"/>
        <pt x="639" y="56" on="0"/>
        <pt x="662" y="56" on="1"/>
        <pt x="684" y="56" on="0"/>
        <pt x="709" y="80" on="0"/>
        <pt x="709" y="101" on="1"/>
      </contour>
    </TTGlyph>
    <TTGlyph name="fl" xMin="9" yMin="0" xMax="541" yMax="731">
      <component glyphName="f" x="0" y="0" flags="0x0"/>
      <component glyphName="l" x="333" y="0" flags="0x0"/>
    </TTGlyph>
    <TTGlyph name="florin" xMin="23" yMin="-183" xMax="532" yMax="731">
      <contour>
        <pt x="93" y="-71" on="1"/>
        <pt x="135" y="-71" on="0"/>
        <pt x="144" y="-28" on="1"/>
        <pt x="231" y="378" on="1"/>
        <pt x="156" y="378" on="1"/>
        <pt x="179" y="490" on="1"/>
        <pt x="254" y="490" on="1"/>
        <pt x="275" y="586" on="1"/>
        <pt x="288" y="648" on="0"/>
        <pt x="372" y="731" on="0"/>
        <pt x="448" y="731" on="1"/>
        <pt x="469" y="731" on="0"/>
        <pt x="517" y="721" on="0"/>
        <pt x="532" y="715" on="1"/>
        <pt x="512" y="619" on="1"/>
        <pt x="462" y="619" on="1"/>
        <pt x="419" y="619" on="0"/>
        <pt x="410" y="576" on="1"/>
        <pt x="391" y="490" on="1"/>
        <pt x="484" y="490" on="1"/>
        <pt x="461" y="378" on="1"/>
        <pt x="368" y="378" on="1"/>
        <pt x="279" y="-38" on="1"/>
        <pt x="266" y="-100" on="0"/>
        <pt x="182" y="-183" on="0"/>
        <pt x="107" y="-183" on="1"/>
        <pt x="86" y="-183" on="0"/>
        <pt x="38" y="-173" on="0"/>
        <pt x="23" y="-167" on="1"/>
        <pt x="43" y="-71" on="1"/>
      </contour>
    </TTGlyph>
    <TTGlyph name="four" xMin="20" yMin="0" xMax="533" yMax="698">
      <contour>
        <pt x="314" y="146" on="1"/>
        <pt x="20" y="146" on="1"/>
        <pt x="20" y="258" on="1"/>
        <pt x="143" y="455" on="0"/>
        <pt x="204" y="698" on="1"/>
        <pt x="345" y="698" on="1"/>
        <pt x="326" y="617" on="0"/>
        <pt x="247" y="436" on="0"/>
        <pt x="164" y="290" on="0"/>
        <pt x="139" y="258" on="1"/>
        <pt x="314" y="258" on="1"/>
        <pt x="314" y="409" on="1"/>
        <pt x="335" y="447" on="0"/>
        <pt x="376" y="553" on="0"/>
        <pt x="388" y="596" on="1"/>
        <pt x="451" y="596" on="1"/>
        <pt x="451" y="258" on="1"/>
        <pt x="533" y="258" on="1"/>
        <pt x="533" y="146" on="1"/>
        <pt x="451" y="146" on="1"/>
        <pt x="451" y="0" on="1"/>
        <pt x="314" y="0" on="1"/>
      </contour>
    </TTGlyph>
    <TTGlyph name="fraction" xMin="-234" yMin="-12" xMax="400" yMax="698">
      <contour>
        <pt x="312" y="698" on="1"/>
        <pt x="400" y="698" on="1"/>
        <pt x="-146" y="-12" on="1"/>
        <pt x="-234" y="-12" on="1"/>
      </contour>
    </TTGlyph>
    <TTGlyph name="franc" xMin="60" yMin="0" xMax="554" yMax="686">
      <contour>
        <pt x="292" y="256" on="1"/>
        <pt x="205" y="256" on="1"/>
        <pt x="205" y="0" on="1"/>
        <pt x="60" y="0" on="1"/>
        <pt x="60" y="686" on="1"/>
        <pt x="417" y="686" on="1"/>
        <pt x="417" y="563" on="1"/>
        <pt x="205" y="563" on="1"/>
        <pt x="205" y="379" on="1"/>
        <pt x="292" y="379" on="1"/>
        <pt x="292" y="464" on="1"/>
        <pt x="409" y="464" on="1"/>
        <pt x="420" y="379" on="1"/>
        <pt x="427" y="379" on="1"/>
        <pt x="454" y="476" on="0"/>
        <pt x="514" y="476" on="1"/>
        <pt x="529" y="476" on="0"/>
        <pt x="551" y="469" on="0"/>
        <pt x="554" y="467" on="1"/>
        <pt x="554" y="339" on="1"/>
        <pt x="516" y="339" on="1"/>
        <pt x="470" y="339" on="0"/>
        <pt x="429" y="266" on="0"/>
        <pt x="429" y="192" on="1"/>
        <pt x="429" y="0" on="1"/>
        <pt x="292" y="0" on="1"/>
      </contour>
    </TTGlyph>
    <TTGlyph name="g" xMin="24" yMin="-182" xMax="600" yMax="614">
      <contour>
        <pt x="100" y="-182" on="0"/>
        <pt x="24" y="-114" on="0"/>
        <pt x="24" y="-61" on="1"/>
        <pt x="24" y="9" on="0"/>
        <pt x="105" y="46" on="1"/>
        <pt x="54" y="72" on="0"/>
        <pt x="54" y="125" on="1"/>
        <pt x="54" y="158" on="0"/>
        <pt x="106" y="207" on="0"/>
        <pt x="147" y="217" on="1"/>
        <pt x="70" y="264" on="0"/>
        <pt x="70" y="359" on="1"/>
        <pt x="70" y="442" on="0"/>
        <pt x="191" y="538" on="0"/>
        <pt x="303" y="538" on="1"/>
        <pt x="364" y="538" on="0"/>
        <pt x="409" y="523" on="1"/>
        <pt x="439" y="542" on="0"/>
        <pt x="466" y="595" on="0"/>
        <pt x="466" y="614" on="1"/>
        <pt x="600" y="614" on="1"/>
        <pt x="600" y="559" on="0"/>
        <pt x="541" y="492" on="0"/>
        <pt x="487" y="480" on="1"/>
        <pt x="537" y="433" on="0"/>
        <pt x="537" y="359" on="1"/>
        <pt x="537" y="276" on="0"/>
        <pt x="420" y="180" on="0"/>
        <pt x="311" y="180" on="1"/>
        <pt x="231" y="180" on="1"/>
        <pt x="213" y="180" on="0"/>
        <pt x="192" y="164" on="0"/>
        <pt x="192" y="150" on="1"/>
        <pt x="192" y="138" on="0"/>
        <pt x="210" y="121" on="0"/>
        <pt x="225" y="121" on="1"/>
        <pt x="464" y="121" on="1"/>
        <pt x="522" y="121" on="0"/>
        <pt x="600" y="43" on="0"/>
        <pt x="600" y="-20" on="1"/>
        <pt x="600" y="-68" on="0"/>
        <pt x="548" y="-142" on="0"/>
        <pt x="458" y="-182" on="0"/>
        <pt x="404" y="-182" on="1"/>
        <pt x="155" y="-182" on="1"/>
      </contour>
      <contour>
        <pt x="401" y="400" on="0"/>
        <pt x="351" y="445" on="0"/>
        <pt x="303" y="445" on="1"/>
        <pt x="255" y="445" on="0"/>
        <pt x="206" y="400" on="0"/>
        <pt x="206" y="359" on="1"/>
        <pt x="206" y="318" on="0"/>
        <pt x="255" y="273" on="0"/>
        <pt x="303" y="273" on="1"/>
        <pt x="351" y="273" on="0"/>
        <pt x="401" y="318" on="0"/>
        <pt x="401" y="359" on="1"/>
      </contour>
      <contour>
        <pt x="193" y="6" on="0"/>
        <pt x="162" y="-20" on="0"/>
        <pt x="162" y="-40" on="1"/>
        <pt x="162" y="-61" on="0"/>
        <pt x="192" y="-87" on="0"/>
        <pt x="215" y="-87" on="1"/>
        <pt x="402" y="-87" on="1"/>
        <pt x="428" y="-87" on="0"/>
        <pt x="462" y="-61" on="0"/>
        <pt x="462" y="-40" on="1"/>
        <pt x="462" y="-18" on="0"/>
        <pt x="431" y="6" on="0"/>
        <pt x="408" y="6" on="1"/>
        <pt x="215" y="6" on="1"/>
      </contour>
    </TTGlyph>
    <TTGlyph name="g_tilde.loclGUA" xMin="24" yMin="-182" xMax="600" yMax="723">
      <component glyphName="g" x="0" y="0" flags="0x0"/>
      <component glyphName="tilde" x="139" y="0" flags="0x0"/>
    </TTGlyph>
    <TTGlyph name="gbreve" xMin="24" yMin="-182" xMax="600" yMax="723">
      <component glyphName="g" x="0" y="0" flags="0x0"/>
      <component glyphName="breve" x="139" y="0" flags="0x0"/>
    </TTGlyph>
    <TTGlyph name="gcaron" xMin="24" yMin="-182" xMax="600" yMax="723">
      <component glyphName="g" x="0" y="0" flags="0x0"/>
      <component glyphName="caron" x="139" y="0" flags="0x0"/>
    </TTGlyph>
    <TTGlyph name="gcircumflex" xMin="24" yMin="-182" xMax="600" yMax="723">
      <contour>
        <pt x="308" y="657" on="1"/>
        <pt x="256" y="588" on="1"/>
        <pt x="145" y="588" on="1"/>
        <pt x="247" y="723" on="1"/>
        <pt x="369" y="723" on="1"/>
        <pt x="470" y="588" on="1"/>
        <pt x="359" y="588" on="1"/>
      </contour>
      <contour>
        <pt x="100" y="-182" on="0"/>
        <pt x="24" y="-114" on="0"/>
        <pt x="24" y="-61" on="1"/>
        <pt x="24" y="9" on="0"/>
        <pt x="105" y="46" on="1"/>
        <pt x="54" y="72" on="0"/>
        <pt x="54" y="125" on="1"/>
        <pt x="54" y="158" on="0"/>
        <pt x="106" y="207" on="0"/>
        <pt x="147" y="217" on="1"/>
        <pt x="70" y="264" on="0"/>
        <pt x="70" y="359" on="1"/>
        <pt x="70" y="442" on="0"/>
        <pt x="191" y="538" on="0"/>
        <pt x="303" y="538" on="1"/>
        <pt x="364" y="538" on="0"/>
        <pt x="409" y="523" on="1"/>
        <pt x="440" y="530" on="0"/>
        <pt x="479" y="564" on="0"/>
        <pt x="496" y="602" on="0"/>
        <pt x="496" y="614" on="1"/>
        <pt x="600" y="614" on="1"/>
        <pt x="600" y="559" on="0"/>
        <pt x="541" y="492" on="0"/>
        <pt x="487" y="480" on="1"/>
        <pt x="537" y="433" on="0"/>
        <pt x="537" y="359" on="1"/>
        <pt x="537" y="276" on="0"/>
        <pt x="420" y="180" on="0"/>
        <pt x="311" y="180" on="1"/>
        <pt x="231" y="180" on="1"/>
        <pt x="213" y="180" on="0"/>
        <pt x="192" y="164" on="0"/>
        <pt x="192" y="150" on="1"/>
        <pt x="192" y="138" on="0"/>
        <pt x="210" y="121" on="0"/>
        <pt x="225" y="121" on="1"/>
        <pt x="464" y="121" on="1"/>
        <pt x="522" y="121" on="0"/>
        <pt x="600" y="43" on="0"/>
        <pt x="600" y="-20" on="1"/>
        <pt x="600" y="-68" on="0"/>
        <pt x="548" y="-142" on="0"/>
        <pt x="458" y="-182" on="0"/>
        <pt x="404" y="-182" on="1"/>
        <pt x="155" y="-182" on="1"/>
      </contour>
      <contour>
        <pt x="401" y="400" on="0"/>
        <pt x="351" y="445" on="0"/>
        <pt x="303" y="445" on="1"/>
        <pt x="255" y="445" on="0"/>
        <pt x="206" y="400" on="0"/>
        <pt x="206" y="359" on="1"/>
        <pt x="206" y="318" on="0"/>
        <pt x="255" y="273" on="0"/>
        <pt x="303" y="273" on="1"/>
        <pt x="351" y="273" on="0"/>
        <pt x="401" y="318" on="0"/>
        <pt x="401" y="359" on="1"/>
      </contour>
      <contour>
        <pt x="193" y="6" on="0"/>
        <pt x="162" y="-20" on="0"/>
        <pt x="162" y="-40" on="1"/>
        <pt x="162" y="-61" on="0"/>
        <pt x="192" y="-87" on="0"/>
        <pt x="215" y="-87" on="1"/>
        <pt x="402" y="-87" on="1"/>
        <pt x="428" y="-87" on="0"/>
        <pt x="462" y="-61" on="0"/>
        <pt x="462" y="-40" on="1"/>
        <pt x="462" y="-18" on="0"/>
        <pt x="431" y="6" on="0"/>
        <pt x="408" y="6" on="1"/>
        <pt x="215" y="6" on="1"/>
      </contour>
    </TTGlyph>
    <TTGlyph name="gcommaaccent" xMin="24" yMin="-182" xMax="600" yMax="780">
      <contour>
        <pt x="237" y="671" on="1"/>
        <pt x="303" y="780" on="1"/>
        <pt x="375" y="780" on="1"/>
        <pt x="320" y="683" on="1"/>
        <pt x="375" y="683" on="1"/>
        <pt x="375" y="585" on="1"/>
        <pt x="237" y="585" on="1"/>
      </contour>
      <contour>
        <pt x="100" y="-182" on="0"/>
        <pt x="24" y="-114" on="0"/>
        <pt x="24" y="-61" on="1"/>
        <pt x="24" y="9" on="0"/>
        <pt x="105" y="46" on="1"/>
        <pt x="54" y="72" on="0"/>
        <pt x="54" y="125" on="1"/>
        <pt x="54" y="158" on="0"/>
        <pt x="106" y="207" on="0"/>
        <pt x="147" y="217" on="1"/>
        <pt x="70" y="264" on="0"/>
        <pt x="70" y="359" on="1"/>
        <pt x="70" y="442" on="0"/>
        <pt x="191" y="538" on="0"/>
        <pt x="303" y="538" on="1"/>
        <pt x="364" y="538" on="0"/>
        <pt x="409" y="523" on="1"/>
        <pt x="439" y="542" on="0"/>
        <pt x="466" y="595" on="0"/>
        <pt x="466" y="614" on="1"/>
        <pt x="600" y="614" on="1"/>
        <pt x="600" y="559" on="0"/>
        <pt x="541" y="492" on="0"/>
        <pt x="487" y="480" on="1"/>
        <pt x="537" y="433" on="0"/>
        <pt x="537" y="359" on="1"/>
        <pt x="537" y="276" on="0"/>
        <pt x="420" y="180" on="0"/>
        <pt x="311" y="180" on="1"/>
        <pt x="231" y="180" on="1"/>
        <pt x="213" y="180" on="0"/>
        <pt x="192" y="164" on="0"/>
        <pt x="192" y="150" on="1"/>
        <pt x="192" y="138" on="0"/>
        <pt x="210" y="121" on="0"/>
        <pt x="225" y="121" on="1"/>
        <pt x="464" y="121" on="1"/>
        <pt x="522" y="121" on="0"/>
        <pt x="600" y="43" on="0"/>
        <pt x="600" y="-20" on="1"/>
        <pt x="600" y="-68" on="0"/>
        <pt x="548" y="-142" on="0"/>
        <pt x="458" y="-182" on="0"/>
        <pt x="404" y="-182" on="1"/>
        <pt x="155" y="-182" on="1"/>
      </contour>
      <contour>
        <pt x="401" y="400" on="0"/>
        <pt x="351" y="445" on="0"/>
        <pt x="303" y="445" on="1"/>
        <pt x="255" y="445" on="0"/>
        <pt x="206" y="400" on="0"/>
        <pt x="206" y="359" on="1"/>
        <pt x="206" y="318" on="0"/>
        <pt x="255" y="273" on="0"/>
        <pt x="303" y="273" on="1"/>
        <pt x="351" y="273" on="0"/>
        <pt x="401" y="318" on="0"/>
        <pt x="401" y="359" on="1"/>
      </contour>
      <contour>
        <pt x="193" y="6" on="0"/>
        <pt x="162" y="-20" on="0"/>
        <pt x="162" y="-40" on="1"/>
        <pt x="162" y="-61" on="0"/>
        <pt x="192" y="-87" on="0"/>
        <pt x="215" y="-87" on="1"/>
        <pt x="402" y="-87" on="1"/>
        <pt x="428" y="-87" on="0"/>
        <pt x="462" y="-61" on="0"/>
        <pt x="462" y="-40" on="1"/>
        <pt x="462" y="-18" on="0"/>
        <pt x="431" y="6" on="0"/>
        <pt x="408" y="6" on="1"/>
        <pt x="215" y="6" on="1"/>
      </contour>
    </TTGlyph>
    <TTGlyph name="gdotaccent" xMin="24" yMin="-182" xMax="600" yMax="724">
      <component glyphName="g" x="0" y="0" flags="0x0"/>
      <component glyphName="dotaccent" x="138" y="0" flags="0x0"/>
    </TTGlyph>
    <TTGlyph name="germandbls" xMin="65" yMin="0" xMax="571" yMax="735">
      <contour>
        <pt x="261" y="111" on="1"/>
        <pt x="335" y="111" on="1"/>
        <pt x="381" y="111" on="0"/>
        <pt x="433" y="171" on="0"/>
        <pt x="433" y="216" on="1"/>
        <pt x="433" y="261" on="0"/>
        <pt x="381" y="321" on="0"/>
        <pt x="335" y="321" on="1"/>
        <pt x="261" y="321" on="1"/>
        <pt x="261" y="442" on="1"/>
        <pt x="332" y="442" on="1"/>
        <pt x="367" y="442" on="0"/>
        <pt x="408" y="493" on="0"/>
        <pt x="408" y="532" on="1"/>
        <pt x="408" y="574" on="0"/>
        <pt x="359" y="625" on="0"/>
        <pt x="311" y="625" on="1"/>
        <pt x="261" y="625" on="0"/>
        <pt x="202" y="569" on="0"/>
        <pt x="202" y="519" on="1"/>
        <pt x="202" y="0" on="1"/>
        <pt x="65" y="0" on="1"/>
        <pt x="65" y="511" on="1"/>
        <pt x="65" y="625" on="0"/>
        <pt x="203" y="735" on="0"/>
        <pt x="315" y="735" on="1"/>
        <pt x="425" y="735" on="0"/>
        <pt x="547" y="637" on="0"/>
        <pt x="547" y="556" on="1"/>
        <pt x="547" y="498" on="0"/>
        <pt x="485" y="414" on="0"/>
        <pt x="436" y="396" on="1"/>
        <pt x="436" y="392" on="1"/>
        <pt x="502" y="375" on="0"/>
        <pt x="571" y="275" on="0"/>
        <pt x="571" y="207" on="1"/>
        <pt x="571" y="148" on="0"/>
        <pt x="517" y="54" on="0"/>
        <pt x="416" y="0" on="0"/>
        <pt x="348" y="0" on="1"/>
        <pt x="261" y="0" on="1"/>
      </contour>
    </TTGlyph>
    <TTGlyph name="grave" xMin="75" yMin="591" xMax="288" yMax="723">
      <contour>
        <pt x="75" y="720" on="1"/>
        <pt x="76" y="723" on="1"/>
        <pt x="209" y="723" on="1"/>
        <pt x="288" y="591" on="1"/>
        <pt x="183" y="591" on="1"/>
      </contour>
    </TTGlyph>
    <TTGlyph name="greater" xMin="56" yMin="2" xMax="530" yMax="522">
      <contour>
        <pt x="56" y="120" on="1"/>
        <pt x="429" y="262" on="1"/>
        <pt x="56" y="404" on="1"/>
        <pt x="56" y="522" on="1"/>
        <pt x="530" y="325" on="1"/>
        <pt x="530" y="198" on="1"/>
        <pt x="56" y="2" on="1"/>
      </contour>
    </TTGlyph>
    <TTGlyph name="greaterequal" xMin="38" yMin="0" xMax="512" yMax="643">
      <contour>
        <pt x="38" y="241" on="1"/>
        <pt x="411" y="383" on="1"/>
        <pt x="38" y="525" on="1"/>
        <pt x="38" y="643" on="1"/>
        <pt x="512" y="446" on="1"/>
        <pt x="512" y="319" on="1"/>
        <pt x="38" y="123" on="1"/>
      </contour>
      <contour>
        <pt x="38" y="104" on="1"/>
        <pt x="511" y="104" on="1"/>
        <pt x="511" y="0" on="1"/>
        <pt x="38" y="0" on="1"/>
      </contour>
    </TTGlyph>
    <TTGlyph name="guillemotleft" xMin="59" yMin="126" xMax="517" yMax="526">
      <contour>
        <pt x="59" y="326" on="1"/>
        <pt x="195" y="526" on="1"/>
        <pt x="294" y="526" on="1"/>
        <pt x="186" y="326" on="1"/>
        <pt x="294" y="126" on="1"/>
        <pt x="195" y="126" on="1"/>
      </contour>
      <contour>
        <pt x="282" y="326" on="1"/>
        <pt x="418" y="526" on="1"/>
        <pt x="517" y="526" on="1"/>
        <pt x="409" y="326" on="1"/>
        <pt x="517" y="126" on="1"/>
        <pt x="418" y="126" on="1"/>
      </contour>
    </TTGlyph>
    <TTGlyph name="guillemotright" xMin="39" yMin="126" xMax="497" yMax="526">
      <contour>
        <pt x="147" y="326" on="1"/>
        <pt x="39" y="526" on="1"/>
        <pt x="138" y="526" on="1"/>
        <pt x="274" y="326" on="1"/>
        <pt x="138" y="126" on="1"/>
        <pt x="39" y="126" on="1"/>
      </contour>
      <contour>
        <pt x="370" y="326" on="1"/>
        <pt x="262" y="526" on="1"/>
        <pt x="361" y="526" on="1"/>
        <pt x="497" y="326" on="1"/>
        <pt x="361" y="126" on="1"/>
        <pt x="262" y="126" on="1"/>
      </contour>
    </TTGlyph>
    <TTGlyph name="guilsinglleft" xMin="59" yMin="126" xMax="294" yMax="526">
      <contour>
        <pt x="59" y="326" on="1"/>
        <pt x="195" y="526" on="1"/>
        <pt x="294" y="526" on="1"/>
        <pt x="186" y="326" on="1"/>
        <pt x="294" y="126" on="1"/>
        <pt x="195" y="126" on="1"/>
      </contour>
    </TTGlyph>
    <TTGlyph name="guilsinglright" xMin="39" yMin="126" xMax="274" yMax="526">
      <contour>
        <pt x="147" y="326" on="1"/>
        <pt x="39" y="526" on="1"/>
        <pt x="138" y="526" on="1"/>
        <pt x="274" y="326" on="1"/>
        <pt x="138" y="126" on="1"/>
        <pt x="39" y="126" on="1"/>
      </contour>
    </TTGlyph>
    <TTGlyph name="h" xMin="71" yMin="0" xMax="543" yMax="723">
      <contour>
        <pt x="406" y="324" on="1"/>
        <pt x="406" y="373" on="0"/>
        <pt x="360" y="417" on="0"/>
        <pt x="315" y="417" on="1"/>
        <pt x="269" y="417" on="0"/>
        <pt x="208" y="352" on="0"/>
        <pt x="208" y="304" on="1"/>
        <pt x="208" y="0" on="1"/>
        <pt x="71" y="0" on="1"/>
        <pt x="71" y="723" on="1"/>
        <pt x="208" y="723" on="1"/>
        <pt x="208" y="465" on="1"/>
        <pt x="215" y="465" on="1"/>
        <pt x="275" y="538" on="0"/>
        <pt x="369" y="538" on="1"/>
        <pt x="450" y="538" on="0"/>
        <pt x="543" y="450" on="0"/>
        <pt x="543" y="353" on="1"/>
        <pt x="543" y="0" on="1"/>
        <pt x="406" y="0" on="1"/>
      </contour>
    </TTGlyph>
    <TTGlyph name="hbar" xMin="13" yMin="0" xMax="543" yMax="723">
      <contour>
        <pt x="406" y="324" on="1"/>
        <pt x="406" y="373" on="0"/>
        <pt x="360" y="417" on="0"/>
        <pt x="315" y="417" on="1"/>
        <pt x="269" y="417" on="0"/>
        <pt x="208" y="352" on="0"/>
        <pt x="208" y="304" on="1"/>
        <pt x="208" y="0" on="1"/>
        <pt x="71" y="0" on="1"/>
        <pt x="71" y="587" on="1"/>
        <pt x="13" y="587" on="1"/>
        <pt x="13" y="658" on="1"/>
        <pt x="71" y="658" on="1"/>
        <pt x="71" y="723" on="1"/>
        <pt x="208" y="723" on="1"/>
        <pt x="208" y="658" on="1"/>
        <pt x="362" y="658" on="1"/>
        <pt x="362" y="587" on="1"/>
        <pt x="208" y="587" on="1"/>
        <pt x="208" y="465" on="1"/>
        <pt x="215" y="465" on="1"/>
        <pt x="275" y="538" on="0"/>
        <pt x="369" y="538" on="1"/>
        <pt x="450" y="538" on="0"/>
        <pt x="543" y="450" on="0"/>
        <pt x="543" y="353" on="1"/>
        <pt x="543" y="0" on="1"/>
        <pt x="406" y="0" on="1"/>
      </contour>
    </TTGlyph>
    <TTGlyph name="hcircumflex" xMin="-27" yMin="0" xMax="543" yMax="883">
      <component glyphName="h" x="0" y="0" flags="0x0"/>
      <component glyphName="circumflex" x="-27" y="160" flags="0x0"/>
    </TTGlyph>
    <TTGlyph name="hookabovecomb" xMin="-267" yMin="591" xMax="-67" yMax="735">
      <contour>
        <pt x="-267" y="727" on="1"/>
        <pt x="-229" y="735" on="0"/>
        <pt x="-184" y="735" on="1"/>
        <pt x="-138" y="735" on="0"/>
        <pt x="-67" y="708" on="0"/>
        <pt x="-67" y="674" on="1"/>
        <pt x="-67" y="647" on="0"/>
        <pt x="-115" y="618" on="0"/>
        <pt x="-152" y="616" on="1"/>
        <pt x="-152" y="591" on="1"/>
        <pt x="-220" y="591" on="1"/>
        <pt x="-220" y="645" on="1"/>
        <pt x="-206" y="645" on="1"/>
        <pt x="-188" y="645" on="0"/>
        <pt x="-174" y="654" on="0"/>
        <pt x="-174" y="664" on="1"/>
        <pt x="-174" y="675" on="0"/>
        <pt x="-191" y="683" on="0"/>
        <pt x="-209" y="683" on="1"/>
        <pt x="-267" y="683" on="1"/>
      </contour>
    </TTGlyph>
    <TTGlyph name="house" xMin="77" yMin="0" xMax="527" yMax="563">
      <contour>
        <pt x="77" y="310" on="1"/>
        <pt x="302" y="563" on="1"/>
        <pt x="527" y="310" on="1"/>
        <pt x="527" y="0" on="1"/>
        <pt x="77" y="0" on="1"/>
      </contour>
      <contour>
        <pt x="302" y="461" on="1"/>
        <pt x="146" y="283" on="1"/>
        <pt x="146" y="70" on="1"/>
        <pt x="458" y="70" on="1"/>
        <pt x="458" y="283" on="1"/>
      </contour>
    </TTGlyph>
    <TTGlyph name="hungarumlaut" xMin="7" yMin="591" xMax="395" yMax="723">
      <contour>
        <pt x="86" y="723" on="1"/>
        <pt x="219" y="723" on="1"/>
        <pt x="220" y="720" on="1"/>
        <pt x="112" y="591" on="1"/>
        <pt x="7" y="591" on="1"/>
      </contour>
      <contour>
        <pt x="261" y="723" on="1"/>
        <pt x="394" y="723" on="1"/>
        <pt x="395" y="720" on="1"/>
        <pt x="287" y="591" on="1"/>
        <pt x="182" y="591" on="1"/>
      </contour>
    </TTGlyph>
    <TTGlyph name="hyphen" xMin="46" yMin="211" xMax="287" yMax="329">
      <contour>
        <pt x="46" y="329" on="1"/>
        <pt x="287" y="329" on="1"/>
        <pt x="287" y="211" on="1"/>
        <pt x="46" y="211" on="1"/>
      </contour>
    </TTGlyph>
    <TTGlyph name="i" xMin="71" yMin="0" xMax="208" yMax="723">
      <contour>
        <pt x="71" y="723" on="1"/>
        <pt x="208" y="723" on="1"/>
        <pt x="208" y="599" on="1"/>
        <pt x="71" y="599" on="1"/>
      </contour>
      <contour>
        <pt x="71" y="526" on="1"/>
        <pt x="208" y="526" on="1"/>
        <pt x="208" y="0" on="1"/>
        <pt x="71" y="0" on="1"/>
      </contour>
    </TTGlyph>
    <TTGlyph name="i.loclTRK" xMin="71" yMin="0" xMax="208" yMax="724">
      <component glyphName="dotlessi" x="0" y="0" flags="0x0"/>
      <component glyphName="dotaccent" x="-29" y="0" flags="0x0"/>
    </TTGlyph>
    <TTGlyph name="iacute" xMin="71" yMin="0" xMax="284" yMax="723">
      <contour>
        <pt x="150" y="723" on="1"/>
        <pt x="283" y="723" on="1"/>
        <pt x="284" y="720" on="1"/>
        <pt x="176" y="591" on="1"/>
        <pt x="71" y="591" on="1"/>
      </contour>
      <contour>
        <pt x="71" y="526" on="1"/>
        <pt x="208" y="526" on="1"/>
        <pt x="208" y="0" on="1"/>
        <pt x="71" y="0" on="1"/>
      </contour>
    </TTGlyph>
    <TTGlyph name="iacute_j.loclNLD" xMin="71" yMin="-182" xMax="577" yMax="723">
      <component glyphName="iacute" x="0" y="0" flags="0x0"/>
      <component glyphName="uni0237" x="278" y="0" flags="0x0"/>
      <component glyphName="acute" x="289" y="0" flags="0x0"/>
    </TTGlyph>
    <TTGlyph name="ibreve" xMin="-20" yMin="0" xMax="303" yMax="723">
      <contour>
        <pt x="303" y="689" on="0"/>
        <pt x="269" y="626" on="0"/>
        <pt x="196" y="586" on="0"/>
        <pt x="141" y="586" on="1"/>
        <pt x="86" y="586" on="0"/>
        <pt x="14" y="626" on="0"/>
        <pt x="-20" y="689" on="0"/>
        <pt x="-20" y="723" on="1"/>
        <pt x="70" y="723" on="1"/>
        <pt x="73" y="705" on="0"/>
        <pt x="109" y="675" on="0"/>
        <pt x="141" y="675" on="1"/>
        <pt x="173" y="675" on="0"/>
        <pt x="211" y="705" on="0"/>
        <pt x="213" y="723" on="1"/>
        <pt x="303" y="723" on="1"/>
      </contour>
      <contour>
        <pt x="71" y="526" on="1"/>
        <pt x="208" y="526" on="1"/>
        <pt x="208" y="0" on="1"/>
        <pt x="71" y="0" on="1"/>
      </contour>
    </TTGlyph>
    <TTGlyph name="icircumflex" xMin="-27" yMin="0" xMax="306" yMax="723">
      <contour>
        <pt x="140" y="657" on="1"/>
        <pt x="84" y="588" on="1"/>
        <pt x="-27" y="588" on="1"/>
        <pt x="79" y="723" on="1"/>
        <pt x="201" y="723" on="1"/>
        <pt x="306" y="588" on="1"/>
        <pt x="195" y="588" on="1"/>
      </contour>
      <contour>
        <pt x="71" y="526" on="1"/>
        <pt x="208" y="526" on="1"/>
        <pt x="208" y="0" on="1"/>
        <pt x="71" y="0" on="1"/>
      </contour>
    </TTGlyph>
    <TTGlyph name="idieresis" xMin="-25" yMin="0" xMax="304" yMax="723">
      <contour>
        <pt x="-25" y="723" on="1"/>
        <pt x="93" y="723" on="1"/>
        <pt x="93" y="605" on="1"/>
        <pt x="-25" y="605" on="1"/>
      </contour>
      <contour>
        <pt x="185" y="723" on="1"/>
        <pt x="304" y="723" on="1"/>
        <pt x="304" y="605" on="1"/>
        <pt x="185" y="605" on="1"/>
      </contour>
      <contour>
        <pt x="71" y="526" on="1"/>
        <pt x="208" y="526" on="1"/>
        <pt x="208" y="0" on="1"/>
        <pt x="71" y="0" on="1"/>
      </contour>
    </TTGlyph>
    <TTGlyph name="igrave" xMin="-1" yMin="0" xMax="212" yMax="723">
      <contour>
        <pt x="-1" y="720" on="1"/>
        <pt x="0" y="723" on="1"/>
        <pt x="133" y="723" on="1"/>
        <pt x="212" y="591" on="1"/>
        <pt x="107" y="591" on="1"/>
      </contour>
      <contour>
        <pt x="71" y="526" on="1"/>
        <pt x="208" y="526" on="1"/>
        <pt x="208" y="0" on="1"/>
        <pt x="71" y="0" on="1"/>
      </contour>
    </TTGlyph>
    <TTGlyph name="ij" xMin="71" yMin="-182" xMax="486" yMax="723">
      <component glyphName="i" x="0" y="0" flags="0x0"/>
      <component glyphName="j" x="278" y="0" flags="0x0"/>
    </TTGlyph>
    <TTGlyph name="imacron" xMin="-13" yMin="0" xMax="292" yMax="727">
      <contour>
        <pt x="-13" y="727" on="1"/>
        <pt x="292" y="727" on="1"/>
        <pt x="292" y="639" on="1"/>
        <pt x="-13" y="639" on="1"/>
      </contour>
      <contour>
        <pt x="71" y="526" on="1"/>
        <pt x="208" y="526" on="1"/>
        <pt x="208" y="0" on="1"/>
        <pt x="71" y="0" on="1"/>
      </contour>
    </TTGlyph>
    <TTGlyph name="infinity" xMin="47" yMin="138" xMax="664" yMax="457">
      <contour>
        <pt x="317" y="185" on="0"/>
        <pt x="244" y="138" on="0"/>
        <pt x="196" y="138" on="1"/>
        <pt x="157" y="138" on="0"/>
        <pt x="88" y="177" on="0"/>
        <pt x="47" y="249" on="0"/>
        <pt x="47" y="296" on="1"/>
        <pt x="47" y="343" on="0"/>
        <pt x="88" y="416" on="0"/>
        <pt x="160" y="457" on="0"/>
        <pt x="204" y="457" on="1"/>
        <pt x="253" y="457" on="0"/>
        <pt x="329" y="412" on="0"/>
        <pt x="362" y="367" on="1"/>
        <pt x="367" y="373" on="0"/>
        <pt x="414" y="425" on="0"/>
        <pt x="476" y="457" on="0"/>
        <pt x="512" y="457" on="1"/>
        <pt x="553" y="457" on="0"/>
        <pt x="623" y="419" on="0"/>
        <pt x="664" y="349" on="0"/>
        <pt x="664" y="302" on="1"/>
        <pt x="664" y="252" on="0"/>
        <pt x="622" y="177" on="0"/>
        <pt x="552" y="138" on="0"/>
        <pt x="512" y="138" on="1"/>
        <pt x="472" y="138" on="0"/>
        <pt x="393" y="176" on="0"/>
        <pt x="354" y="232" on="1"/>
      </contour>
      <contour>
        <pt x="278" y="339" on="0"/>
        <pt x="239" y="375" on="0"/>
        <pt x="206" y="375" on="1"/>
        <pt x="178" y="375" on="0"/>
        <pt x="141" y="334" on="0"/>
        <pt x="141" y="297" on="1"/>
        <pt x="141" y="266" on="0"/>
        <pt x="180" y="221" on="0"/>
        <pt x="209" y="221" on="1"/>
        <pt x="260" y="221" on="0"/>
        <pt x="309" y="293" on="1"/>
        <pt x="306" y="298" on="1"/>
      </contour>
      <contour>
        <pt x="436" y="252" on="0"/>
        <pt x="481" y="221" on="0"/>
        <pt x="508" y="221" on="1"/>
        <pt x="536" y="221" on="0"/>
        <pt x="570" y="269" on="0"/>
        <pt x="570" y="296" on="1"/>
        <pt x="570" y="330" on="0"/>
        <pt x="533" y="375" on="0"/>
        <pt x="503" y="375" on="1"/>
        <pt x="476" y="375" on="0"/>
        <pt x="436" y="340" on="0"/>
        <pt x="406" y="302" on="1"/>
        <pt x="403" y="298" on="1"/>
      </contour>
    </TTGlyph>
    <TTGlyph name="integral" xMin="23" yMin="-141" xMax="259" yMax="859">
      <contour>
        <pt x="98" y="-71" on="0"/>
        <pt x="98" y="-13" on="1"/>
        <pt x="94" y="85" on="0"/>
        <pt x="71" y="653" on="0"/>
        <pt x="71" y="747" on="1"/>
        <pt x="71" y="812" on="0"/>
        <pt x="171" y="859" on="0"/>
        <pt x="259" y="859" on="1"/>
        <pt x="259" y="790" on="1"/>
        <pt x="182" y="790" on="0"/>
        <pt x="182" y="733" on="1"/>
        <pt x="187" y="635" on="0"/>
        <pt x="210" y="64" on="0"/>
        <pt x="210" y="-29" on="1"/>
        <pt x="210" y="-94" on="0"/>
        <pt x="111" y="-141" on="0"/>
        <pt x="23" y="-141" on="1"/>
        <pt x="23" y="-71" on="1"/>
      </contour>
    </TTGlyph>
    <TTGlyph name="integralbt" xMin="177" yMin="-250" xMax="365" yMax="859">
      <contour>
        <pt x="254" y="-181" on="0"/>
        <pt x="254" y="-124" on="1"/>
        <pt x="237" y="859" on="1"/>
        <pt x="351" y="859" on="1"/>
        <pt x="365" y="-21" on="0"/>
        <pt x="365" y="-138" on="1"/>
        <pt x="365" y="-203" on="0"/>
        <pt x="265" y="-250" on="0"/>
        <pt x="177" y="-250" on="1"/>
        <pt x="177" y="-181" on="1"/>
      </contour>
    </TTGlyph>
    <TTGlyph name="integraltp" xMin="239" yMin="-250" xMax="427" yMax="859">
      <contour>
        <pt x="239" y="630" on="0"/>
        <pt x="239" y="747" on="1"/>
        <pt x="239" y="812" on="0"/>
        <pt x="339" y="859" on="0"/>
        <pt x="427" y="859" on="1"/>
        <pt x="427" y="790" on="1"/>
        <pt x="350" y="790" on="0"/>
        <pt x="350" y="733" on="1"/>
        <pt x="367" y="-250" on="1"/>
        <pt x="253" y="-250" on="1"/>
      </contour>
    </TTGlyph>
    <TTGlyph name="intersection" xMin="94" yMin="0" xMax="626" yMax="676">
      <contour>
        <pt x="313" y="589" on="0"/>
        <pt x="233" y="543" on="0"/>
        <pt x="186" y="461" on="0"/>
        <pt x="186" y="410" on="1"/>
        <pt x="186" y="0" on="1"/>
        <pt x="94" y="0" on="1"/>
        <pt x="94" y="410" on="1"/>
        <pt x="94" y="485" on="0"/>
        <pt x="165" y="607" on="0"/>
        <pt x="287" y="676" on="0"/>
        <pt x="360" y="676" on="1"/>
        <pt x="433" y="676" on="0"/>
        <pt x="555" y="607" on="0"/>
        <pt x="626" y="485" on="0"/>
        <pt x="626" y="410" on="1"/>
        <pt x="626" y="0" on="1"/>
        <pt x="534" y="0" on="1"/>
        <pt x="534" y="410" on="1"/>
        <pt x="534" y="461" on="0"/>
        <pt x="488" y="543" on="0"/>
        <pt x="409" y="589" on="0"/>
        <pt x="361" y="589" on="1"/>
      </contour>
    </TTGlyph>
    <TTGlyph name="iogonek" xMin="55" yMin="-182" xMax="232" yMax="723">
      <contour>
        <pt x="71" y="723" on="1"/>
        <pt x="208" y="723" on="1"/>
        <pt x="208" y="599" on="1"/>
        <pt x="71" y="599" on="1"/>
      </contour>
      <contour>
        <pt x="193" y="-182" on="0"/>
        <pt x="161" y="-182" on="1"/>
        <pt x="117" y="-182" on="0"/>
        <pt x="55" y="-140" on="0"/>
        <pt x="55" y="-94" on="1"/>
        <pt x="55" y="-64" on="0"/>
        <pt x="76" y="-20" on="0"/>
        <pt x="94" y="0" on="1"/>
        <pt x="71" y="0" on="1"/>
        <pt x="71" y="526" on="1"/>
        <pt x="208" y="526" on="1"/>
        <pt x="208" y="0" on="1"/>
        <pt x="185" y="0" on="1"/>
        <pt x="160" y="-31" on="0"/>
        <pt x="160" y="-62" on="1"/>
        <pt x="160" y="-84" on="0"/>
        <pt x="184" y="-113" on="0"/>
        <pt x="208" y="-113" on="1"/>
        <pt x="232" y="-113" on="1"/>
        <pt x="232" y="-168" on="1"/>
      </contour>
    </TTGlyph>
    <TTGlyph name="itilde" xMin="-29" yMin="0" xMax="307" yMax="723">
      <contour>
        <pt x="307" y="670" on="0"/>
        <pt x="258" y="601" on="0"/>
        <pt x="208" y="601" on="1"/>
        <pt x="192" y="601" on="0"/>
        <pt x="165" y="610" on="0"/>
        <pt x="140" y="620" on="1"/>
        <pt x="119" y="629" on="0"/>
        <pt x="91" y="638" on="0"/>
        <pt x="76" y="638" on="1"/>
        <pt x="46" y="638" on="0"/>
        <pt x="41" y="601" on="1"/>
        <pt x="-29" y="601" on="1"/>
        <pt x="-29" y="654" on="0"/>
        <pt x="20" y="723" on="0"/>
        <pt x="69" y="723" on="1"/>
        <pt x="85" y="723" on="0"/>
        <pt x="113" y="714" on="0"/>
        <pt x="138" y="704" on="1"/>
        <pt x="159" y="695" on="0"/>
        <pt x="187" y="686" on="0"/>
        <pt x="202" y="686" on="1"/>
        <pt x="217" y="686" on="0"/>
        <pt x="234" y="703" on="0"/>
        <pt x="237" y="723" on="1"/>
        <pt x="307" y="723" on="1"/>
      </contour>
      <contour>
        <pt x="71" y="526" on="1"/>
        <pt x="208" y="526" on="1"/>
        <pt x="208" y="0" on="1"/>
        <pt x="71" y="0" on="1"/>
      </contour>
    </TTGlyph>
    <TTGlyph name="j" xMin="-24" yMin="-182" xMax="208" yMax="723">
      <contour>
        <pt x="71" y="723" on="1"/>
        <pt x="208" y="723" on="1"/>
        <pt x="208" y="599" on="1"/>
        <pt x="71" y="599" on="1"/>
      </contour>
      <contour>
        <pt x="28" y="-70" on="1"/>
        <pt x="71" y="-70" on="0"/>
        <pt x="71" y="-27" on="1"/>
        <pt x="71" y="526" on="1"/>
        <pt x="208" y="526" on="1"/>
        <pt x="208" y="-41" on="1"/>
        <pt x="208" y="-102" on="0"/>
        <pt x="144" y="-182" on="0"/>
        <pt x="70" y="-182" on="1"/>
        <pt x="48" y="-182" on="0"/>
        <pt x="-7" y="-172" on="0"/>
        <pt x="-24" y="-166" on="1"/>
        <pt x="-24" y="-70" on="1"/>
      </contour>
    </TTGlyph>
    <TTGlyph name="jcircumflex" xMin="-27" yMin="-182" xMax="306" yMax="723">
      <contour>
        <pt x="140" y="657" on="1"/>
        <pt x="84" y="588" on="1"/>
        <pt x="-27" y="588" on="1"/>
        <pt x="79" y="723" on="1"/>
        <pt x="201" y="723" on="1"/>
        <pt x="306" y="588" on="1"/>
        <pt x="195" y="588" on="1"/>
      </contour>
      <contour>
        <pt x="28" y="-70" on="1"/>
        <pt x="71" y="-70" on="0"/>
        <pt x="71" y="-27" on="1"/>
        <pt x="71" y="526" on="1"/>
        <pt x="208" y="526" on="1"/>
        <pt x="208" y="-41" on="1"/>
        <pt x="208" y="-102" on="0"/>
        <pt x="144" y="-182" on="0"/>
        <pt x="70" y="-182" on="1"/>
        <pt x="48" y="-182" on="0"/>
        <pt x="-7" y="-172" on="0"/>
        <pt x="-24" y="-166" on="1"/>
        <pt x="-24" y="-70" on="1"/>
      </contour>
    </TTGlyph>
    <TTGlyph name="k" xMin="71" yMin="0" xMax="550" yMax="723">
      <contour>
        <pt x="278" y="223" on="1"/>
        <pt x="208" y="155" on="1"/>
        <pt x="208" y="0" on="1"/>
        <pt x="71" y="0" on="1"/>
        <pt x="71" y="723" on="1"/>
        <pt x="208" y="723" on="1"/>
        <pt x="208" y="317" on="1"/>
        <pt x="382" y="526" on="1"/>
        <pt x="540" y="526" on="1"/>
        <pt x="366" y="324" on="1"/>
        <pt x="550" y="0" on="1"/>
        <pt x="393" y="0" on="1"/>
      </contour>
    </TTGlyph>
    <TTGlyph name="kcommaaccent" xMin="71" yMin="-230" xMax="550" yMax="723">
      <component glyphName="k" x="0" y="0" flags="0x0"/>
      <component glyphName="uni0326" x="468" y="0" flags="0x0"/>
    </TTGlyph>
    <TTGlyph name="kgreenlandic" xMin="71" yMin="0" xMax="550" yMax="526">
      <contour>
        <pt x="278" y="223" on="1"/>
        <pt x="208" y="155" on="1"/>
        <pt x="208" y="0" on="1"/>
        <pt x="71" y="0" on="1"/>
        <pt x="71" y="526" on="1"/>
        <pt x="208" y="526" on="1"/>
        <pt x="208" y="317" on="1"/>
        <pt x="382" y="526" on="1"/>
        <pt x="540" y="526" on="1"/>
        <pt x="366" y="324" on="1"/>
        <pt x="550" y="0" on="1"/>
        <pt x="393" y="0" on="1"/>
      </contour>
    </TTGlyph>
    <TTGlyph name="l" xMin="71" yMin="0" xMax="208" yMax="723">
      <contour>
        <pt x="71" y="723" on="1"/>
        <pt x="208" y="723" on="1"/>
        <pt x="208" y="0" on="1"/>
        <pt x="71" y="0" on="1"/>
      </contour>
    </TTGlyph>
    <TTGlyph name="lacute" xMin="71" yMin="0" xMax="299" yMax="883">
      <component glyphName="l" x="0" y="0" flags="0x0"/>
      <component glyphName="acute" x="11" y="160" flags="0x0"/>
    </TTGlyph>
    <TTGlyph name="lcaron" xMin="71" yMin="0" xMax="399" yMax="723">
      <contour>
        <pt x="71" y="723" on="1"/>
        <pt x="208" y="723" on="1"/>
        <pt x="208" y="0" on="1"/>
        <pt x="71" y="0" on="1"/>
      </contour>
      <contour>
        <pt x="316" y="559" on="1"/>
        <pt x="261" y="559" on="1"/>
        <pt x="261" y="686" on="1"/>
        <pt x="399" y="686" on="1"/>
        <pt x="399" y="571" on="1"/>
        <pt x="333" y="442" on="1"/>
        <pt x="261" y="442" on="1"/>
      </contour>
    </TTGlyph>
    <TTGlyph name="lcommaaccent" xMin="70" yMin="-230" xMax="208" yMax="723">
      <component glyphName="l" x="0" y="0" flags="0x0"/>
      <component glyphName="uni0326" x="306" y="0" flags="0x0"/>
    </TTGlyph>
    <TTGlyph name="ldot" xMin="71" yMin="0" xMax="395" yMax="723">
      <component glyphName="l" x="0" y="0" flags="0x0"/>
      <component glyphName="periodcentered" x="161" y="0" flags="0x0"/>
    </TTGlyph>
    <TTGlyph name="less" xMin="54" yMin="2" xMax="528" yMax="522">
      <contour>
        <pt x="54" y="325" on="1"/>
        <pt x="528" y="522" on="1"/>
        <pt x="528" y="404" on="1"/>
        <pt x="155" y="262" on="1"/>
        <pt x="528" y="120" on="1"/>
        <pt x="528" y="2" on="1"/>
        <pt x="54" y="198" on="1"/>
      </contour>
    </TTGlyph>
    <TTGlyph name="lessequal" xMin="38" yMin="0" xMax="512" yMax="643">
      <contour>
        <pt x="38" y="446" on="1"/>
        <pt x="512" y="643" on="1"/>
        <pt x="512" y="525" on="1"/>
        <pt x="139" y="383" on="1"/>
        <pt x="512" y="241" on="1"/>
        <pt x="512" y="123" on="1"/>
        <pt x="38" y="319" on="1"/>
      </contour>
      <contour>
        <pt x="39" y="104" on="1"/>
        <pt x="512" y="104" on="1"/>
        <pt x="512" y="0" on="1"/>
        <pt x="39" y="0" on="1"/>
      </contour>
    </TTGlyph>
    <TTGlyph name="lira" xMin="11" yMin="0" xMax="524" yMax="698">
      <contour>
        <pt x="24" y="112" on="1"/>
        <pt x="86" y="112" on="1"/>
        <pt x="86" y="194" on="1"/>
        <pt x="11" y="194" on="1"/>
        <pt x="11" y="286" on="1"/>
        <pt x="86" y="286" on="1"/>
        <pt x="86" y="339" on="1"/>
        <pt x="11" y="339" on="1"/>
        <pt x="11" y="431" on="1"/>
        <pt x="86" y="431" on="1"/>
        <pt x="86" y="499" on="1"/>
        <pt x="86" y="597" on="0"/>
        <pt x="200" y="698" on="0"/>
        <pt x="305" y="698" on="1"/>
        <pt x="407" y="698" on="0"/>
        <pt x="524" y="599" on="0"/>
        <pt x="524" y="504" on="1"/>
        <pt x="524" y="491" on="1"/>
        <pt x="388" y="491" on="1"/>
        <pt x="388" y="508" on="1"/>
        <pt x="388" y="545" on="0"/>
        <pt x="343" y="586" on="0"/>
        <pt x="305" y="586" on="1"/>
        <pt x="268" y="586" on="0"/>
        <pt x="224" y="545" on="0"/>
        <pt x="224" y="512" on="1"/>
        <pt x="224" y="431" on="1"/>
        <pt x="380" y="431" on="1"/>
        <pt x="380" y="339" on="1"/>
        <pt x="222" y="339" on="1"/>
        <pt x="222" y="286" on="1"/>
        <pt x="380" y="286" on="1"/>
        <pt x="380" y="194" on="1"/>
        <pt x="222" y="194" on="1"/>
        <pt x="210" y="112" on="1"/>
        <pt x="516" y="112" on="1"/>
        <pt x="516" y="0" on="1"/>
        <pt x="24" y="0" on="1"/>
      </contour>
    </TTGlyph>
    <TTGlyph name="logicalnot" xMin="42" yMin="193" xMax="542" yMax="455">
      <contour>
        <pt x="444" y="357" on="1"/>
        <pt x="42" y="357" on="1"/>
        <pt x="42" y="455" on="1"/>
        <pt x="542" y="455" on="1"/>
        <pt x="542" y="193" on="1"/>
        <pt x="444" y="193" on="1"/>
      </contour>
    </TTGlyph>
    <TTGlyph name="longs" xMin="9" yMin="0" xMax="314" yMax="731">
      <contour>
        <pt x="84" y="414" on="1"/>
        <pt x="9" y="414" on="1"/>
        <pt x="9" y="526" on="1"/>
        <pt x="84" y="526" on="1"/>
        <pt x="84" y="586" on="1"/>
        <pt x="84" y="648" on="0"/>
        <pt x="150" y="731" on="0"/>
        <pt x="226" y="731" on="1"/>
        <pt x="247" y="731" on="0"/>
        <pt x="297" y="721" on="0"/>
        <pt x="314" y="715" on="1"/>
        <pt x="314" y="619" on="1"/>
        <pt x="264" y="619" on="1"/>
        <pt x="221" y="619" on="0"/>
        <pt x="221" y="576" on="1"/>
        <pt x="221" y="0" on="1"/>
        <pt x="84" y="0" on="1"/>
      </contour>
    </TTGlyph>
    <TTGlyph name="lozenge" xMin="42" yMin="-133" xMax="526" yMax="728">
      <contour>
        <pt x="348" y="-133" on="1"/>
        <pt x="221" y="-133" on="1"/>
        <pt x="42" y="298" on="1"/>
        <pt x="221" y="728" on="1"/>
        <pt x="348" y="728" on="1"/>
        <pt x="526" y="298" on="1"/>
      </contour>
      <contour>
        <pt x="400" y="298" on="1"/>
        <pt x="284" y="597" on="1"/>
        <pt x="168" y="298" on="1"/>
        <pt x="284" y="-2" on="1"/>
      </contour>
    </TTGlyph>
    <TTGlyph name="lslash" xMin="0" yMin="0" xMax="278" yMax="723">
      <contour>
        <pt x="71" y="250" on="1"/>
        <pt x="0" y="202" on="1"/>
        <pt x="0" y="304" on="1"/>
        <pt x="71" y="352" on="1"/>
        <pt x="71" y="723" on="1"/>
        <pt x="208" y="723" on="1"/>
        <pt x="208" y="446" on="1"/>
        <pt x="278" y="494" on="1"/>
        <pt x="278" y="392" on="1"/>
        <pt x="208" y="344" on="1"/>
        <pt x="208" y="0" on="1"/>
        <pt x="71" y="0" on="1"/>
      </contour>
    </TTGlyph>
    <TTGlyph name="m" xMin="71" yMin="0" xMax="821" yMax="538">
      <contour>
        <pt x="684" y="324" on="1"/>
        <pt x="684" y="417" on="0"/>
        <pt x="607" y="417" on="1"/>
        <pt x="567" y="417" on="0"/>
        <pt x="515" y="352" on="0"/>
        <pt x="515" y="304" on="1"/>
        <pt x="515" y="0" on="1"/>
        <pt x="378" y="0" on="1"/>
        <pt x="378" y="324" on="1"/>
        <pt x="378" y="417" on="0"/>
        <pt x="301" y="417" on="1"/>
        <pt x="261" y="417" on="0"/>
        <pt x="208" y="352" on="0"/>
        <pt x="208" y="304" on="1"/>
        <pt x="208" y="0" on="1"/>
        <pt x="71" y="0" on="1"/>
        <pt x="71" y="526" on="1"/>
        <pt x="188" y="526" on="1"/>
        <pt x="198" y="457" on="1"/>
        <pt x="205" y="457" on="1"/>
        <pt x="263" y="538" on="0"/>
        <pt x="355" y="538" on="1"/>
        <pt x="455" y="538" on="0"/>
        <pt x="493" y="457" on="1"/>
        <pt x="501" y="457" on="1"/>
        <pt x="561" y="538" on="0"/>
        <pt x="657" y="538" on="1"/>
        <pt x="732" y="538" on="0"/>
        <pt x="821" y="450" on="0"/>
        <pt x="821" y="353" on="1"/>
        <pt x="821" y="0" on="1"/>
        <pt x="684" y="0" on="1"/>
      </contour>
    </TTGlyph>
    <TTGlyph name="macron" xMin="14" yMin="611" xMax="319" yMax="699">
      <contour>
        <pt x="14" y="699" on="1"/>
        <pt x="319" y="699" on="1"/>
        <pt x="319" y="611" on="1"/>
        <pt x="14" y="611" on="1"/>
      </contour>
    </TTGlyph>
    <TTGlyph name="minus" xMin="56" yMin="204" xMax="528" yMax="308">
      <contour>
        <pt x="56" y="308" on="1"/>
        <pt x="528" y="308" on="1"/>
        <pt x="528" y="204" on="1"/>
        <pt x="56" y="204" on="1"/>
      </contour>
    </TTGlyph>
    <TTGlyph name="minute" xMin="51" yMin="506" xMax="217" yMax="686">
      <contour>
        <pt x="86" y="686" on="1"/>
        <pt x="216" y="686" on="1"/>
        <pt x="217" y="683" on="1"/>
        <pt x="160" y="506" on="1"/>
        <pt x="51" y="506" on="1"/>
      </contour>
    </TTGlyph>
    <TTGlyph name="mu" xMin="52" yMin="-173" xMax="524" yMax="526">
      <contour>
        <pt x="397" y="69" on="1"/>
        <pt x="390" y="69" on="1"/>
        <pt x="371" y="30" on="0"/>
        <pt x="307" y="-12" on="0"/>
        <pt x="264" y="-12" on="1"/>
        <pt x="209" y="-12" on="0"/>
        <pt x="181" y="19" on="1"/>
        <pt x="182" y="9" on="0"/>
        <pt x="189" y="-56" on="0"/>
        <pt x="189" y="-76" on="1"/>
        <pt x="189" y="-173" on="1"/>
        <pt x="52" y="-173" on="1"/>
        <pt x="52" y="526" on="1"/>
        <pt x="189" y="526" on="1"/>
        <pt x="189" y="202" on="1"/>
        <pt x="189" y="153" on="0"/>
        <pt x="235" y="109" on="0"/>
        <pt x="280" y="109" on="1"/>
        <pt x="326" y="109" on="0"/>
        <pt x="387" y="174" on="0"/>
        <pt x="387" y="222" on="1"/>
        <pt x="387" y="526" on="1"/>
        <pt x="524" y="526" on="1"/>
        <pt x="524" y="0" on="1"/>
        <pt x="407" y="0" on="1"/>
      </contour>
    </TTGlyph>
    <TTGlyph name="multiply" xMin="75" yMin="37" xMax="510" yMax="473">
      <contour>
        <pt x="148" y="37" on="1"/>
        <pt x="75" y="111" on="1"/>
        <pt x="219" y="255" on="1"/>
        <pt x="75" y="399" on="1"/>
        <pt x="147" y="472" on="1"/>
        <pt x="292" y="328" on="1"/>
        <pt x="437" y="473" on="1"/>
        <pt x="510" y="399" on="1"/>
        <pt x="365" y="254" on="1"/>
        <pt x="509" y="111" on="1"/>
        <pt x="436" y="38" on="1"/>
        <pt x="292" y="182" on="1"/>
      </contour>
    </TTGlyph>
    <TTGlyph name="n" xMin="71" yMin="0" xMax="543" yMax="538">
      <contour>
        <pt x="406" y="324" on="1"/>
        <pt x="406" y="373" on="0"/>
        <pt x="360" y="417" on="0"/>
        <pt x="315" y="417" on="1"/>
        <pt x="269" y="417" on="0"/>
        <pt x="208" y="352" on="0"/>
        <pt x="208" y="304" on="1"/>
        <pt x="208" y="0" on="1"/>
        <pt x="71" y="0" on="1"/>
        <pt x="71" y="526" on="1"/>
        <pt x="188" y="526" on="1"/>
        <pt x="198" y="457" on="1"/>
        <pt x="205" y="457" on="1"/>
        <pt x="269" y="538" on="0"/>
        <pt x="369" y="538" on="1"/>
        <pt x="450" y="538" on="0"/>
        <pt x="543" y="450" on="0"/>
        <pt x="543" y="353" on="1"/>
        <pt x="543" y="0" on="1"/>
        <pt x="406" y="0" on="1"/>
      </contour>
    </TTGlyph>
    <TTGlyph name="nacute" xMin="71" yMin="0" xMax="543" yMax="723">
      <component glyphName="n" x="0" y="0" flags="0x0"/>
      <component glyphName="acute" x="178" y="0" flags="0x0"/>
    </TTGlyph>
    <TTGlyph name="nacute.loclPLK" xMin="71" yMin="0" xMax="543" yMax="722">
      <component glyphName="n" x="0" y="0" flags="0x0"/>
      <component glyphName="acute.loclPLK" x="163" y="0" flags="0x0"/>
    </TTGlyph>
    <TTGlyph name="napostrophe" xMin="-3" yMin="0" xMax="640" yMax="686">
      <contour>
        <pt x="52" y="559" on="1"/>
        <pt x="-3" y="559" on="1"/>
        <pt x="-3" y="686" on="1"/>
        <pt x="135" y="686" on="1"/>
        <pt x="135" y="571" on="1"/>
        <pt x="69" y="442" on="1"/>
        <pt x="-3" y="442" on="1"/>
      </contour>
      <contour>
        <pt x="503" y="324" on="1"/>
        <pt x="503" y="373" on="0"/>
        <pt x="457" y="417" on="0"/>
        <pt x="412" y="417" on="1"/>
        <pt x="366" y="417" on="0"/>
        <pt x="305" y="352" on="0"/>
        <pt x="305" y="304" on="1"/>
        <pt x="305" y="0" on="1"/>
        <pt x="168" y="0" on="1"/>
        <pt x="168" y="526" on="1"/>
        <pt x="285" y="526" on="1"/>
        <pt x="295" y="457" on="1"/>
        <pt x="302" y="457" on="1"/>
        <pt x="366" y="538" on="0"/>
        <pt x="466" y="538" on="1"/>
        <pt x="547" y="538" on="0"/>
        <pt x="640" y="450" on="0"/>
        <pt x="640" y="353" on="1"/>
        <pt x="640" y="0" on="1"/>
        <pt x="503" y="0" on="1"/>
      </contour>
    </TTGlyph>
    <TTGlyph name="ncaron" xMin="71" yMin="0" xMax="543" yMax="723">
      <component glyphName="n" x="0" y="0" flags="0x0"/>
      <component glyphName="caron" x="139" y="0" flags="0x0"/>
    </TTGlyph>
    <TTGlyph name="ncommaaccent" xMin="71" yMin="-230" xMax="543" yMax="538">
      <component glyphName="n" x="0" y="0" flags="0x0"/>
      <component glyphName="uni0326" x="473" y="0" flags="0x0"/>
    </TTGlyph>
</ttFont>
